<svg width="520" height="405" viewBox="0 0 520 405" fill="none" xmlns="http://www.w3.org/2000/svg">
<path d="M93.6814 88.2249C69.3925 86.5921 51.0228 65.5689 52.6556 41.4841C54.4926 17.1953 75.3117 -1.17449 99.6005 0.458372C123.685 2.29535 142.055 23.1144 140.422 47.4033C138.789 71.4881 117.766 89.8578 93.6814 88.2249Z" fill="url(#paint0_radial_3712_2069)"/>
<path d="M506.594 248.545C508.333 261.611 503.783 274.928 493.978 287.841C484.172 300.756 469.132 313.237 449.965 324.599C411.634 347.321 356.889 365.518 294.818 373.779C232.746 382.039 175.148 378.793 132.208 366.886C110.737 360.932 92.9559 352.82 80.1135 342.919C67.2734 333.019 59.3985 321.356 57.6596 308.289C55.9207 295.223 60.4712 281.906 70.2754 268.993C80.0814 256.077 95.1223 243.597 114.289 232.235C152.62 209.512 207.365 191.316 269.436 183.055C331.508 174.795 389.106 178.041 432.046 189.948C453.517 195.902 471.298 204.014 484.14 213.915C496.98 223.815 504.855 235.478 506.594 248.545Z" stroke="#B676FF"/>
<path d="M0.845995 240.6C0.845995 240.925 0.850971 241.245 0.860846 241.561L0.845958 241.557C0.934266 243.411 1.14284 245.132 1.42724 246.704C2.68761 253.669 8.88337 257.918 15.7123 259.781L14.3273 257.193C17.2997 257.069 20.6122 256.045 24.1045 254.029C36.9498 246.613 47.3629 228.576 47.3629 213.743C47.3629 209.335 46.4433 205.706 44.8134 202.977L48.082 203.191L46.3856 201.848C43.9942 199.955 41.2582 198.55 38.3334 197.71C34.4003 196.463 29.4641 197.22 24.1045 200.314C11.2592 207.731 0.845995 225.767 0.845995 240.6Z" fill="url(#paint1_linear_3712_2069)"/>
<path d="M6.60123 243.797C6.60123 258.63 17.0144 264.642 29.8597 257.226C42.705 249.809 53.1182 231.773 53.1182 216.94C53.1182 202.107 42.705 196.095 29.8597 203.511C17.0144 210.928 6.60123 228.964 6.60123 243.797Z" fill="url(#paint2_linear_3712_2069)"/>
<path d="M11.3464 242.403C11.3464 254.972 20.1706 260.067 31.0558 253.782C41.941 247.497 50.7652 232.213 50.7652 219.643C50.7652 207.074 41.941 201.979 31.0558 208.264C20.1706 214.549 11.3464 229.833 11.3464 242.403Z" stroke="white"/>
<path d="M21.926 239.822L30.9354 249.479L39.9968 229.302L30.9842 240.907L21.926 239.822Z" fill="url(#paint3_linear_3712_2069)"/>
<path d="M30.8068 214.793L22.004 237.203L30.9434 227.429L40.0754 226.881L30.8068 214.793Z" fill="url(#paint4_linear_3712_2069)"/>
<path d="M30.9786 239.34L30.8513 228.275L40.0785 227.692L30.9786 239.34Z" fill="white"/>
<path d="M31.0659 239.29L30.8513 228.275L21.9633 238.036L31.0659 239.29Z" fill="#E2E2E2"/>
<path d="M31.0061 234.838L40.1221 227.667L31.0222 239.315L21.9633 238.036L31.0061 234.838Z" fill="url(#paint5_linear_3712_2069)"/>
<path fill-rule="evenodd" clip-rule="evenodd" d="M232.332 303.969C238.134 278.373 243.94 252.779 249.751 227.185C250.248 224.964 250.813 222.742 251.365 220.535C253.408 212.346 256.979 203.84 248.993 197.427L233.898 185.351C241.883 191.764 238.313 200.27 236.269 208.458C235.717 210.665 235.152 212.887 234.656 215.108C228.845 240.703 223.038 266.297 217.236 291.892L232.332 303.969Z" fill="#52248B" fill-opacity="0.6"/>
<path fill-rule="evenodd" clip-rule="evenodd" d="M248.994 197.427C248.195 196.785 247.28 196.164 246.235 195.566L231.14 183.49C232.184 184.087 233.099 184.708 233.899 185.35L248.994 197.427Z" fill="#52248B" fill-opacity="0.6"/>
<path fill-rule="evenodd" clip-rule="evenodd" d="M246.235 195.566H278.895L263.799 183.49H231.14L246.235 195.566Z" fill="#52248B" fill-opacity="0.6"/>
<path fill-rule="evenodd" clip-rule="evenodd" d="M278.894 195.566C275.984 207.152 273.295 217.833 270.619 228.473L255.523 216.396C258.199 205.757 260.889 195.075 263.799 183.49L278.894 195.566Z" fill="#52248B" fill-opacity="0.6"/>
<path fill-rule="evenodd" clip-rule="evenodd" d="M270.619 228.474L271.723 228.995L310.547 183.748L295.451 171.671L256.627 216.918L255.523 216.397L270.619 228.474Z" fill="#52248B" fill-opacity="0.6"/>
<path fill-rule="evenodd" clip-rule="evenodd" d="M310.547 183.748H196.28L181.185 171.671H295.451L310.547 183.748Z" fill="#52248B" fill-opacity="0.6"/>
<path fill-rule="evenodd" clip-rule="evenodd" d="M196.28 183.747L314.009 22.6933L315.663 23.5159L300.567 11.4394L298.913 10.6167L181.185 171.671L196.28 183.747Z" fill="#52248B" fill-opacity="0.6"/>
<path fill-rule="evenodd" clip-rule="evenodd" d="M315.662 23.5155C312.393 37.9399 309.083 52.3094 305.884 66.7886C301.043 88.7267 296.574 110.665 291.278 132.37C289.919 137.975 289.593 142.392 293.651 145.646L278.555 133.57C274.497 130.315 274.823 125.899 276.182 120.294C281.479 98.5883 285.948 76.6501 290.788 54.712C293.988 40.2329 297.298 25.8633 300.566 11.439L315.662 23.5155Z" fill="#52248B" fill-opacity="0.6"/>
<path fill-rule="evenodd" clip-rule="evenodd" d="M293.652 145.646C294.329 146.189 295.129 146.7 296.065 147.178C297.293 147.809 298.63 148.221 299.914 148.741L284.818 136.665C283.535 136.144 282.197 135.733 280.97 135.102C280.033 134.623 279.234 134.113 278.557 133.57L293.652 145.646Z" fill="#52248B" fill-opacity="0.6"/>
<path fill-rule="evenodd" clip-rule="evenodd" d="M299.912 148.742L298.34 150.662H265.073L249.978 138.585H283.244L284.816 136.665L299.912 148.742Z" fill="#52248B" fill-opacity="0.6"/>
<path fill-rule="evenodd" clip-rule="evenodd" d="M265.073 150.661C267.639 139.445 270.025 128.956 272.411 118.467L257.315 106.39C254.929 116.879 252.543 127.369 249.978 138.585L265.073 150.661Z" fill="#52248B" fill-opacity="0.6"/>
<path fill-rule="evenodd" clip-rule="evenodd" d="M272.412 118.467L271.35 117.85L239.035 161.781L223.939 149.704L256.254 105.773L257.316 106.39L272.412 118.467Z" fill="#52248B" fill-opacity="0.6"/>
<path fill-rule="evenodd" clip-rule="evenodd" d="M239.035 161.781H355.342L340.247 149.705H223.939L239.035 161.781Z" fill="#52248B" fill-opacity="0.6"/>
<path fill-rule="evenodd" clip-rule="evenodd" d="M355.342 161.781L356.294 163.646L234.208 305.147L232.332 303.969L217.236 291.892L219.112 293.071L341.199 151.569L340.247 149.705L355.342 161.781Z" fill="#52248B" fill-opacity="0.6"/>
<path d="M232.333 303.968C238.134 278.373 243.941 252.779 249.752 227.184C250.248 224.963 250.814 222.741 251.365 220.534C253.613 211.526 257.71 202.133 246.235 195.566H278.894C275.984 207.151 273.295 217.833 270.619 228.472L271.722 228.994L310.547 183.747H196.28L314.009 22.6929L315.663 23.5156C312.394 37.9399 309.084 52.3094 305.885 66.7886C301.044 88.7267 296.576 110.665 291.279 132.37C289.693 138.911 289.514 143.833 296.065 147.178C297.293 147.809 298.63 148.221 299.913 148.741L298.341 150.661H265.075C267.64 139.445 270.026 128.956 272.412 118.467L271.35 117.85L239.035 161.781H355.343L356.295 163.645L234.208 305.147L232.333 303.968Z" fill="url(#paint6_linear_3712_2069)"/>
<path d="M452.462 336.168C435.901 335.055 423.376 320.721 424.49 304.3C425.742 287.739 439.937 275.214 456.498 276.328C472.919 277.58 485.444 291.775 484.331 308.336C483.217 324.757 468.883 337.282 452.462 336.168Z" fill="url(#paint7_radial_3712_2069)"/>
<path d="M155.997 389.2C151.581 388.903 148.241 385.08 148.538 380.701C148.872 376.285 152.657 372.945 157.073 373.242C161.452 373.576 164.792 377.361 164.495 381.777C164.199 386.156 160.376 389.496 155.997 389.2Z" fill="url(#paint8_radial_3712_2069)"/>
<ellipse cx="453.477" cy="47.7475" rx="28.3594" ry="29.04" fill="url(#paint9_linear_3712_2069)"/>
<circle cx="453.477" cy="49.3139" r="28.3594" fill="url(#paint10_linear_3712_2069)"/>
<circle cx="453.25" cy="49.5409" r="23.5487" stroke="white"/>
<path fill-rule="evenodd" clip-rule="evenodd" d="M463.562 43.6452L463.005 41.9406C462.901 41.5928 462.623 41.3319 462.275 41.2101L460.57 40.6883C460.327 40.6187 460.327 40.2882 460.57 40.2012L462.275 39.6446C462.623 39.5403 462.884 39.262 463.005 38.9141L463.527 37.2095C463.597 36.966 463.927 36.966 464.014 37.2095L464.571 38.9141C464.675 39.262 464.954 39.5229 465.301 39.6446L467.006 40.1665C467.25 40.236 467.25 40.5665 467.006 40.6535L465.301 41.2101C464.954 41.3145 464.693 41.5928 464.571 41.9406L464.049 43.6452C463.962 43.8714 463.632 43.8714 463.562 43.6452Z" fill="#FAFAFA"/>
<path fill-rule="evenodd" clip-rule="evenodd" d="M433.419 49.1239C433.941 48.0977 434.967 47.315 436.045 46.8279C437.124 46.3409 438.307 46.0452 439.472 45.9583C441.82 45.7495 444.116 46.1322 446.203 46.8279C447.282 47.1584 448.239 47.5933 449.23 48.0455C449.717 48.2716 450.169 48.5499 450.639 48.8109L451.926 49.5588C453.352 50.4285 454.727 51.2112 456.014 51.82C457.318 52.4114 458.484 52.8289 459.579 53.0376C460.675 53.2463 461.806 53.2463 463.18 52.9332C464.554 52.6201 466.085 51.9418 467.702 51.0895C469.32 50.2198 470.99 49.1587 472.886 48.1325C472.694 50.2893 472.086 52.3244 471.146 54.2899C470.172 56.2207 468.816 58.1166 466.85 59.6473C464.919 61.1953 462.258 62.2564 459.562 62.4303C456.849 62.6216 454.292 62.0128 452.1 61.1084C449.908 60.1865 447.995 58.9863 446.325 57.6644C445.856 57.2991 445.612 57.0904 445.264 56.7947L444.308 55.9424C443.664 55.4379 443.038 54.8292 442.394 54.3247C441.124 53.2115 439.855 52.1331 438.463 51.2112C437.767 50.7416 437.054 50.2893 436.237 49.9067C435.837 49.7153 435.402 49.5414 434.932 49.4022C434.463 49.2457 433.993 49.1587 433.419 49.1239Z" fill="#FF4F0A"/>
<path fill-rule="evenodd" clip-rule="evenodd" d="M433.419 49.1594C433.68 46.9504 434.706 44.8805 436.359 43.1237C437.994 41.3843 440.568 40.0276 443.403 39.8537C444.812 39.7667 446.238 39.9233 447.543 40.2711C448.847 40.6364 450.065 41.1582 451.178 41.7844C451.735 42.0975 452.239 42.4454 452.761 42.7759L454.135 43.8195L456.275 45.5067C457.666 46.6025 458.988 47.6288 460.206 48.4811C461.441 49.3334 462.484 49.9422 463.493 50.3074C464.485 50.7075 465.737 50.7945 467.407 50.377C468.224 50.1857 469.094 49.8378 470.016 49.4551C470.92 49.0725 471.877 48.6028 472.921 48.1506C472.799 49.2638 472.573 50.3596 472.138 51.4032C471.72 52.4469 471.181 53.4731 470.433 54.4298C470.051 54.8994 469.633 55.3691 469.146 55.7865C468.659 56.204 468.12 56.604 467.528 56.9519C466.346 57.6303 464.937 58.1347 463.493 58.326C462.049 58.5 460.606 58.413 459.284 58.1347C457.962 57.8564 456.762 57.4215 455.648 56.9171C453.439 55.8909 451.596 54.6037 449.961 53.2296C449.143 52.5512 448.378 51.8381 447.647 51.1076L446.795 50.2379C446.534 49.9943 446.273 49.7334 446.012 49.5073C444.969 48.5854 443.994 47.8723 442.933 47.4374C441.872 46.9678 440.516 46.7939 438.846 47.1069C437.176 47.4374 435.367 48.1506 433.419 49.1594Z" fill="#FAFAFA"/>
<path fill-rule="evenodd" clip-rule="evenodd" d="M442.292 60.5174C442.292 61.1957 441.752 61.735 441.074 61.735C440.396 61.735 439.856 61.1957 439.856 60.5174C439.856 59.839 440.396 59.2998 441.074 59.2998C441.752 59.2998 442.292 59.839 442.292 60.5174Z" fill="#FAFAFA"/>
<defs>
<radialGradient id="paint0_radial_3712_2069" cx="0" cy="0" r="1" gradientUnits="userSpaceOnUse" gradientTransform="translate(115.15 31.7551) rotate(93.8705) scale(56.5859)">
<stop offset="0.00887753" stop-color="#EFDEFA"/>
<stop offset="0.1723" stop-color="#DDBEF5"/>
<stop offset="0.4204" stop-color="#B89DF0"/>
<stop offset="0.5512" stop-color="#B47DEB"/>
<stop offset="0.7154" stop-color="#995CE6"/>
<stop offset="1" stop-color="#8133CF"/>
</radialGradient>
<linearGradient id="paint1_linear_3712_2069" x1="7.31976" y1="264.334" x2="49.2797" y2="188.803" gradientUnits="userSpaceOnUse">
<stop stop-color="#8399FF"/>
<stop offset="0.0001" stop-color="#657BE3"/>
<stop offset="0.516172" stop-color="#A8B8FF"/>
<stop offset="1" stop-color="#657BE3"/>
</linearGradient>
<linearGradient id="paint2_linear_3712_2069" x1="48.3525" y1="201.182" x2="46.8966" y2="260.945" gradientUnits="userSpaceOnUse">
<stop stop-color="#A6B7FF"/>
<stop offset="1" stop-color="#7D94FF"/>
</linearGradient>
<linearGradient id="paint3_linear_3712_2069" x1="32.2107" y1="212.999" x2="29.9252" y2="212.999" gradientUnits="userSpaceOnUse">
<stop offset="0.46875" stop-color="white"/>
<stop offset="0.53125" stop-color="#E2E2E2"/>
</linearGradient>
<linearGradient id="paint4_linear_3712_2069" x1="36.8696" y1="226.624" x2="25.0905" y2="226.624" gradientUnits="userSpaceOnUse">
<stop offset="0.500252" stop-color="white"/>
<stop offset="0.51131" stop-color="#E2E2E2"/>
</linearGradient>
<linearGradient id="paint5_linear_3712_2069" x1="31.5799" y1="236.268" x2="30.3552" y2="236.273" gradientUnits="userSpaceOnUse">
<stop offset="0.457402" stop-color="#F5F5F5"/>
<stop offset="0.550793" stop-color="#C1C2C1"/>
</linearGradient>
<linearGradient id="paint6_linear_3712_2069" x1="294.979" y1="56.7267" x2="240.524" y2="247.316" gradientUnits="userSpaceOnUse">
<stop stop-color="#C398FF"/>
<stop offset="1" stop-color="#8700FF"/>
</linearGradient>
<radialGradient id="paint7_radial_3712_2069" cx="0" cy="0" r="1" gradientUnits="userSpaceOnUse" gradientTransform="translate(467.1 297.666) rotate(93.8705) scale(38.5813 38.5813)">
<stop offset="0.00887753" stop-color="#EFDEFA"/>
<stop offset="0.1723" stop-color="#DDBEF5"/>
<stop offset="0.4204" stop-color="#B89DF0"/>
<stop offset="0.5512" stop-color="#B47DEB"/>
<stop offset="0.7154" stop-color="#995CE6"/>
<stop offset="1" stop-color="#8133CF"/>
</radialGradient>
<radialGradient id="paint8_radial_3712_2069" cx="0" cy="0" r="1" gradientUnits="userSpaceOnUse" gradientTransform="translate(159.901 378.932) rotate(93.8705) scale(10.2883)">
<stop offset="0.00887753" stop-color="#EFDEFA"/>
<stop offset="0.1723" stop-color="#DDBEF5"/>
<stop offset="0.4204" stop-color="#B89DF0"/>
<stop offset="0.5512" stop-color="#B47DEB"/>
<stop offset="0.7154" stop-color="#995CE6"/>
<stop offset="1" stop-color="#8133CF"/>
</radialGradient>
<linearGradient id="paint9_linear_3712_2069" x1="423.756" y1="52.1811" x2="485.467" y2="51.3429" gradientUnits="userSpaceOnUse">
<stop stop-color="#222255"/>
<stop offset="0.53" stop-color="#6565AC"/>
<stop offset="0.9999" stop-color="#222255"/>
</linearGradient>
<linearGradient id="paint10_linear_3712_2069" x1="453.477" y1="20.9546" x2="450.944" y2="77.6733" gradientUnits="userSpaceOnUse">
<stop offset="0.0538197" stop-color="#31316B"/>
<stop offset="1" stop-color="#29296E"/>
</linearGradient>
</defs>
</svg>
