<svg width="51" height="51" viewBox="0 0 51 51" fill="none" xmlns="http://www.w3.org/2000/svg">
<path d="M15.6009 21.4296L25.506 11.5285L35.4152 21.4376L41.1754 15.6734L25.506 0L9.83667 15.6694L15.6009 21.4296Z" fill="white"/>
<path d="M0 25.502L5.76021 19.7378L11.5244 25.502L5.76021 31.2622L0 25.502Z" fill="white"/>
<path d="M15.6009 29.5704L25.506 39.4755L35.4152 29.5664L41.1795 35.3226L25.5101 50.996L9.83667 35.3346L15.6009 29.5704Z" fill="white"/>
<path d="M39.4756 25.502L45.2358 19.7378L51 25.498L45.2358 31.2663L39.4756 25.502Z" fill="white"/>
<path d="M31.3509 25.498L25.5061 19.6492L21.1839 23.9713L20.6844 24.4668L19.6613 25.4899L25.5061 31.3307L31.3509 25.502V25.498Z" fill="white"/>
</svg>
