<svg width="30" height="30" viewBox="0 0 30 30" fill="none" xmlns="http://www.w3.org/2000/svg">
<path d="M15.0264 29.3531C23.0345 29.3531 29.5264 22.8613 29.5264 14.8531C29.5264 6.84502 23.0345 0.353149 15.0264 0.353149C7.01824 0.353149 0.526367 6.84502 0.526367 14.8531C0.526367 22.8613 7.01824 29.3531 15.0264 29.3531Z" fill="white"/>
<path d="M15.1481 10.6003C16.8553 10.6003 18.2096 11.6532 18.7239 13.2191H22.1631C21.54 9.87132 18.778 7.60315 15.1756 7.60315C11.0847 7.60315 7.88965 10.7085 7.88965 14.867C7.88965 19.0256 11.0049 22.1031 15.1756 22.1031C18.6972 22.1031 21.5143 19.835 22.1379 16.4595H18.7236C18.2359 18.0256 16.8828 19.106 15.1745 19.106C12.8174 19.106 11.1655 17.2966 11.1655 14.867C11.1666 12.4097 12.7919 10.6003 15.1481 10.6003Z" fill="#2F2F2F"/>
</svg>
