<svg width="415" height="446" viewBox="0 0 415 446" fill="none" xmlns="http://www.w3.org/2000/svg">
<g clip-path="url(#clip0_4100_2115)">
<path d="M304.097 384.945V148.513C304.097 141.969 302.356 135.542 299.052 129.89C295.748 124.237 291 119.561 285.292 116.34L204.024 70.4767C203.022 69.903 201.895 69.5831 200.74 69.5449C199.586 69.5067 198.44 69.7514 197.403 70.2577C191.959 70.8392 184.993 73.643 184.049 84.024L193.731 92.5869L199.819 340.346C199.85 341.552 200.186 342.731 200.796 343.773C201.407 344.814 202.272 345.684 203.311 346.302L276.945 390.066L276.745 394.402L284.328 398.906C284.328 398.906 289.415 404.581 299.334 398.906C299.625 398.774 299.903 398.618 300.166 398.438C301.376 397.679 302.372 396.625 303.06 395.374C303.747 394.124 304.104 392.719 304.096 391.293C304.149 390.759 304.147 388.539 304.097 384.945Z" fill="#DDDDDD"/>
<path d="M286.442 400.158L194.015 345.222C192.976 344.605 192.11 343.736 191.499 342.694C190.888 341.653 190.552 340.474 190.521 339.268L184.047 84.0239C183.908 78.476 189.884 74.8935 194.725 77.6257L276.824 123.957C282.28 127.037 286.82 131.508 289.978 136.912C293.137 142.316 294.801 148.46 294.801 154.716V395.419C294.801 396.394 294.542 397.351 294.05 398.194C293.559 399.036 292.852 399.734 292.003 400.215C291.154 400.697 290.192 400.945 289.215 400.935C288.238 400.925 287.281 400.657 286.442 400.158Z" fill="#F1F1F1"/>
<path d="M193.193 113.132L289.625 173.765V376.256L193.193 319.846V113.132Z" fill="#1E2026"/>
<path d="M200.883 106.214C200.883 106.214 167.579 129.206 170.3 164.115C170.3 164.115 160.876 172.268 155.009 157.217C155.009 157.217 153.754 148.23 155.009 141.123C156.264 134.015 164.809 112.114 184.417 98.0811L200.883 106.214Z" fill="#BB7AFC"/>
<path d="M193.193 319.846L289.625 268.25V376.256L193.193 319.846Z" fill="#2E3D8C"/>
<path d="M170.3 164.589C170.3 164.589 175.772 183.256 186.32 173.602C186.32 173.602 184.402 166.222 189.609 151.47C194.815 136.718 203.577 125.315 216.626 115.79L200.883 106.688C200.883 106.688 186.188 116.971 176.6 134.858C167.012 152.744 170.3 164.589 170.3 164.589Z" fill="white"/>
<path d="M216.627 115.791L232.353 124.443C232.353 124.443 220.793 131.015 212.997 144.026C205.201 157.038 199.926 167.767 200.884 183.328C200.884 183.328 192.441 191.775 186.317 173.602C186.317 173.602 183.897 160.748 193.337 142.662C202.778 124.576 216.627 115.791 216.627 115.791Z" fill="#BB7AFC"/>
<path d="M236.665 217.554L192.104 263.503H129.99V305.477H191.822C191.822 305.477 204.46 306.604 218.47 295.335C232.481 284.066 271.75 240.729 271.75 240.729L236.665 217.554Z" fill="#EABD00"/>
<path d="M232.352 124.443L248.715 133.832C248.715 133.832 236.245 140.941 226.964 157.305C217.683 173.668 217.152 192.046 217.152 192.046C217.152 192.046 207.712 200.766 200.873 181.852C200.873 181.852 200.157 173.327 202.493 166.465C204.83 159.603 210.795 138.239 232.352 124.443Z" fill="white"/>
<path d="M239.426 233.785L289.626 298.615V186.948L235.846 207.294L239.426 233.785Z" fill="#EAA50C"/>
<path d="M248.719 133.832L264.072 143.49C264.072 143.49 235.666 158.9 232.344 200.125C232.344 200.125 222.843 210.992 217.154 192.046C217.299 188.081 217.814 184.137 218.693 180.267C220.11 174.273 221.668 164.191 230.969 151.026C240.27 137.861 248.719 133.832 248.719 133.832Z" fill="#BB7AFC"/>
<path d="M294.801 197.554L261.755 217.554C261.755 217.554 260.738 195.067 272.852 178.571C284.967 162.074 294.803 161.246 294.803 161.246L294.801 197.554Z" fill="#49197D"/>
<path d="M264.074 143.49L280.05 152.416C280.05 152.416 253.412 167.853 248.72 209.781C248.72 209.781 240.018 220.352 232.357 200.125C232.357 200.125 233.261 188.5 237.689 176.374C242.117 164.249 250.145 151.416 264.074 143.49Z" fill="white"/>
<path d="M280.05 152.416L294.803 161.244C294.803 161.244 271.256 177.712 264.659 206.627C264.31 208.179 264.103 209.759 264.042 211.348C263.902 214.734 263.222 221.481 260.017 221.481C255.739 221.481 250.89 217.368 248.721 209.781C248.721 209.781 248.805 200.886 251.213 192.918C253.622 184.951 256.83 169.042 280.05 152.416Z" fill="#BB7AFC"/>
<path d="M255.61 125.58L225.151 108.691C225.03 108.623 224.929 108.524 224.859 108.405C224.789 108.285 224.752 108.149 224.752 108.01C224.752 107.875 224.787 107.742 224.854 107.624C224.922 107.506 225.019 107.408 225.136 107.34C225.253 107.271 225.386 107.234 225.521 107.233C225.657 107.231 225.791 107.265 225.909 107.331L256.37 124.22C256.492 124.288 256.592 124.387 256.663 124.506C256.733 124.626 256.77 124.762 256.77 124.901C256.769 125.036 256.734 125.17 256.666 125.287C256.599 125.405 256.501 125.502 256.384 125.571C256.267 125.64 256.134 125.676 255.998 125.678C255.863 125.68 255.729 125.646 255.61 125.58Z" fill="#4D4D4D"/>
<path d="M220.646 106.542C221.469 106.067 221.5 104.582 220.715 103.225C219.93 101.868 218.626 101.152 217.802 101.627C216.978 102.101 216.947 103.586 217.732 104.943C218.518 106.301 219.822 107.016 220.646 106.542Z" fill="#4D4D4D"/>
<path d="M407.301 269.53L327.322 217.488C326.864 217.218 326.485 216.833 326.221 216.371C325.958 215.91 325.819 215.388 325.819 214.857L322.738 194.097C322.738 191.731 325.953 187.785 330.437 189.716L411.27 237.394C412.404 238.063 413.343 239.015 413.995 240.156C414.648 241.298 414.991 242.589 414.992 243.903V263.857C415 269.062 410.011 270.841 407.301 269.53Z" fill="#49197D"/>
<path d="M407.301 269.53L324.243 220.543C323.785 220.272 323.405 219.887 323.141 219.426C322.878 218.965 322.739 218.443 322.738 217.912V195.397C322.738 194.858 322.881 194.329 323.152 193.863C323.423 193.397 323.813 193.01 324.282 192.743C324.751 192.476 325.283 192.337 325.823 192.341C326.363 192.345 326.893 192.491 327.358 192.765L406.778 239.61C408.343 240.533 409.64 241.847 410.54 243.423C411.441 244.999 411.915 246.781 411.915 248.595V266.9C411.914 267.438 411.771 267.966 411.501 268.432C411.23 268.897 410.841 269.283 410.372 269.55C409.904 269.817 409.373 269.956 408.834 269.952C408.295 269.949 407.766 269.803 407.301 269.53Z" fill="#BB7AFC"/>
<path d="M407.301 320.846L327.322 268.804C326.864 268.533 326.485 268.148 326.221 267.687C325.958 267.226 325.819 266.704 325.819 266.173L322.738 245.413C322.738 243.047 325.953 239.1 330.437 241.032L411.27 288.709C412.404 289.379 413.343 290.331 413.995 291.472C414.648 292.614 414.991 293.905 414.992 295.219V315.163C415 320.378 410.011 322.156 407.301 320.846Z" fill="#49197D"/>
<path d="M407.301 320.846L324.243 271.858C323.785 271.588 323.405 271.203 323.141 270.742C322.878 270.281 322.739 269.759 322.738 269.228V246.713C322.739 246.175 322.882 245.645 323.153 245.179C323.424 244.714 323.814 244.328 324.283 244.061C324.752 243.793 325.284 243.655 325.824 243.659C326.363 243.663 326.893 243.809 327.358 244.083L406.778 290.928C408.343 291.851 409.64 293.165 410.54 294.741C411.441 296.316 411.915 298.099 411.915 299.913V318.222C411.913 318.759 411.77 319.287 411.498 319.752C411.227 320.216 410.838 320.601 410.37 320.867C409.902 321.134 409.371 321.272 408.833 321.268C408.294 321.264 407.766 321.119 407.301 320.846Z" fill="#BB7AFC"/>
<path d="M407.301 368.311L327.322 316.268C326.864 315.997 326.485 315.613 326.221 315.151C325.958 314.69 325.819 314.168 325.819 313.637L322.738 292.875C322.738 290.51 325.953 286.563 330.437 288.494L411.27 336.174C412.403 336.843 413.342 337.795 413.995 338.936C414.647 340.077 414.991 341.368 414.992 342.682V362.629C415 367.843 410.011 369.619 407.301 368.311Z" fill="#49197D"/>
<path d="M407.301 368.311L324.243 319.323C323.785 319.053 323.405 318.669 323.141 318.208C322.878 317.747 322.739 317.225 322.738 316.694V294.176C322.738 293.637 322.881 293.108 323.153 292.642C323.424 292.176 323.814 291.79 324.283 291.523C324.752 291.256 325.284 291.117 325.824 291.122C326.364 291.126 326.893 291.273 327.358 291.547L406.778 338.392C408.343 339.315 409.64 340.63 410.54 342.205C411.441 343.781 411.915 345.563 411.915 347.377V365.68C411.914 366.218 411.771 366.747 411.501 367.212C411.23 367.678 410.841 368.063 410.372 368.33C409.904 368.597 409.373 368.736 408.834 368.733C408.295 368.729 407.766 368.584 407.301 368.311Z" fill="#BB7AFC"/>
<path d="M207.088 80.2146C208.932 80.2146 210.427 79.4461 210.427 78.4981C210.427 77.55 208.932 76.7815 207.088 76.7815C205.245 76.7815 203.75 77.55 203.75 78.4981C203.75 79.4461 205.245 80.2146 207.088 80.2146Z" fill="#333333"/>
<path d="M217.054 87.1345C219.176 87.1345 220.896 86.1163 220.896 84.8603C220.896 83.6044 219.176 82.5862 217.054 82.5862C214.933 82.5862 213.213 83.6044 213.213 84.8603C213.213 86.1163 214.933 87.1345 217.054 87.1345Z" fill="#666666"/>
<path d="M215.168 86.8399V69.8574L218.405 73.0835V86.9832C217.332 87.2271 216.214 87.1775 215.168 86.8399Z" fill="#989898"/>
<path d="M272.084 118.126C274.205 118.126 275.925 117.108 275.925 115.852C275.925 114.596 274.205 113.578 272.084 113.578C269.962 113.578 268.242 114.596 268.242 115.852C268.242 117.108 269.962 118.126 272.084 118.126Z" fill="#666666"/>
<path d="M296.022 117.118L190.262 58.2256C187.903 56.9113 183.738 50.1804 183.738 47.4861V10.0762C184.72 -0.79675 193.243 -1.45988 202.007 1.54112L302.622 52.7473C310.023 56.3417 313.701 64.7991 313.701 71.3228L312.503 105.443C312.493 123.849 300.989 119.881 296.022 117.118Z" fill="#49197D"/>
<path d="M270.189 117.832V100.849L273.426 104.079V117.979C272.354 118.221 271.235 118.171 270.189 117.832Z" fill="#989898"/>
<path d="M296.023 117.119L192.509 59.4783C189.848 57.9977 187.631 55.8351 186.087 53.2137C184.544 50.5924 183.729 47.6073 183.729 44.5668V12.5057C183.729 5.80675 190.87 1.51136 196.807 4.6418L297.701 57.8394C300.537 59.3336 302.912 61.5713 304.569 64.3116C306.226 67.052 307.103 70.1913 307.106 73.392V110.631C307.106 116.296 300.989 119.881 296.023 117.119Z" fill="#BB7AFC"/>
<path d="M97.917 303.87C111.204 303.87 121.975 295.254 121.975 284.625C121.975 273.996 111.204 265.38 97.917 265.38C84.6303 265.38 73.8594 273.996 73.8594 284.625C73.8594 295.254 84.6303 303.87 97.917 303.87Z" fill="#FFD3CA"/>
<path d="M119.201 275.656C116.655 287.391 103.872 296.319 88.4708 296.319C84.7296 296.325 81.0078 295.781 77.4258 294.704C81.6602 300.202 89.255 303.864 97.9195 303.864C111.205 303.864 121.977 295.247 121.977 284.619C121.957 281.424 120.992 278.305 119.201 275.656Z" fill="#FFB1A9"/>
<path opacity="0.4" d="M194.015 345.225L0 395.077V446H143.222L286.443 400.159L194.015 345.225Z" fill="#3F4166"/>
<path d="M134.557 244.437C134.557 239.349 113.71 235.225 87.9944 235.225C62.2785 235.225 41.4316 239.349 41.4316 244.437V252.705C41.4316 257.793 62.2785 261.917 87.9944 261.917C113.71 261.917 134.557 257.783 134.557 252.705V244.437Z" fill="#FFB129"/>
<path d="M87.9944 253.649C113.71 253.649 134.557 249.525 134.557 244.437C134.557 239.349 113.71 235.225 87.9944 235.225C62.2785 235.225 41.4316 239.349 41.4316 244.437C41.4316 249.525 62.2785 253.649 87.9944 253.649Z" fill="#FFD869"/>
<path d="M87.9945 249.537C106.396 249.537 121.313 246.92 121.313 243.692C121.313 240.464 106.396 237.848 87.9945 237.848C69.5931 237.848 54.6758 240.464 54.6758 243.692C54.6758 246.92 69.5931 249.537 87.9945 249.537Z" fill="#FFB129"/>
<path d="M88.0006 239.164C105.128 239.164 119.23 241.432 121.1 244.342C121.235 244.147 121.31 243.918 121.317 243.682C121.317 240.454 106.401 237.836 87.9926 237.836C69.5843 237.836 54.668 240.454 54.668 243.682C54.6749 243.918 54.7505 244.147 54.8855 244.342C56.7632 241.434 70.8654 239.164 88.0006 239.164Z" fill="#F99608"/>
<path d="M83.5187 263.403C83.3427 263.403 83.1684 263.369 83.0057 263.302C82.843 263.235 82.6952 263.136 82.5706 263.012C82.4461 262.888 82.3473 262.741 82.2798 262.579C82.2124 262.416 82.1777 262.242 82.1777 262.067V254.133C82.1777 253.778 82.319 253.438 82.5705 253.187C82.822 252.936 83.1631 252.795 83.5187 252.795C83.874 252.795 84.2146 252.937 84.4656 253.188C84.7167 253.438 84.8577 253.779 84.8577 254.133V262.065C84.8579 262.24 84.8235 262.414 84.7563 262.577C84.6892 262.739 84.5906 262.887 84.4662 263.011C84.3418 263.135 84.1941 263.234 84.0316 263.301C83.869 263.368 83.6947 263.403 83.5187 263.403Z" fill="#F99608"/>
<path d="M73.2335 262.997C73.0576 262.997 72.8834 262.963 72.7208 262.896C72.5582 262.828 72.4105 262.73 72.2861 262.606C72.1617 262.482 72.0631 262.334 71.9959 262.172C71.9287 262.01 71.8943 261.836 71.8945 261.66V253.725C71.8945 253.37 72.0356 253.031 72.2867 252.78C72.5378 252.529 72.8784 252.389 73.2335 252.389C73.5886 252.389 73.9292 252.529 74.1803 252.78C74.4314 253.031 74.5725 253.37 74.5725 253.725V261.666C74.5714 262.02 74.4298 262.359 74.1788 262.608C73.9277 262.857 73.5877 262.997 73.2335 262.997Z" fill="#F99608"/>
<path d="M64.0675 261.88C63.7124 261.88 63.3718 261.739 63.1207 261.488C62.8696 261.238 62.7285 260.898 62.7285 260.543V252.608C62.7283 252.432 62.7627 252.258 62.8299 252.096C62.8971 251.934 62.9957 251.786 63.1201 251.662C63.2445 251.538 63.3922 251.44 63.5548 251.373C63.7173 251.306 63.8916 251.271 64.0675 251.271C64.2434 251.271 64.4176 251.306 64.5802 251.373C64.7428 251.44 64.8905 251.538 65.0149 251.662C65.1393 251.786 65.2379 251.934 65.3051 252.096C65.3723 252.258 65.4067 252.432 65.4065 252.608V260.543C65.4065 260.898 65.2654 261.238 65.0143 261.488C64.7632 261.739 64.4226 261.88 64.0675 261.88Z" fill="#F99608"/>
<path d="M56.4288 260.852C56.0739 260.851 55.7336 260.71 55.4826 260.46C55.2316 260.21 55.0904 259.87 55.0898 259.516V251.58C55.0898 251.226 55.2309 250.886 55.482 250.635C55.7331 250.385 56.0737 250.244 56.4288 250.244C56.6048 250.244 56.7792 250.278 56.9418 250.345C57.1045 250.412 57.2524 250.51 57.3769 250.635C57.5015 250.759 57.6003 250.906 57.6677 251.068C57.7351 251.231 57.7698 251.404 57.7698 251.58V259.516C57.7693 259.87 57.6277 260.21 57.3763 260.461C57.1249 260.711 56.7841 260.852 56.4288 260.852Z" fill="#F99608"/>
<path d="M49.505 259.123C49.3291 259.124 49.1548 259.089 48.9923 259.022C48.8297 258.955 48.682 258.857 48.5576 258.733C48.4332 258.609 48.3346 258.461 48.2674 258.299C48.2002 258.137 48.1658 257.963 48.166 257.787V249.852C48.166 249.497 48.3071 249.157 48.5582 248.907C48.8093 248.656 49.1499 248.515 49.505 248.515C49.8601 248.515 50.2007 248.656 50.4518 248.907C50.7029 249.157 50.844 249.497 50.844 249.852V257.787C50.8442 257.963 50.8098 258.137 50.7426 258.299C50.6754 258.461 50.5768 258.609 50.4524 258.733C50.328 258.857 50.1803 258.955 50.0177 259.022C49.8551 259.089 49.6809 259.124 49.505 259.123Z" fill="#F99608"/>
<path d="M44.1007 257.108C43.7456 257.108 43.405 256.968 43.1539 256.717C42.9028 256.466 42.7617 256.126 42.7617 255.772V247.836C42.7615 247.661 42.7959 247.487 42.8631 247.325C42.9303 247.163 43.0289 247.015 43.1533 246.891C43.2777 246.767 43.4254 246.669 43.588 246.601C43.7506 246.534 43.9248 246.5 44.1007 246.5C44.2766 246.5 44.4508 246.534 44.6134 246.601C44.776 246.669 44.9237 246.767 45.0481 246.891C45.1725 247.015 45.2711 247.163 45.3383 247.325C45.4055 247.487 45.4399 247.661 45.4397 247.836V255.772C45.4397 256.126 45.2986 256.466 45.0475 256.717C44.7964 256.968 44.4558 257.108 44.1007 257.108Z" fill="#F99608"/>
<path d="M93.1593 263.403C92.9833 263.403 92.809 263.369 92.6463 263.302C92.4836 263.235 92.3358 263.136 92.2112 263.012C92.0867 262.888 91.9879 262.741 91.9205 262.579C91.8531 262.416 91.8184 262.242 91.8184 262.067V254.133C91.8184 253.778 91.9596 253.438 92.2111 253.187C92.4626 252.936 92.8037 252.795 93.1593 252.795C93.5146 252.795 93.8552 252.937 94.1062 253.188C94.3573 253.438 94.4983 253.779 94.4983 254.133V262.065C94.4986 262.24 94.4641 262.414 94.3969 262.577C94.3298 262.739 94.2312 262.887 94.1068 263.011C93.9825 263.135 93.8348 263.234 93.6722 263.301C93.5096 263.368 93.3353 263.403 93.1593 263.403Z" fill="#F99608"/>
<path d="M103.083 262.65C102.728 262.65 102.387 262.51 102.136 262.259C101.885 262.008 101.744 261.668 101.744 261.314V253.38C101.744 253.026 101.885 252.686 102.136 252.435C102.387 252.184 102.728 252.043 103.083 252.042C103.259 252.042 103.434 252.077 103.596 252.144C103.759 252.211 103.907 252.31 104.031 252.434C104.156 252.558 104.255 252.706 104.322 252.868C104.389 253.031 104.424 253.205 104.424 253.38V261.314C104.424 261.49 104.389 261.664 104.322 261.826C104.255 261.988 104.156 262.136 104.031 262.26C103.907 262.384 103.759 262.482 103.596 262.549C103.433 262.616 103.259 262.651 103.083 262.65Z" fill="#F99608"/>
<path d="M112.472 261.714C112.117 261.714 111.776 261.573 111.525 261.323C111.274 261.072 111.133 260.732 111.133 260.378V252.442C111.133 252.267 111.167 252.093 111.234 251.931C111.301 251.769 111.4 251.621 111.524 251.497C111.649 251.373 111.797 251.274 111.959 251.207C112.122 251.14 112.296 251.106 112.472 251.106C112.648 251.106 112.822 251.14 112.985 251.207C113.147 251.274 113.295 251.373 113.419 251.497C113.544 251.621 113.642 251.769 113.709 251.931C113.777 252.093 113.811 252.267 113.811 252.442V260.378C113.811 260.732 113.67 261.072 113.419 261.323C113.167 261.573 112.827 261.714 112.472 261.714Z" fill="#F99608"/>
<path d="M119.849 260.912C119.673 260.912 119.498 260.877 119.336 260.81C119.173 260.743 119.026 260.644 118.901 260.52C118.777 260.395 118.678 260.248 118.611 260.086C118.544 259.923 118.51 259.749 118.51 259.574V251.64C118.51 251.464 118.544 251.29 118.611 251.128C118.678 250.966 118.777 250.818 118.901 250.694C119.026 250.57 119.173 250.471 119.336 250.404C119.498 250.336 119.673 250.302 119.849 250.302C120.025 250.302 120.199 250.336 120.362 250.404C120.524 250.471 120.672 250.57 120.796 250.694C120.921 250.818 121.019 250.966 121.086 251.128C121.154 251.29 121.188 251.464 121.188 251.64V259.574C121.188 259.749 121.154 259.923 121.086 260.086C121.019 260.248 120.921 260.395 120.796 260.52C120.672 260.644 120.524 260.743 120.362 260.81C120.199 260.877 120.025 260.912 119.849 260.912Z" fill="#F99608"/>
<path d="M126.423 248.294H126.421C125.682 248.294 125.082 248.893 125.082 249.631V257.566C125.082 258.304 125.682 258.902 126.421 258.902H126.423C127.162 258.902 127.762 258.304 127.762 257.566V249.631C127.762 248.893 127.162 248.294 126.423 248.294Z" fill="#F99608"/>
<path d="M131.652 256.851C131.475 256.851 131.301 256.817 131.138 256.75C130.976 256.682 130.828 256.584 130.703 256.46C130.579 256.335 130.48 256.188 130.413 256.025C130.345 255.863 130.311 255.689 130.311 255.513V247.58C130.311 247.404 130.345 247.23 130.413 247.068C130.48 246.906 130.579 246.758 130.703 246.634C130.828 246.51 130.976 246.412 131.138 246.345C131.301 246.278 131.476 246.243 131.652 246.243C132.007 246.243 132.347 246.384 132.598 246.635C132.849 246.885 132.99 247.225 132.99 247.58V255.513C132.99 255.868 132.849 256.208 132.598 256.459C132.347 256.71 132.007 256.851 131.652 256.851Z" fill="#F99608"/>
<path d="M126.743 231.76C126.743 226.672 105.896 222.546 80.1799 222.546C54.4641 222.546 33.6172 226.672 33.6172 231.76V240.018C33.6172 245.106 54.4641 249.23 80.1799 249.23C105.896 249.23 126.743 245.106 126.743 240.018V231.76Z" fill="#FFB129"/>
<path d="M80.1799 240.97C105.896 240.97 126.743 236.846 126.743 231.758C126.743 226.67 105.896 222.546 80.1799 222.546C54.464 222.546 33.6172 226.67 33.6172 231.758C33.6172 236.846 54.464 240.97 80.1799 240.97Z" fill="#FFD869"/>
<path d="M80.18 236.858C98.5814 236.858 113.499 234.241 113.499 231.013C113.499 227.785 98.5814 225.169 80.18 225.169C61.7786 225.169 46.8613 227.785 46.8613 231.013C46.8613 234.241 61.7786 236.858 80.18 236.858Z" fill="#FFB129"/>
<path d="M80.1803 226.489C97.3076 226.489 111.41 228.757 113.281 231.666C113.416 231.472 113.491 231.243 113.499 231.007C113.499 227.777 98.5807 225.161 80.1743 225.161C61.7679 225.161 46.8496 227.777 46.8496 231.007C46.8575 231.243 46.933 231.472 47.0671 231.666C48.9509 228.757 63.057 226.489 80.1803 226.489Z" fill="#F99608"/>
<path d="M75.7042 250.726C75.5283 250.726 75.3541 250.692 75.1915 250.625C75.0289 250.558 74.8812 250.459 74.7568 250.335C74.6324 250.211 74.5338 250.064 74.4666 249.901C74.3994 249.739 74.365 249.565 74.3652 249.39V241.454C74.3652 241.279 74.3999 241.105 74.4672 240.943C74.5344 240.781 74.6331 240.633 74.7574 240.509C74.8817 240.385 75.0294 240.287 75.1918 240.22C75.3543 240.152 75.5284 240.118 75.7042 240.118C75.88 240.118 76.0542 240.152 76.2166 240.22C76.3791 240.287 76.5267 240.385 76.651 240.509C76.7753 240.633 76.874 240.781 76.9413 240.943C77.0085 241.105 77.0432 241.279 77.0432 241.454V249.39C77.0434 249.565 77.009 249.739 76.9418 249.901C76.8746 250.064 76.776 250.211 76.6516 250.335C76.5272 250.459 76.3795 250.558 76.2169 250.625C76.0544 250.692 75.8801 250.726 75.7042 250.726Z" fill="#F99608"/>
<path d="M65.4191 250.316C65.0639 250.316 64.7234 250.175 64.4723 249.924C64.2212 249.674 64.0801 249.334 64.0801 248.979V241.044C64.0806 240.689 64.2218 240.35 64.4728 240.099C64.7238 239.849 65.0641 239.708 65.4191 239.708C65.7744 239.708 66.1151 239.848 66.3666 240.099C66.618 240.349 66.7595 240.689 66.76 241.044V248.979C66.76 249.155 66.7253 249.329 66.6579 249.491C66.5905 249.653 66.4917 249.801 66.3671 249.925C66.2426 250.049 66.0948 250.147 65.9321 250.214C65.7694 250.281 65.5951 250.316 65.4191 250.316Z" fill="#F99608"/>
<path d="M56.253 249.203C55.8977 249.202 55.5572 249.061 55.3061 248.81C55.0551 248.559 54.9141 248.219 54.9141 247.864V239.931C54.9141 239.576 55.0551 239.236 55.3062 238.986C55.5573 238.735 55.8979 238.594 56.253 238.594C56.429 238.594 56.6034 238.629 56.7661 238.696C56.9287 238.763 57.0766 238.861 57.2011 238.985C57.3257 239.109 57.4245 239.257 57.4919 239.419C57.5593 239.581 57.594 239.755 57.594 239.931V247.864C57.594 248.219 57.4527 248.56 57.2012 248.811C56.9498 249.062 56.6087 249.203 56.253 249.203Z" fill="#F99608"/>
<path d="M48.6164 248.175C48.2607 248.175 47.9196 248.034 47.6681 247.783C47.4167 247.532 47.2754 247.192 47.2754 246.837V238.903C47.2754 238.727 47.3101 238.554 47.3775 238.391C47.4449 238.229 47.5437 238.082 47.6683 237.958C47.7928 237.833 47.9407 237.735 48.1033 237.668C48.266 237.601 48.4404 237.567 48.6164 237.567C48.9715 237.567 49.312 237.708 49.5632 237.958C49.8143 238.209 49.9553 238.549 49.9553 238.903V246.837C49.9553 247.191 49.8143 247.531 49.5633 247.782C49.3122 248.033 48.9717 248.174 48.6164 248.175Z" fill="#F99608"/>
<path d="M41.6905 246.446C41.3356 246.446 40.9953 246.305 40.7443 246.055C40.4933 245.804 40.3521 245.464 40.3516 245.11V237.173C40.3521 236.818 40.4933 236.479 40.7443 236.228C40.9953 235.978 41.3356 235.837 41.6905 235.836C42.0458 235.836 42.3866 235.977 42.638 236.228C42.8895 236.478 43.031 236.818 43.0315 237.173V245.108C43.0315 245.284 42.9968 245.458 42.9294 245.62C42.862 245.783 42.7633 245.93 42.6387 246.055C42.5142 246.179 42.3664 246.277 42.2037 246.345C42.041 246.412 41.8666 246.446 41.6905 246.446Z" fill="#F99608"/>
<path d="M36.2921 244.431C35.9371 244.431 35.5969 244.29 35.3459 244.039C35.0949 243.789 34.9537 243.449 34.9531 243.095V235.159C34.9531 234.805 35.0942 234.465 35.3453 234.215C35.5964 233.964 35.937 233.823 36.2921 233.823C36.4681 233.823 36.6424 233.857 36.8051 233.924C36.9678 233.991 37.1156 234.09 37.2402 234.214C37.3647 234.338 37.4635 234.485 37.531 234.648C37.5984 234.81 37.6331 234.984 37.6331 235.159V243.095C37.6325 243.45 37.491 243.79 37.2396 244.04C36.9882 244.291 36.6474 244.431 36.2921 244.431Z" fill="#F99608"/>
<path d="M85.3448 250.726C85.1689 250.726 84.9947 250.692 84.8321 250.625C84.6695 250.558 84.5218 250.459 84.3975 250.335C84.2731 250.211 84.1744 250.064 84.1072 249.901C84.0401 249.739 84.0056 249.565 84.0059 249.39V241.454C84.0059 241.279 84.0405 241.105 84.1078 240.943C84.1751 240.781 84.2737 240.633 84.398 240.509C84.5224 240.385 84.67 240.287 84.8324 240.22C84.9949 240.152 85.169 240.118 85.3448 240.118C85.5207 240.118 85.6948 240.152 85.8572 240.22C86.0197 240.287 86.1673 240.385 86.2916 240.509C86.416 240.633 86.5146 240.781 86.5819 240.943C86.6492 241.105 86.6838 241.279 86.6838 241.454V249.39C86.6841 249.565 86.6496 249.739 86.5824 249.901C86.5152 250.064 86.4166 250.211 86.2922 250.335C86.1678 250.459 86.0201 250.558 85.8575 250.625C85.695 250.692 85.5207 250.726 85.3448 250.726Z" fill="#F99608"/>
<path d="M95.2707 249.973C95.0947 249.974 94.9203 249.939 94.7576 249.872C94.595 249.805 94.4471 249.707 94.3226 249.583C94.198 249.459 94.0992 249.311 94.0318 249.149C93.9644 248.987 93.9297 248.813 93.9297 248.637V240.701C93.9302 240.347 94.0717 240.007 94.3232 239.756C94.5746 239.506 94.9154 239.365 95.2707 239.365C95.6256 239.366 95.9659 239.507 96.2169 239.757C96.4679 240.008 96.6091 240.347 96.6096 240.701V248.637C96.6096 248.991 96.4686 249.331 96.2175 249.582C95.9663 249.833 95.6258 249.973 95.2707 249.973Z" fill="#F99608"/>
<path d="M104.659 249.037C104.304 249.037 103.963 248.896 103.711 248.645C103.46 248.394 103.318 248.054 103.318 247.699V239.761C103.318 239.586 103.353 239.412 103.42 239.25C103.488 239.087 103.587 238.94 103.711 238.816C103.836 238.692 103.984 238.593 104.146 238.526C104.309 238.459 104.483 238.425 104.659 238.425C105.014 238.425 105.355 238.566 105.606 238.817C105.857 239.067 105.998 239.407 105.998 239.761V247.695C105.999 247.871 105.965 248.045 105.898 248.208C105.831 248.371 105.732 248.519 105.608 248.643C105.483 248.768 105.336 248.867 105.173 248.935C105.01 249.002 104.836 249.037 104.659 249.037Z" fill="#F99608"/>
<path d="M112.034 248.233C111.858 248.233 111.684 248.199 111.522 248.132C111.359 248.065 111.211 247.966 111.087 247.842C110.963 247.718 110.864 247.57 110.797 247.408C110.73 247.246 110.695 247.072 110.695 246.897V238.965C110.695 238.789 110.729 238.615 110.797 238.453C110.864 238.291 110.962 238.143 111.087 238.019C111.211 237.894 111.359 237.796 111.521 237.729C111.684 237.661 111.858 237.627 112.034 237.627C112.21 237.627 112.385 237.661 112.547 237.729C112.71 237.796 112.858 237.894 112.983 238.019C113.107 238.143 113.206 238.29 113.273 238.453C113.341 238.615 113.375 238.789 113.375 238.965V246.899C113.375 247.074 113.34 247.248 113.273 247.41C113.205 247.572 113.106 247.719 112.982 247.843C112.857 247.967 112.709 248.065 112.547 248.132C112.384 248.199 112.21 248.233 112.034 248.233Z" fill="#F99608"/>
<path d="M118.609 235.617H118.607C117.867 235.617 117.268 236.216 117.268 236.954V244.889C117.268 245.627 117.867 246.225 118.607 246.225H118.609C119.348 246.225 119.948 245.627 119.948 244.889V236.954C119.948 236.216 119.348 235.617 118.609 235.617Z" fill="#F99608"/>
<path d="M123.839 244.172C123.663 244.173 123.489 244.138 123.326 244.071C123.164 244.004 123.016 243.906 122.892 243.781C122.767 243.657 122.669 243.51 122.601 243.348C122.534 243.185 122.5 243.012 122.5 242.836V234.902C122.5 234.727 122.534 234.553 122.601 234.39C122.669 234.228 122.767 234.081 122.891 233.956C123.016 233.832 123.164 233.733 123.326 233.666C123.489 233.599 123.663 233.564 123.839 233.564C124.015 233.564 124.189 233.599 124.352 233.666C124.514 233.733 124.662 233.832 124.786 233.956C124.911 234.081 125.009 234.228 125.077 234.39C125.144 234.553 125.178 234.727 125.178 234.902V242.836C125.178 243.012 125.144 243.185 125.077 243.348C125.009 243.51 124.911 243.657 124.786 243.781C124.662 243.906 124.514 244.004 124.352 244.071C124.189 244.138 124.015 244.173 123.839 244.172Z" fill="#F99608"/>
<path d="M135.825 217.132C135.825 212.044 114.978 207.919 89.2619 207.919C63.546 207.919 42.7031 212.044 42.7031 217.132V225.39C42.7031 230.478 63.55 234.604 89.2659 234.604C114.982 234.604 135.829 230.478 135.829 225.39L135.825 217.132Z" fill="#FFB129"/>
<path d="M89.262 226.344C114.978 226.344 135.825 222.219 135.825 217.132C135.825 212.044 114.978 207.919 89.262 207.919C63.5461 207.919 42.6992 212.044 42.6992 217.132C42.6992 222.219 63.5461 226.344 89.262 226.344Z" fill="#FFD869"/>
<path d="M89.2621 222.231C107.663 222.231 122.581 219.615 122.581 216.387C122.581 213.159 107.663 210.542 89.2621 210.542C70.8606 210.542 55.9434 213.159 55.9434 216.387C55.9434 219.615 70.8606 222.231 89.2621 222.231Z" fill="#FFB129"/>
<path d="M89.2623 211.862C106.392 211.862 120.494 214.13 122.364 217.04C122.498 216.845 122.574 216.615 122.581 216.379C122.581 213.151 107.663 210.534 89.2563 210.534C70.8499 210.534 55.9316 213.151 55.9316 216.379C55.9391 216.615 56.0138 216.844 56.1472 217.04C58.0329 214.13 72.135 211.862 89.2623 211.862Z" fill="#F99608"/>
<path d="M84.7862 236.099C84.4309 236.099 84.0904 235.958 83.8393 235.707C83.5883 235.456 83.4473 235.116 83.4473 234.761V226.827C83.4473 226.473 83.5883 226.133 83.8394 225.883C84.0906 225.632 84.4311 225.491 84.7862 225.491C84.9622 225.491 85.1366 225.525 85.2993 225.592C85.4619 225.659 85.6098 225.758 85.7343 225.882C85.8589 226.006 85.9577 226.153 86.0251 226.316C86.0925 226.478 86.1272 226.652 86.1272 226.827V234.761C86.1272 234.937 86.0925 235.111 86.0251 235.273C85.9577 235.436 85.859 235.583 85.7344 235.707C85.6099 235.832 85.4621 235.93 85.2994 235.997C85.1367 236.065 84.9623 236.099 84.7862 236.099Z" fill="#F99608"/>
<path d="M74.5011 235.691C74.3251 235.691 74.1508 235.657 73.9881 235.59C73.8254 235.523 73.6776 235.425 73.553 235.3C73.4285 235.176 73.3297 235.029 73.2623 234.867C73.1949 234.704 73.1602 234.531 73.1602 234.355V226.419C73.1602 226.244 73.1948 226.069 73.2622 225.907C73.3296 225.745 73.4284 225.597 73.5529 225.473C73.6774 225.349 73.8253 225.25 73.988 225.183C74.1507 225.116 74.325 225.081 74.5011 225.081C74.8564 225.082 75.197 225.223 75.448 225.474C75.6991 225.725 75.8401 226.065 75.8401 226.419V234.353C75.8404 234.529 75.8059 234.702 75.7387 234.865C75.6716 235.027 75.573 235.175 75.4486 235.299C75.3243 235.423 75.1766 235.522 75.014 235.589C74.8514 235.656 74.6771 235.691 74.5011 235.691Z" fill="#F99608"/>
<path d="M65.3371 223.966H65.3351C64.5956 223.966 63.9961 224.564 63.9961 225.302V233.238C63.9961 233.976 64.5956 234.574 65.3351 234.574H65.3371C66.0766 234.574 66.676 233.976 66.676 233.238V225.302C66.676 224.564 66.0766 223.966 65.3371 223.966Z" fill="#F99608"/>
<path d="M57.6984 233.546C57.3432 233.546 57.0027 233.406 56.7516 233.155C56.5004 232.904 56.3594 232.564 56.3594 232.21V224.274C56.3594 223.92 56.5004 223.58 56.7516 223.33C57.0027 223.079 57.3432 222.938 57.6984 222.938C58.0535 222.938 58.394 223.079 58.6451 223.33C58.8963 223.58 59.0373 223.92 59.0373 224.274V232.21C59.0373 232.564 58.8963 232.904 58.6451 233.155C58.394 233.406 58.0535 233.546 57.6984 233.546Z" fill="#F99608"/>
<path d="M50.7706 231.818C50.4155 231.818 50.0749 231.677 49.8238 231.426C49.5727 231.176 49.4316 230.836 49.4316 230.482V222.548C49.4316 222.193 49.5726 221.853 49.8237 221.602C50.0747 221.351 50.4153 221.21 50.7706 221.21C51.1263 221.21 51.4673 221.351 51.7188 221.602C51.9703 221.853 52.1116 222.193 52.1116 222.548V230.482C52.1116 230.657 52.0769 230.831 52.0095 230.993C51.9421 231.156 51.8432 231.303 51.7187 231.427C51.5942 231.551 51.4463 231.65 51.2836 231.717C51.1209 231.784 50.9466 231.818 50.7706 231.818Z" fill="#F99608"/>
<path d="M45.3761 229.805C45.2001 229.805 45.0258 229.77 44.8631 229.703C44.7004 229.636 44.5526 229.538 44.428 229.414C44.3035 229.29 44.2047 229.142 44.1373 228.98C44.0699 228.818 44.0352 228.644 44.0352 228.468V220.533C44.0357 220.178 44.1772 219.838 44.4286 219.588C44.68 219.337 45.0208 219.197 45.3761 219.197C45.7311 219.197 46.0713 219.338 46.3223 219.588C46.5733 219.839 46.7146 220.179 46.7151 220.533V228.468C46.7151 228.823 46.574 229.163 46.3229 229.413C46.0718 229.664 45.7312 229.805 45.3761 229.805Z" fill="#F99608"/>
<path d="M94.4269 236.099C94.2509 236.099 94.0766 236.065 93.914 235.997C93.7514 235.93 93.6037 235.831 93.4794 235.707C93.355 235.583 93.2564 235.435 93.1892 235.273C93.1221 235.111 93.0876 234.937 93.0879 234.761V226.827C93.0876 226.652 93.1221 226.478 93.1893 226.316C93.2565 226.154 93.3551 226.006 93.4795 225.882C93.6039 225.758 93.7516 225.659 93.9142 225.592C94.0767 225.525 94.251 225.491 94.4269 225.491C94.6028 225.491 94.777 225.525 94.9396 225.592C95.1021 225.659 95.2499 225.758 95.3743 225.882C95.4986 226.006 95.5973 226.154 95.6645 226.316C95.7317 226.478 95.7661 226.652 95.7658 226.827V234.761C95.7661 234.937 95.7317 235.111 95.6645 235.273C95.5973 235.435 95.4987 235.583 95.3744 235.707C95.25 235.831 95.1023 235.93 94.9397 235.997C94.7771 236.065 94.6029 236.099 94.4269 236.099Z" fill="#F99608"/>
<path d="M104.353 235.347C104.177 235.347 104.002 235.312 103.84 235.245C103.677 235.177 103.53 235.079 103.405 234.955C103.281 234.83 103.182 234.683 103.115 234.52C103.048 234.358 103.013 234.184 103.014 234.008V226.075C103.013 225.899 103.048 225.725 103.115 225.563C103.182 225.4 103.281 225.253 103.405 225.129C103.53 225.004 103.677 224.906 103.84 224.838C104.002 224.771 104.177 224.737 104.353 224.737C104.529 224.737 104.703 224.771 104.866 224.838C105.028 224.906 105.176 225.004 105.3 225.129C105.425 225.253 105.523 225.4 105.59 225.563C105.657 225.725 105.692 225.899 105.692 226.075V234.008C105.692 234.184 105.657 234.358 105.59 234.52C105.523 234.683 105.425 234.83 105.3 234.955C105.176 235.079 105.028 235.177 104.866 235.245C104.703 235.312 104.529 235.347 104.353 235.347Z" fill="#F99608"/>
<path d="M113.743 223.801H113.741C113.002 223.801 112.402 224.399 112.402 225.137V233.072C112.402 233.81 113.002 234.409 113.741 234.409H113.743C114.483 234.409 115.082 233.81 115.082 233.072V225.137C115.082 224.399 114.483 223.801 113.743 223.801Z" fill="#F99608"/>
<path d="M121.126 233.606C120.771 233.606 120.43 233.464 120.179 233.213C119.928 232.963 119.787 232.622 119.787 232.268V224.334C119.787 223.98 119.928 223.64 120.179 223.389C120.43 223.139 120.771 222.998 121.126 222.998C121.302 222.998 121.476 223.032 121.639 223.099C121.802 223.166 121.95 223.265 122.074 223.389C122.199 223.513 122.298 223.66 122.365 223.822C122.432 223.985 122.467 224.159 122.467 224.334V232.268C122.467 232.623 122.326 232.963 122.074 233.214C121.823 233.465 121.482 233.606 121.126 233.606Z" fill="#F99608"/>
<path d="M127.689 231.597C127.513 231.597 127.338 231.562 127.176 231.495C127.013 231.428 126.865 231.329 126.741 231.205C126.617 231.08 126.518 230.933 126.451 230.771C126.384 230.608 126.349 230.434 126.35 230.259V222.325C126.349 222.149 126.384 221.976 126.451 221.813C126.518 221.651 126.617 221.504 126.741 221.38C126.866 221.255 127.013 221.157 127.176 221.09C127.338 221.023 127.513 220.989 127.689 220.989C127.864 220.989 128.039 221.023 128.201 221.09C128.364 221.157 128.512 221.255 128.636 221.38C128.76 221.504 128.859 221.651 128.926 221.813C128.993 221.976 129.028 222.149 129.028 222.325V230.259C129.028 230.434 128.993 230.608 128.926 230.771C128.859 230.933 128.76 231.08 128.636 231.205C128.512 231.329 128.364 231.428 128.201 231.495C128.039 231.562 127.865 231.597 127.689 231.597Z" fill="#F99608"/>
<path d="M132.919 229.546C132.564 229.546 132.223 229.405 131.972 229.154C131.721 228.904 131.58 228.564 131.58 228.209V220.274C131.58 220.098 131.614 219.924 131.681 219.762C131.749 219.6 131.847 219.452 131.972 219.328C132.096 219.204 132.244 219.106 132.406 219.039C132.569 218.972 132.743 218.937 132.919 218.938C133.095 218.937 133.269 218.972 133.432 219.039C133.594 219.106 133.742 219.204 133.866 219.328C133.991 219.452 134.089 219.6 134.157 219.762C134.224 219.924 134.258 220.098 134.258 220.274V228.211C134.257 228.565 134.116 228.905 133.865 229.155C133.614 229.405 133.274 229.546 132.919 229.546Z" fill="#F99608"/>
<path d="M45.4458 42.5197C47.7447 42.5197 49.6084 40.6599 49.6084 38.3657C49.6084 36.0715 47.7447 34.2117 45.4458 34.2117C43.1469 34.2117 41.2832 36.0715 41.2832 38.3657C41.2832 40.6599 43.1469 42.5197 45.4458 42.5197Z" fill="white"/>
<path d="M79.4153 191.092C81.5302 191.092 83.2446 189.381 83.2446 187.271C83.2446 185.16 81.5302 183.449 79.4153 183.449C77.3004 183.449 75.5859 185.16 75.5859 187.271C75.5859 189.381 77.3004 191.092 79.4153 191.092Z" fill="#F05A24"/>
<path d="M9.86909 74.3698C11.819 73.5526 12.7359 71.3127 11.917 69.3668C11.0982 67.4209 8.85362 66.5059 6.9037 67.3231C4.95377 68.1403 4.03687 70.3802 4.85575 72.3261C5.67462 74.272 7.91917 75.187 9.86909 74.3698Z" fill="#F05A24"/>
<path d="M68.877 117.776C72.0153 116.496 73.5199 112.92 72.2376 109.788C70.9553 106.656 67.3716 105.155 64.2333 106.435C61.0949 107.714 59.5903 111.291 60.8727 114.422C62.155 117.554 65.7387 119.056 68.877 117.776Z" fill="#BB7AFC"/>
<path d="M88.1253 263.673C88.9005 260.396 86.8664 257.112 83.5821 256.338C80.2977 255.564 77.0069 257.594 76.2317 260.872C75.4565 264.149 77.4906 267.434 80.7749 268.207C84.0592 268.981 87.3501 266.951 88.1253 263.673Z" fill="#BB7AFC"/>
<path d="M154.778 245.311C157.04 245.311 158.873 243.482 158.873 241.225C158.873 238.968 157.04 237.139 154.778 237.139C152.517 237.139 150.684 238.968 150.684 241.225C150.684 243.482 152.517 245.311 154.778 245.311Z" fill="white"/>
<path d="M200.885 18.906V26.2661L273.435 65.299V58.1261L200.885 18.906Z" fill="#E5E5E5"/>
<path d="M200.885 29.781V36.7867L273.435 75.8216V69.0011L200.885 29.781Z" fill="#E5E5E5"/>
<path d="M253.839 69.2638L200.885 40.2993V47.305L253.839 76.162V69.2638Z" fill="#E5E5E5"/>
<path d="M258.123 71.6057V78.4959L292.675 97.3243V90.5058L258.123 71.6057Z" fill="#E5E5E5"/>
<path d="M330.645 201.531V206.354L370.762 230.796V225.746L330.645 201.531Z" fill="#E5E5E5"/>
<path d="M330.645 209.835V214.658L370.762 239.1V234.05L330.645 209.835Z" fill="#E5E5E5"/>
<path d="M330.645 252.287V257.108L378.907 285.167V280.115L330.645 252.287Z" fill="#E5E5E5"/>
<path d="M330.645 298.975V303.796L383.489 335.331V330.281L330.645 298.975Z" fill="#E5E5E5"/>
<path d="M341.149 265.643L330.645 259.476V264.297L341.149 270.506V265.643Z" fill="#E5E5E5"/>
<path d="M343.115 266.796V271.667L388.724 298.623V293.572L343.115 266.796Z" fill="#E5E5E5"/>
<path d="M340.234 316.776L357.799 327.278V322.368L340.304 311.965L340.234 316.776Z" fill="#E5E5E5"/>
<path d="M359.062 323.118L358.99 327.991L400.059 352.547V347.497L359.062 323.118Z" fill="#E5E5E5"/>
<path d="M339.034 311.208L330.645 306.219V311.043L339.034 316.059V311.208Z" fill="#E5E5E5"/>
</g>
<defs>
<clipPath id="clip0_4100_2115">
<rect width="415" height="446" fill="white"/>
</clipPath>
</defs>
</svg>
