<svg width="52" height="50" viewBox="0 0 52 50" fill="none" xmlns="http://www.w3.org/2000/svg">
<path d="M50.3097 49.8857H3.0962C2.57021 49.8857 2.14332 49.4588 2.14332 48.9328C2.14332 48.4068 2.57021 47.9799 3.0962 47.9799H49.3375C48.9053 37.2784 41.1967 28.2844 30.6904 26.3997C30.2565 26.3217 29.9199 25.9552 29.8947 25.5154C29.8695 25.0739 30.1374 24.674 30.5602 24.5473C35.4026 23.089 38.7849 18.5345 38.7849 13.4711C38.7849 7.09352 33.5959 1.90576 27.219 1.90576C20.8409 1.90576 15.6519 7.09352 15.6519 13.4711C15.6519 18.6096 18.9574 23.0561 23.8778 24.5368C24.3304 24.6722 24.6148 25.1185 24.5462 25.5864C24.477 26.0549 24.0754 26.4015 23.6027 26.4015L23.2286 26.4455C21.412 26.7709 19.6423 27.3215 17.9588 28.0844L21.6114 39.76C21.8096 40.3903 21.7498 41.0623 21.4431 41.6499C21.1364 42.2363 20.6192 42.6678 19.9871 42.866L8.52145 46.4571C7.88874 46.657 7.2185 46.5955 6.63211 46.2882C6.04573 45.9821 5.61356 45.4643 5.41595 44.8322L0.37654 28.7447C-0.0315849 27.4394 0.697294 26.0467 2.00142 25.638L4.13938 24.9689C4.38098 24.8904 4.64192 24.9162 4.86592 25.0328C5.0905 25.1495 5.2588 25.3518 5.33327 25.5928C5.37959 25.7383 5.47928 25.8579 5.61473 25.9288C5.75019 25.9986 5.90499 26.0145 6.05101 25.9676L10.3287 24.6282C10.4747 24.5831 10.5937 24.4834 10.6653 24.3474C10.7362 24.2119 10.7503 24.0559 10.704 23.9105C10.5474 23.4086 10.8265 22.8738 11.3291 22.716L13.467 22.047C14.0986 21.8511 14.7682 21.9098 15.3564 22.2158C15.9428 22.5231 16.3749 23.0397 16.5731 23.6718C16.7297 24.1732 16.4506 24.708 15.948 24.8646C15.4461 25.0176 14.9107 24.7432 14.7536 24.2406C14.6597 23.9398 14.3361 23.7721 14.0358 23.8659L12.6273 24.3063C12.5974 24.6253 12.506 24.9379 12.3535 25.2293C12.0468 25.8151 11.5296 26.2484 10.8975 26.4466L6.62156 27.7853C5.98943 27.983 5.31861 27.9232 4.73222 27.6165C4.43961 27.464 4.18571 27.2594 3.98047 27.0137L2.5708 27.4558C2.2694 27.5502 2.10052 27.8727 2.19493 28.1753L7.23492 44.2628C7.28066 44.4094 7.38034 44.529 7.5158 44.6C7.65184 44.6704 7.80723 44.685 7.95324 44.6375L19.4189 41.0471C19.5649 41.0002 19.6839 40.9005 19.7555 40.7662C19.8252 40.6307 19.8399 40.4759 19.7942 40.3299L15.8964 27.8727C15.7745 27.4839 15.914 27.0588 16.2442 26.8184C16.2881 26.7861 16.3785 26.7269 16.4265 26.7029C17.7277 26.0584 19.0811 25.5348 20.4703 25.1331C16.3532 22.7758 13.7467 18.3967 13.7467 13.4711C13.7467 6.0433 19.79 0 27.2202 0C34.6473 0 40.6912 6.0433 40.6912 13.4711C40.6912 18.3615 37.9815 22.8445 33.8387 25.2C44.0882 28.3195 51.2632 37.8782 51.2632 48.9328C51.2626 49.4588 50.8363 49.8857 50.3097 49.8857Z" fill="white"/>
</svg>
