<svg xmlns="http://www.w3.org/2000/svg" width="39" height="39" viewBox="0 0 39 39" fill="none">
<path d="M0 22.5833H6.16667V34.9166H0" stroke="white" stroke-width="2"/>
<path d="M6.16602 24.125H12.3327C13.1504 24.125 13.9347 24.4499 14.5129 25.0281C15.0912 25.6063 15.416 26.3906 15.416 27.2083H22.3535C22.9668 27.2083 23.555 27.452 23.9887 27.8856C24.4224 28.3193 24.666 28.9075 24.666 29.5208C24.666 30.1341 24.4224 30.7223 23.9887 31.156C23.555 31.5897 22.9668 31.8333 22.3535 31.8333H13.8743" stroke="white" stroke-width="2"/>
<path d="M24.666 29.3666L29.7766 26.2832C30.4759 25.8667 31.2752 25.6482 32.0891 25.6512C32.6745 25.6506 33.2542 25.7653 33.7951 25.9888C34.3361 26.2124 34.8277 26.5403 35.2418 26.9539L36.9993 28.7499L23.1783 37.0441C22.1322 37.6696 20.9361 37.9999 19.7173 37.9999C18.9114 37.9992 18.1124 37.853 17.3585 37.5682L6.16602 33.3749" stroke="white" stroke-width="2"/>
<path d="M23.1257 22.5833C29.0857 22.5833 33.9173 17.7517 33.9173 11.7917C33.9173 5.83159 29.0857 1 23.1257 1C17.1656 1 12.334 5.83159 12.334 11.7917C12.334 17.7517 17.1656 22.5833 23.1257 22.5833Z" stroke="white" stroke-width="2"/>
<path d="M21.8371 11.7917C21.1796 11.7557 20.561 11.4692 20.1083 10.991C19.6556 10.5129 19.4033 9.87944 19.4033 9.221C19.4033 8.56255 19.6556 7.92913 20.1083 7.45098C20.561 6.97283 21.1796 6.68628 21.8371 6.65027" stroke="white" stroke-width="2"/>
<path d="M24.4121 11.7917C25.0696 11.8278 25.6882 12.1143 26.1409 12.5925C26.5936 13.0706 26.8459 13.704 26.8459 14.3625C26.8459 15.0209 26.5936 15.6543 26.1409 16.1325C25.6882 16.6106 25.0696 16.8972 24.4121 16.9332" stroke="white" stroke-width="2"/>
<path d="M23.125 4.08325V6.65013" stroke="white" stroke-width="2"/>
<path d="M23.125 16.9332V19.5" stroke="white" stroke-width="2"/>
<path d="M21.8379 11.7917H24.4125" stroke="white" stroke-width="2"/>
<path d="M26.9793 7.93756C26.9793 7.93756 25.6921 6.65027 24.4125 6.65027H21.8379" stroke="white" stroke-width="2"/>
<path d="M19.2715 15.6458C19.2715 15.6458 20.5588 16.933 21.8384 16.933H24.4129" stroke="white" stroke-width="2"/>
</svg>