<svg xmlns="http://www.w3.org/2000/svg" width="41" height="41" viewBox="0 0 41 41" fill="none">
<circle cx="20.5" cy="20.5" r="20.5" fill="#F8CD09" fill-opacity="0.17"/>
<path fill-rule="evenodd" clip-rule="evenodd" d="M19.2408 14.926C18.9795 14.1512 18.7458 13.3694 18.5464 12.5739C19.2861 11.7576 22.1419 11.8655 22.9641 12.5614L22.2038 14.3808C22.6135 13.8399 22.751 13.6185 22.9943 13.3169C23.0975 13.3847 23.1937 13.4608 23.2845 13.5438C23.5003 13.7402 23.6942 13.9588 23.7327 14.2618C23.7574 14.4583 23.7024 14.6589 23.5278 14.8637L21.783 16.9086C21.5589 16.8713 21.3389 16.8173 21.1258 16.7412C21.2248 16.5074 21.3444 16.2487 21.4434 16.0148L20.8082 16.7039C20.1468 16.5627 19.6134 16.6471 19.1184 16.9114L17.3475 14.7738C17.243 14.6465 17.1949 14.5192 17.1949 14.3919C17.1962 13.8758 17.9607 13.4289 18.3635 13.2601L19.2408 14.926ZM21.5094 18.7875L21.1643 17.1978C22.6437 17.4745 25.0155 20.5031 25.7814 21.8798C26.1718 22.5827 26.5156 23.3575 26.7961 24.2222C27.3543 26.3169 26.8167 28.2761 24.559 28.7326C23.1442 29.019 20.5057 29.0384 19.018 28.9609C17.419 28.8779 14.9427 28.8807 14.2965 27.2273C13.2529 24.5598 15.1654 21.3817 16.9089 19.4364C17.1385 19.1804 17.375 18.9425 17.6211 18.7211C18.2549 18.1594 18.9396 17.4939 19.755 17.2158L18.9658 18.6934L20.1111 17.166H20.7147L21.5094 18.7875ZM20.7738 20.0922V20.3731C21.0694 20.4049 21.3238 20.4658 21.5355 20.5571C21.7473 20.6498 21.9315 20.7882 22.0896 20.9749C22.2148 21.1175 22.311 21.2641 22.3784 21.4135C22.4457 21.5643 22.4801 21.7013 22.4801 21.8272C22.4801 21.967 22.4292 22.0873 22.3289 22.1883C22.2271 22.2893 22.1048 22.3405 21.9604 22.3405C21.6882 22.3405 21.5122 22.1925 21.4324 21.8978C21.3403 21.5505 21.1217 21.3181 20.7724 21.2046V22.941C21.1148 23.0351 21.3898 23.1222 21.5919 23.1997C21.7954 23.2772 21.9783 23.3893 22.1378 23.5373C22.3096 23.6895 22.4416 23.8735 22.5351 24.0852C22.6272 24.2983 22.674 24.5307 22.674 24.7839C22.674 25.1008 22.6011 25.3982 22.4512 25.6736C22.3028 25.9517 22.0841 26.1758 21.7968 26.3529C21.508 26.5286 21.1671 26.6324 20.7711 26.6642V26.9478C20.7711 27.1111 20.7546 27.2315 20.7229 27.3062C20.6913 27.3809 20.6226 27.4182 20.514 27.4182C20.415 27.4182 20.3448 27.3878 20.305 27.3269C20.2651 27.2661 20.2458 27.1706 20.2458 27.0419V26.6711C19.9227 26.6351 19.6395 26.559 19.3975 26.4414C19.1555 26.3252 18.9534 26.1799 18.7912 26.0056C18.6303 25.8299 18.5093 25.65 18.4337 25.4633C18.3553 25.2751 18.3182 25.0897 18.3182 24.9098C18.3182 24.777 18.369 24.6566 18.4735 24.5501C18.5767 24.4436 18.7059 24.3896 18.8599 24.3896C18.985 24.3896 19.0895 24.4187 19.1761 24.4768C19.2614 24.5349 19.3205 24.6179 19.3549 24.723C19.4291 24.9513 19.4938 25.1257 19.5487 25.2474C19.6051 25.3678 19.689 25.4799 19.8004 25.5795C19.9117 25.6791 20.0602 25.7566 20.2458 25.8091V23.8694C19.8746 23.7656 19.5666 23.6522 19.3178 23.5249C19.0689 23.3976 18.8668 23.2191 18.7128 22.9853C18.5588 22.7515 18.4804 22.4512 18.4804 22.0846C18.4804 21.6059 18.6317 21.2129 18.9341 20.9085C19.2366 20.6028 19.6739 20.4243 20.2458 20.3745V20.1019C20.2458 19.8681 20.3338 19.7519 20.5071 19.7519C20.6858 19.7505 20.7738 19.8639 20.7738 20.0922ZM20.2472 22.7847V21.1866C20.0149 21.2558 19.8334 21.3471 19.7041 21.462C19.5735 21.5754 19.5089 21.7497 19.5089 21.9808C19.5089 22.1994 19.5694 22.3668 19.6917 22.4789C19.8127 22.591 19.9984 22.6933 20.2472 22.7847ZM20.7738 24.023V25.852C21.0529 25.7967 21.2674 25.6846 21.42 25.5144C21.5713 25.3429 21.6483 25.1464 21.6483 24.9209C21.6483 24.6788 21.574 24.492 21.4255 24.3592C21.2784 24.2263 21.0612 24.1143 20.7738 24.023Z" fill="#F4FF74"/>
</svg>