<svg xmlns="http://www.w3.org/2000/svg" width="545" height="357" viewBox="0 0 545 357" fill="none">
<g filter="url(#filter0_b_2902_2082)">
<path fill-rule="evenodd" clip-rule="evenodd" d="M433.35 75.4135C428.849 75.4135 425.143 71.7076 425.143 67.2067C425.143 62.7059 428.849 59 433.35 59C437.85 59 441.292 62.7059 441.292 67.2067C441.29 71.7076 437.85 75.4135 433.35 75.4135ZM86.3016 271.042H42.6212C19.3268 271.042 0 290.366 0 313.927C0 337.488 19.3243 356.548 42.6212 356.548H411.643C449.763 356.548 481 325.576 481 287.455C481 249.335 449.763 218.362 411.643 218.362C395.76 218.362 382.524 205.126 382.524 188.979C382.524 172.833 395.76 159.861 411.643 159.861H446.85C463.792 159.861 477.292 146.097 477.292 129.416C477.292 112.739 463.792 98.9745 446.85 98.9745H402.377C396.024 98.9745 390.728 93.6811 390.728 87.0619C390.728 80.7093 396.022 75.4135 402.377 75.4135H410.319C414.82 75.4135 418.526 71.7076 418.526 67.2067C418.526 62.7059 414.82 59 410.319 59H380.937C380.937 59 369.552 59 358.966 59C348.112 59 346.789 71.7076 319.522 71.7076C277.167 71.7076 298.343 71.7076 255.989 71.7076C250.165 71.7076 245.135 76.4726 245.135 82.561C245.135 88.3852 250.165 93.1503 255.989 93.1503H266.047C274.518 93.1503 281.666 100.034 281.666 108.505C281.666 116.975 274.518 124.123 266.047 124.123H235.339C193.777 124.123 187.952 134.976 180.541 156.419C173.393 178.126 135.539 179.98 135.539 179.98H83.6524C70.9448 179.98 60.358 190.305 60.358 203.01C60.358 215.982 70.9473 226.305 83.6524 226.305H86.2991C98.74 226.305 108.801 236.366 108.801 248.807C108.801 260.983 98.7425 271.042 86.3016 271.042Z" fill="url(#paint0_linear_2902_2082)"/>
</g>
<g filter="url(#filter1_b_2902_2082)">
<path d="M415.269 242.249H389.489V321.816H415.269V242.249Z" fill="url(#paint1_linear_2902_2082)"/>
</g>
<g filter="url(#filter2_b_2902_2082)">
<path d="M346.203 251.479H320.744V321.816H346.203V251.479Z" fill="url(#paint2_linear_2902_2082)"/>
</g>
<g filter="url(#filter3_b_2902_2082)">
<path d="M277.459 274.712H252V321.816H277.459V274.712Z" fill="url(#paint3_linear_2902_2082)"/>
</g>
<path d="M297.51 227.608H274.277V236.521H297.51V227.608Z" fill="#CCD5E9" fill-opacity="0.34"/>
<path d="M366.256 187.191H343.023V196.104H366.256V187.191Z" fill="#CCD5E9" fill-opacity="0.34"/>
<path d="M435 178.916H411.767V187.829H435V178.916Z" fill="#CCD5E9" fill-opacity="0.34"/>
<path d="M428.952 189.738H403.492V321.178H428.952V189.738Z" fill="url(#paint4_linear_2902_2082)"/>
<path d="M360.211 198.013H334.431V321.178H360.211V198.013Z" fill="url(#paint5_linear_2902_2082)"/>
<path d="M291.145 238.43H265.686V321.178H291.145V238.43Z" fill="url(#paint6_linear_2902_2082)"/>
<rect width="164" height="110" rx="10" transform="matrix(-4.37114e-08 1 1 4.37114e-08 68 90)" fill="url(#paint7_linear_2902_2082)"/>
<g filter="url(#filter4_b_2902_2082)">
<path d="M49.1725 46.5H189.831C199.793 46.5 207.503 53.3745 207.5 61.9997V330.798C207.5 339.11 199.782 346.298 189.827 346.298H49.1725C39.2177 346.298 31.5 339.11 31.5 330.798V61.9999C31.5 53.3745 39.2109 46.5 49.1725 46.5Z" fill="url(#paint8_linear_2902_2082)" stroke="url(#paint9_linear_2902_2082)"/>
<g filter="url(#filter5_i_2902_2082)">
<path fill-rule="evenodd" clip-rule="evenodd" d="M174.679 201.594H159.643C158.661 201.594 157.683 200.613 157.683 199.634C157.683 198.652 158.664 198 159.643 198H174.679C175.66 198 176.313 198.652 176.313 199.634C176.313 200.613 175.66 201.594 174.679 201.594ZM110.282 221.206H68.1165C67.1348 221.206 66.4824 220.554 66.4824 219.572C66.4824 218.591 67.1348 217.938 68.1165 217.938H110.282C111.264 217.938 111.916 218.591 111.916 219.572C111.919 220.554 111.264 221.206 110.282 221.206ZM158.009 221.206H117.148C116.166 221.206 115.514 220.554 115.514 219.572C115.514 218.591 116.166 217.938 117.148 217.938H158.009C158.99 217.938 159.969 218.591 159.969 219.572C159.969 220.554 158.987 221.206 158.009 221.206ZM94.2678 211.399H68.1165C67.1348 211.399 66.4824 210.746 66.4824 209.765C66.4824 208.783 67.1348 207.804 68.1165 207.804H94.2678C95.2494 207.804 95.9018 208.786 95.9018 209.765C95.9018 210.746 95.2464 211.399 94.2678 211.399ZM174.679 211.399H101.456C100.804 211.399 99.8224 210.746 99.8224 209.765C99.8224 208.783 100.804 207.804 101.456 207.804H174.676C175.657 207.804 176.31 208.786 176.31 209.765C176.313 210.746 175.66 211.399 174.679 211.399ZM152.451 201.594H68.1165C67.1348 201.594 66.4824 200.613 66.4824 199.634C66.4824 198.652 67.1348 198 68.1165 198H152.451C153.433 198 154.085 198.652 154.085 199.634C154.085 200.613 153.433 201.594 152.451 201.594Z" fill="white" fill-opacity="0.16"/>
</g>
<g filter="url(#filter6_i_2902_2082)">
<path fill-rule="evenodd" clip-rule="evenodd" d="M174.679 238.858H159.643C158.661 238.858 157.683 238.206 157.683 237.224C157.683 236.242 158.664 235.264 159.643 235.264H174.679C175.66 235.264 176.313 236.245 176.313 237.224C176.313 238.206 175.66 238.858 174.679 238.858ZM110.282 258.796H68.1165C67.1348 258.796 66.4824 257.814 66.4824 256.836C66.4824 255.854 67.1348 255.202 68.1165 255.202H110.282C111.264 255.202 111.916 255.854 111.916 256.836C111.919 257.818 111.264 258.796 110.282 258.796ZM158.009 258.796H117.148C116.166 258.796 115.514 257.814 115.514 256.836C115.514 255.854 116.166 255.202 117.148 255.202H158.009C158.99 255.202 159.969 255.854 159.969 256.836C159.969 257.818 158.987 258.796 158.009 258.796ZM94.2678 248.662H68.1165C67.1348 248.662 66.4824 248.01 66.4824 247.028C66.4824 246.047 67.1348 245.394 68.1165 245.394H94.2678C95.2494 245.394 95.9018 246.047 95.9018 247.028C95.9018 248.01 95.2464 248.662 94.2678 248.662ZM174.679 248.662H101.456C100.804 248.662 99.8224 248.01 99.8224 247.028C99.8224 246.047 100.804 245.394 101.456 245.394H174.676C175.657 245.394 176.31 246.047 176.31 247.028C176.313 248.01 175.66 248.662 174.679 248.662ZM152.451 238.858H68.1165C67.1348 238.858 66.4824 238.206 66.4824 237.224C66.4824 236.242 67.1348 235.264 68.1165 235.264H152.451C153.433 235.264 154.085 236.245 154.085 237.224C154.085 238.206 153.433 238.858 152.451 238.858Z" fill="white" fill-opacity="0.16"/>
</g>
<path d="M111.175 161.128C112.188 156.657 113.202 152.187 114.217 147.717C114.304 147.329 114.403 146.941 114.499 146.555C114.892 144.982 115.607 143.341 113.603 142.194H119.307C118.799 144.218 118.329 146.083 117.862 147.942L118.055 148.033L124.836 140.13H104.878L125.441 112L125.73 112.144C125.159 114.663 124.581 117.173 124.022 119.702C123.176 123.534 122.396 127.365 121.471 131.156C121.194 132.299 121.162 133.158 122.306 133.743C122.521 133.853 122.755 133.925 122.979 134.016L122.704 134.351H116.894C117.342 132.392 117.758 130.56 118.175 128.728L117.99 128.62L112.346 136.293H132.66L132.826 136.619L111.502 161.334L111.175 161.128Z" fill="url(#paint10_linear_2902_2082)"/>
</g>
<g filter="url(#filter7_f_2902_2082)">
<path d="M457.5 119C474.897 119 489 104.897 489 87.5C489 70.103 474.897 56 457.5 56C440.103 56 426 70.103 426 87.5C426 104.897 440.103 119 457.5 119Z" fill="url(#paint11_linear_2902_2082)"/>
</g>
<path fill-rule="evenodd" clip-rule="evenodd" d="M384.832 91.6327L416.559 118.013L437.95 94.4836L426.543 84.1443L467.541 76.6592L463.619 117.657L452.211 107.674L417.63 143.323L386.26 114.803C370.93 131.916 354.889 148.672 339.559 165.781L306.761 133.699L258.99 177.904L254 172.914L306.406 119.081L337.776 145.818L384.832 91.6327Z" fill="url(#paint12_linear_2902_2082)"/>
<defs>
<filter id="filter0_b_2902_2082" x="-4" y="55" width="489" height="305.548" filterUnits="userSpaceOnUse" color-interpolation-filters="sRGB">
<feFlood flood-opacity="0" result="BackgroundImageFix"/>
<feGaussianBlur in="BackgroundImageFix" stdDeviation="2"/>
<feComposite in2="SourceAlpha" operator="in" result="effect1_backgroundBlur_2902_2082"/>
<feBlend mode="normal" in="SourceGraphic" in2="effect1_backgroundBlur_2902_2082" result="shape"/>
</filter>
<filter id="filter1_b_2902_2082" x="385.489" y="238.249" width="33.7803" height="87.5667" filterUnits="userSpaceOnUse" color-interpolation-filters="sRGB">
<feFlood flood-opacity="0" result="BackgroundImageFix"/>
<feGaussianBlur in="BackgroundImageFix" stdDeviation="2"/>
<feComposite in2="SourceAlpha" operator="in" result="effect1_backgroundBlur_2902_2082"/>
<feBlend mode="normal" in="SourceGraphic" in2="effect1_backgroundBlur_2902_2082" result="shape"/>
</filter>
<filter id="filter2_b_2902_2082" x="316.744" y="247.479" width="33.459" height="78.3369" filterUnits="userSpaceOnUse" color-interpolation-filters="sRGB">
<feFlood flood-opacity="0" result="BackgroundImageFix"/>
<feGaussianBlur in="BackgroundImageFix" stdDeviation="2"/>
<feComposite in2="SourceAlpha" operator="in" result="effect1_backgroundBlur_2902_2082"/>
<feBlend mode="normal" in="SourceGraphic" in2="effect1_backgroundBlur_2902_2082" result="shape"/>
</filter>
<filter id="filter3_b_2902_2082" x="248" y="270.712" width="33.459" height="55.1038" filterUnits="userSpaceOnUse" color-interpolation-filters="sRGB">
<feFlood flood-opacity="0" result="BackgroundImageFix"/>
<feGaussianBlur in="BackgroundImageFix" stdDeviation="2"/>
<feComposite in2="SourceAlpha" operator="in" result="effect1_backgroundBlur_2902_2082"/>
<feBlend mode="normal" in="SourceGraphic" in2="effect1_backgroundBlur_2902_2082" result="shape"/>
</filter>
<filter id="filter4_b_2902_2082" x="-15.8" y="-0.799999" width="270.6" height="394.398" filterUnits="userSpaceOnUse" color-interpolation-filters="sRGB">
<feFlood flood-opacity="0" result="BackgroundImageFix"/>
<feGaussianBlur in="BackgroundImageFix" stdDeviation="23.4"/>
<feComposite in2="SourceAlpha" operator="in" result="effect1_backgroundBlur_2902_2082"/>
<feBlend mode="normal" in="SourceGraphic" in2="effect1_backgroundBlur_2902_2082" result="shape"/>
</filter>
<filter id="filter5_i_2902_2082" x="66.4824" y="198" width="109.83" height="34.2063" filterUnits="userSpaceOnUse" color-interpolation-filters="sRGB">
<feFlood flood-opacity="0" result="BackgroundImageFix"/>
<feBlend mode="normal" in="SourceGraphic" in2="BackgroundImageFix" result="shape"/>
<feColorMatrix in="SourceAlpha" type="matrix" values="0 0 0 0 0 0 0 0 0 0 0 0 0 0 0 0 0 0 127 0" result="hardAlpha"/>
<feOffset dy="11"/>
<feGaussianBlur stdDeviation="5.5"/>
<feComposite in2="hardAlpha" operator="arithmetic" k2="-1" k3="1"/>
<feColorMatrix type="matrix" values="0 0 0 0 1 0 0 0 0 1 0 0 0 0 1 0 0 0 0.4 0"/>
<feBlend mode="normal" in2="shape" result="effect1_innerShadow_2902_2082"/>
</filter>
<filter id="filter6_i_2902_2082" x="66.4824" y="235.264" width="109.83" height="34.5325" filterUnits="userSpaceOnUse" color-interpolation-filters="sRGB">
<feFlood flood-opacity="0" result="BackgroundImageFix"/>
<feBlend mode="normal" in="SourceGraphic" in2="BackgroundImageFix" result="shape"/>
<feColorMatrix in="SourceAlpha" type="matrix" values="0 0 0 0 0 0 0 0 0 0 0 0 0 0 0 0 0 0 127 0" result="hardAlpha"/>
<feOffset dy="11"/>
<feGaussianBlur stdDeviation="5.5"/>
<feComposite in2="hardAlpha" operator="arithmetic" k2="-1" k3="1"/>
<feColorMatrix type="matrix" values="0 0 0 0 1 0 0 0 0 1 0 0 0 0 1 0 0 0 0.4 0"/>
<feBlend mode="normal" in2="shape" result="effect1_innerShadow_2902_2082"/>
</filter>
<filter id="filter7_f_2902_2082" x="370.2" y="0.200001" width="174.6" height="174.6" filterUnits="userSpaceOnUse" color-interpolation-filters="sRGB">
<feFlood flood-opacity="0" result="BackgroundImageFix"/>
<feBlend mode="normal" in="SourceGraphic" in2="BackgroundImageFix" result="shape"/>
<feGaussianBlur stdDeviation="27.9" result="effect1_foregroundBlur_2902_2082"/>
</filter>
<linearGradient id="paint0_linear_2902_2082" x1="240.5" y1="59" x2="240.5" y2="356.548" gradientUnits="userSpaceOnUse">
<stop stop-color="#343A42"/>
<stop offset="1" stop-color="#070817"/>
</linearGradient>
<linearGradient id="paint1_linear_2902_2082" x1="392" y1="336.5" x2="421.5" y2="218" gradientUnits="userSpaceOnUse">
<stop stop-color="#CFCFCF" stop-opacity="0.01"/>
<stop offset="1" stop-color="#999999" stop-opacity="0.58"/>
</linearGradient>
<linearGradient id="paint2_linear_2902_2082" x1="318.5" y1="335" x2="352.5" y2="229" gradientUnits="userSpaceOnUse">
<stop stop-color="#CFCFCF" stop-opacity="0.01"/>
<stop offset="1" stop-color="#999999" stop-opacity="0.58"/>
</linearGradient>
<linearGradient id="paint3_linear_2902_2082" x1="232.5" y1="330.5" x2="273.5" y2="270" gradientUnits="userSpaceOnUse">
<stop stop-color="#CFCFCF" stop-opacity="0.01"/>
<stop offset="1" stop-color="#999999" stop-opacity="0.58"/>
</linearGradient>
<linearGradient id="paint4_linear_2902_2082" x1="416.222" y1="189.738" x2="416.222" y2="321.178" gradientUnits="userSpaceOnUse">
<stop stop-color="#C172FF"/>
<stop offset="0.531" stop-color="#9135F5"/>
</linearGradient>
<linearGradient id="paint5_linear_2902_2082" x1="347.321" y1="198.013" x2="347.321" y2="321.178" gradientUnits="userSpaceOnUse">
<stop stop-color="#C172FF"/>
<stop offset="0.531" stop-color="#9135F5"/>
</linearGradient>
<linearGradient id="paint6_linear_2902_2082" x1="278.415" y1="238.43" x2="278.415" y2="321.178" gradientUnits="userSpaceOnUse">
<stop stop-color="#C172FF"/>
<stop offset="0.531" stop-color="#9135F5"/>
</linearGradient>
<linearGradient id="paint7_linear_2902_2082" x1="0" y1="0" x2="179.865" y2="68.0915" gradientUnits="userSpaceOnUse">
<stop stop-color="#4C0098"/>
<stop offset="1" stop-color="#711FA3"/>
</linearGradient>
<linearGradient id="paint8_linear_2902_2082" x1="112.354" y1="46.5085" x2="110.151" y2="349.554" gradientUnits="userSpaceOnUse">
<stop stop-color="#C3C9D9" stop-opacity="0"/>
<stop offset="1" stop-color="#373737" stop-opacity="0.44"/>
</linearGradient>
<linearGradient id="paint9_linear_2902_2082" x1="119.5" y1="46" x2="119.5" y2="346.798" gradientUnits="userSpaceOnUse">
<stop stop-color="white"/>
<stop offset="1" stop-color="white" stop-opacity="0"/>
</linearGradient>
<linearGradient id="paint10_linear_2902_2082" x1="122.117" y1="117.944" x2="112.606" y2="151.233" gradientUnits="userSpaceOnUse">
<stop stop-color="#C398FF"/>
<stop offset="1" stop-color="#8700FF"/>
</linearGradient>
<linearGradient id="paint11_linear_2902_2082" x1="426" y1="87.5" x2="489" y2="87.5" gradientUnits="userSpaceOnUse">
<stop stop-color="#7A00FF"/>
<stop offset="1" stop-color="#7D53AA"/>
</linearGradient>
<linearGradient id="paint12_linear_2902_2082" x1="261" y1="134.5" x2="468" y2="77" gradientUnits="userSpaceOnUse">
<stop stop-color="#9135F5"/>
<stop offset="1" stop-color="#B672FF"/>
</linearGradient>
</defs>
</svg>