<svg xmlns="http://www.w3.org/2000/svg" width="37" height="37" viewBox="0 0 37 37" fill="none">
<circle cx="18.5" cy="18.5" r="18.5" fill="#40E8FF" fill-opacity="0.17"/>
<path fill-rule="evenodd" clip-rule="evenodd" d="M22.8264 19.6991L23.4721 19.3359L24.2481 19.7723C24.8929 20.135 24.8929 21.0825 24.2481 21.4452L19.3158 24.2192C19.0356 24.3768 18.6961 24.3768 18.416 24.2192L13.4837 21.4452C12.8388 21.0825 12.8388 20.135 13.4837 19.7723L14.2596 19.3359L14.9053 19.6991L13.7836 20.3299C13.5686 20.4508 13.5686 20.7667 13.7836 20.8875L18.7159 23.6616C18.8093 23.7141 18.9225 23.7141 19.0158 23.6616L23.9481 20.8875C24.1631 20.7667 24.1631 20.4508 23.9481 20.3299L22.8264 19.6991Z" fill="#40E8FF"/>
<path fill-rule="evenodd" clip-rule="evenodd" d="M14.2596 16.5572L13.4837 16.9936C12.8388 17.3563 12.8388 18.3039 13.4837 18.6665L18.416 21.4405C18.6961 21.5981 19.0356 21.5981 19.3158 21.4405L24.2481 18.6665C24.8929 18.3038 24.8929 17.3563 24.2481 16.9936L23.4722 16.5572L22.8265 16.9204L23.9481 17.5513C24.1631 17.6721 24.1631 17.988 23.9481 18.1089L19.0158 20.8829C18.9225 20.9354 18.8093 20.9354 18.7159 20.8829L13.7836 18.1089C13.5686 17.988 13.5686 17.6721 13.7836 17.5513L14.9053 16.9204L14.2596 16.5572Z" fill="#40E8FF"/>
<path fill-rule="evenodd" clip-rule="evenodd" d="M19.0158 11.7051C18.9224 11.6503 18.8093 11.6503 18.7159 11.7051L13.7836 14.5992C13.5686 14.7253 13.5686 15.0548 13.7836 15.181L18.7159 18.075C18.8093 18.1299 18.9224 18.1299 19.0158 18.075L23.9481 15.181C24.1631 15.0548 24.1631 14.7253 23.9481 14.5992L19.0158 11.7051ZM18.4159 11.1233C18.6961 10.9589 19.0356 10.9589 19.3157 11.1233L24.248 14.0174C24.8929 14.3958 24.8929 15.3843 24.248 15.7627L19.3157 18.6569C19.0356 18.8212 18.6961 18.8212 18.4159 18.6569L13.4837 15.7627C12.8388 15.3843 12.8388 14.3958 13.4837 14.0174L18.4159 11.1233Z" fill="#40E8FF"/>
</svg>