<svg xmlns="http://www.w3.org/2000/svg" width="37" height="37" viewBox="0 0 37 37" fill="none">
<circle cx="18.5" cy="18.5" r="18.5" fill="#FF74E0" fill-opacity="0.17"/>
<path fill-rule="evenodd" clip-rule="evenodd" d="M17.2408 12.926C16.9795 12.1512 16.7458 11.3694 16.5464 10.5739C17.2861 9.75757 20.1419 9.86549 20.9641 10.5614L20.2038 12.3808C20.6135 11.8399 20.751 11.6185 20.9943 11.3169C21.0975 11.3847 21.1937 11.4608 21.2845 11.5438C21.5003 11.7402 21.6942 11.9588 21.7327 12.2618C21.7574 12.4583 21.7024 12.6589 21.5278 12.8637L19.783 14.9086C19.5589 14.8713 19.3389 14.8173 19.1258 14.7412C19.2248 14.5074 19.3444 14.2487 19.4434 14.0148L18.8082 14.7039C18.1468 14.5627 17.6134 14.6471 17.1184 14.9114L15.3475 12.7738C15.243 12.6465 15.1949 12.5192 15.1949 12.3919C15.1962 11.8758 15.9607 11.4289 16.3635 11.2601L17.2408 12.926ZM19.5094 16.7875L19.1643 15.1978C20.6437 15.4745 23.0155 18.5031 23.7814 19.8798C24.1718 20.5827 24.5156 21.3575 24.7961 22.2222C25.3543 24.3169 24.8167 26.2761 22.559 26.7326C21.1442 27.019 18.5057 27.0384 17.018 26.9609C15.419 26.8779 12.9427 26.8807 12.2965 25.2273C11.2529 22.5598 13.1654 19.3817 14.9089 17.4364C15.1385 17.1804 15.375 16.9425 15.6211 16.7211C16.2549 16.1594 16.9396 15.4939 17.755 15.2158L16.9658 16.6934L18.1111 15.166H18.7147L19.5094 16.7875ZM18.7738 18.0922V18.3731C19.0694 18.4049 19.3238 18.4658 19.5355 18.5571C19.7473 18.6498 19.9315 18.7882 20.0896 18.9749C20.2148 19.1175 20.311 19.2641 20.3784 19.4135C20.4457 19.5643 20.4801 19.7013 20.4801 19.8272C20.4801 19.967 20.4292 20.0873 20.3289 20.1883C20.2271 20.2893 20.1048 20.3405 19.9604 20.3405C19.6882 20.3405 19.5122 20.1925 19.4324 19.8978C19.3403 19.5505 19.1217 19.3181 18.7724 19.2046V20.941C19.1148 21.0351 19.3898 21.1222 19.5919 21.1997C19.7954 21.2772 19.9783 21.3893 20.1378 21.5373C20.3096 21.6895 20.4416 21.8735 20.5351 22.0852C20.6272 22.2983 20.674 22.5307 20.674 22.7839C20.674 23.1008 20.6011 23.3982 20.4512 23.6736C20.3028 23.9517 20.0841 24.1758 19.7968 24.3529C19.508 24.5286 19.1671 24.6324 18.7711 24.6642V24.9478C18.7711 25.1111 18.7546 25.2315 18.7229 25.3062C18.6913 25.3809 18.6226 25.4182 18.514 25.4182C18.415 25.4182 18.3448 25.3878 18.305 25.3269C18.2651 25.2661 18.2458 25.1706 18.2458 25.0419V24.6711C17.9227 24.6351 17.6395 24.559 17.3975 24.4414C17.1555 24.3252 16.9534 24.1799 16.7912 24.0056C16.6303 23.8299 16.5093 23.65 16.4337 23.4633C16.3553 23.2751 16.3182 23.0897 16.3182 22.9098C16.3182 22.777 16.369 22.6566 16.4735 22.5501C16.5767 22.4436 16.7059 22.3896 16.8599 22.3896C16.985 22.3896 17.0895 22.4187 17.1761 22.4768C17.2614 22.5349 17.3205 22.6179 17.3549 22.723C17.4291 22.9513 17.4938 23.1257 17.5487 23.2474C17.6051 23.3678 17.689 23.4799 17.8004 23.5795C17.9117 23.6791 18.0602 23.7566 18.2458 23.8091V21.8694C17.8746 21.7656 17.5666 21.6522 17.3178 21.5249C17.0689 21.3976 16.8668 21.2191 16.7128 20.9853C16.5588 20.7515 16.4804 20.4512 16.4804 20.0846C16.4804 19.6059 16.6317 19.2129 16.9341 18.9085C17.2366 18.6028 17.6739 18.4243 18.2458 18.3745V18.1019C18.2458 17.8681 18.3338 17.7519 18.5071 17.7519C18.6858 17.7505 18.7738 17.8639 18.7738 18.0922ZM18.2472 20.7847V19.1866C18.0149 19.2558 17.8334 19.3471 17.7041 19.462C17.5735 19.5754 17.5089 19.7497 17.5089 19.9808C17.5089 20.1994 17.5694 20.3668 17.6917 20.4789C17.8127 20.591 17.9984 20.6933 18.2472 20.7847ZM18.7738 22.023V23.852C19.0529 23.7967 19.2674 23.6846 19.42 23.5144C19.5713 23.3429 19.6483 23.1464 19.6483 22.9209C19.6483 22.6788 19.574 22.492 19.4255 22.3592C19.2784 22.2263 19.0612 22.1143 18.7738 22.023Z" fill="#FF74E0"/>
</svg>