<svg width="469" height="484" viewBox="0 0 469 484" fill="none" xmlns="http://www.w3.org/2000/svg">
<line x1="283.351" y1="269.644" x2="350.351" y2="335.644" stroke="#363636"/>
<line x1="282.646" y1="194.646" x2="352.646" y2="124.646" stroke="#363636"/>
<line x1="119.638" y1="357.655" x2="198.638" y2="274.655" stroke="#363636"/>
<line x1="100.275" y1="132.583" x2="194.275" y2="194.583" stroke="#363636"/>
<rect x="181.5" y="175.5" width="113" height="113" rx="56.5" fill="#313036" fill-opacity="0.3"/>
<rect x="181.5" y="175.5" width="113" height="113" rx="56.5" fill="url(#paint0_linear_4217_865)"/>
<rect x="181.5" y="175.5" width="113" height="113" rx="56.5" stroke="url(#paint1_linear_4217_865)" stroke-width="3"/>
<path d="M226.57 269.458C228.106 262.681 229.644 255.904 231.182 249.126C231.314 248.538 231.463 247.95 231.61 247.366C232.205 244.98 233.289 242.493 230.251 240.754H238.899C238.128 243.822 237.416 246.65 236.708 249.468L237 249.606L247.28 237.625H217.023L248.197 194.979L248.635 195.197C247.77 199.016 246.893 202.821 246.046 206.655C244.764 212.464 243.581 218.273 242.178 224.021C241.758 225.752 241.711 227.056 243.446 227.942C243.771 228.109 244.125 228.218 244.465 228.356L244.048 228.864H235.24C235.919 225.894 236.551 223.116 237.182 220.339L236.901 220.176L228.345 231.808H259.142L259.394 232.302L227.066 269.77L226.57 269.458Z" fill="url(#paint2_linear_4217_865)"/>
<path d="M287.5 52.7561C287.5 81.6278 264.655 105.012 236.5 105.012C208.345 105.012 185.5 81.6278 185.5 52.7561C185.5 23.8844 208.345 0.5 236.5 0.5C264.655 0.5 287.5 23.8844 287.5 52.7561Z" stroke="#363636"/>
<line x1="185" y1="52.2561" x2="288" y2="52.2561" stroke="#363636"/>
<line y1="-0.5" x2="103" y2="-0.5" transform="matrix(0 -1 -1 0 236.5 104.256)" stroke="#363636"/>
<path d="M236.028 76.0569C248.747 76.0569 259.057 65.7467 259.057 53.0285C259.057 40.3102 248.747 30 236.028 30C223.31 30 213 40.3102 213 53.0285C213 65.7467 223.31 76.0569 236.028 76.0569Z" fill="#F3BA2F"/>
<path d="M231.214 51.0494L236.031 46.2324L240.848 51.0539L243.65 48.2519L236.031 40.6282L228.412 48.2474L231.214 51.0494Z" fill="white"/>
<path d="M223.629 53.0262L226.431 50.2243L229.233 53.0261L226.431 55.8281L223.629 53.0262Z" fill="white"/>
<path d="M231.211 55.0074L236.028 59.8245L240.845 55.0029L243.652 57.805H243.647L236.028 65.4287L228.409 57.8095L228.404 57.805L231.211 55.0074Z" fill="white"/>
<path d="M242.822 53.0309L245.624 50.2289L248.426 53.0308L245.624 55.8328L242.822 53.0309Z" fill="white"/>
<path d="M238.871 53.0283L236.029 50.1813L233.928 52.2862L233.685 52.5246L233.186 53.0238L233.182 53.0283L233.186 53.0328L236.029 55.8754L238.871 53.0283Z" fill="white"/>
<line x1="237.5" y1="106" x2="237.5" y2="174" stroke="#363636"/>
<line x1="237.5" y1="290" x2="237.5" y2="375" stroke="#363636"/>
<path d="M468.5 231.756C468.5 260.628 445.655 284.012 417.5 284.012C389.345 284.012 366.5 260.628 366.5 231.756C366.5 202.884 389.345 179.5 417.5 179.5C445.655 179.5 468.5 202.884 468.5 231.756Z" stroke="#363636"/>
<line x1="366" y1="231.256" x2="469" y2="231.256" stroke="#363636"/>
<line y1="-0.5" x2="103" y2="-0.5" transform="matrix(0 -1 -1 0 417.5 283.256)" stroke="#363636"/>
<path d="M417.825 254.96C430.544 254.96 440.854 244.65 440.854 231.932C440.854 219.213 430.544 208.903 417.825 208.903C405.107 208.903 394.797 219.213 394.797 231.932C394.797 244.65 405.107 254.96 417.825 254.96Z" fill="#635BFF"/>
<path d="M429.924 231.724C429.924 229.856 429.09 228.382 427.497 228.382C425.904 228.382 424.929 229.856 424.929 231.709C424.929 233.905 426.072 235.015 427.711 235.015C428.511 235.015 429.116 234.82 429.574 234.54V233.079C429.116 233.327 428.592 233.481 427.927 233.481C427.275 233.481 426.696 233.233 426.623 232.372H429.91C429.911 232.278 429.924 231.899 429.924 231.724ZM426.604 231.031C426.604 230.207 427.068 229.862 427.491 229.862C427.901 229.862 428.338 230.203 428.338 231.031H426.604ZM422.335 228.382C421.844 228.38 421.372 228.584 421.017 228.952L420.93 228.499H419.449V237.006L421.129 236.619L421.136 234.554C421.378 234.744 421.734 235.014 422.326 235.014C423.529 235.014 424.625 233.964 424.625 231.651C424.62 229.535 423.511 228.382 422.335 228.382ZM421.931 233.409C421.534 233.409 421.299 233.256 421.137 233.068L421.131 230.361C421.306 230.15 421.547 230.004 421.931 230.004C422.542 230.004 422.966 230.748 422.966 231.704C422.966 232.679 422.549 233.409 421.931 233.409H421.931ZM417.138 227.952L418.825 227.558V226.077L417.138 226.464V227.952ZM417.138 228.507H418.825V234.89H417.138V228.507ZM415.33 229.046L415.221 228.507H413.77V234.89H415.45V230.564C415.847 230.002 416.519 230.104 416.727 230.184V228.507C416.513 228.419 415.726 228.258 415.33 229.046ZM411.968 226.923L410.33 227.305L410.323 233.148C410.323 234.228 411.07 235.023 412.064 235.023C412.615 235.023 413.019 234.914 413.241 234.783V233.3C413.026 233.395 411.964 233.73 411.964 232.651V230.061H413.241V228.507H411.962L411.968 226.923ZM407.424 230.36C407.424 230.075 407.639 229.966 407.996 229.966C408.577 229.979 409.148 230.139 409.662 230.433V228.717C409.132 228.49 408.567 228.377 407.997 228.382C406.632 228.382 405.725 229.156 405.725 230.447C405.725 232.461 408.279 232.14 408.279 233.008C408.279 233.343 408.01 233.453 407.634 233.453C407.076 233.453 406.363 233.205 405.799 232.868V234.605C406.378 234.877 407.002 235.019 407.634 235.021C409.032 235.021 409.993 234.269 409.993 232.963C409.986 230.79 407.424 231.177 407.424 230.36Z" fill="white"/>
<path d="M417.5 96.9268C417.5 118.161 400.699 135.354 380 135.354C359.301 135.354 342.5 118.161 342.5 96.9268C342.5 75.6929 359.301 58.5 380 58.5C400.699 58.5 417.5 75.6929 417.5 96.9268Z" stroke="#363636"/>
<line x1="342" y1="96.4268" x2="418" y2="96.4268" stroke="#363636"/>
<line y1="-0.5" x2="76" y2="-0.5" transform="matrix(0 -1 -1 0 380 134.927)" stroke="#363636"/>
<path d="M379.652 114.12C389.036 114.12 396.644 106.512 396.644 97.1277C396.644 87.7434 389.036 80.1359 379.652 80.1359C370.268 80.1359 362.66 87.7434 362.66 97.1277C362.66 106.512 370.268 114.12 379.652 114.12Z" fill="white"/>
<path d="M376.64 93.2722L371.928 97.8034H379.948L380.809 95.8097H376.731L379.268 93.2722L377.773 90.7348H384.706L378.317 105.778H380.718L387.923 88.7864H374.012L376.64 93.2722Z" fill="#00B9FF"/>
<path d="M407.5 363.927C407.5 385.161 390.699 402.354 370 402.354C349.301 402.354 332.5 385.161 332.5 363.927C332.5 342.693 349.301 325.5 370 325.5C390.699 325.5 407.5 342.693 407.5 363.927Z" stroke="#363636"/>
<line x1="332" y1="363.427" x2="408" y2="363.427" stroke="#363636"/>
<line y1="-0.5" x2="76" y2="-0.5" transform="matrix(0 -1 -1 0 370 401.927)" stroke="#363636"/>
<path d="M369.5 380C378.613 380 386 372.613 386 363.5C386 354.387 378.613 347 369.5 347C360.387 347 353 354.387 353 363.5C353 372.613 360.387 380 369.5 380Z" fill="white"/>
<path d="M366.049 362.082L369.5 358.631L372.952 362.085L374.959 360.078L369.5 354.615L364.041 360.074L366.049 362.082Z" fill="#F3BA2F"/>
<path d="M360.615 363.498L362.623 361.491L364.63 363.498L362.623 365.506L360.615 363.498Z" fill="#F3BA2F"/>
<path d="M366.048 364.918L369.5 368.369L372.951 364.915L374.962 366.922H374.959L369.5 372.385L364.04 366.926L364.037 366.922L366.048 364.918Z" fill="#F3BA2F"/>
<path d="M374.367 363.502L376.375 361.494L378.382 363.502L376.375 365.509L374.367 363.502Z" fill="#F3BA2F"/>
<path d="M371.536 363.5L369.499 361.46L367.994 362.968L367.82 363.139L367.462 363.497L367.459 363.5L367.462 363.503L369.499 365.54L371.536 363.5Z" fill="#F3BA2F"/>
<path d="M102.5 231.756C102.5 260.628 79.6552 284.012 51.5 284.012C23.3448 284.012 0.5 260.628 0.5 231.756C0.5 202.884 23.3448 179.5 51.5 179.5C79.6552 179.5 102.5 202.884 102.5 231.756Z" stroke="#363636"/>
<line y1="231.256" x2="103" y2="231.256" stroke="#363636"/>
<line y1="-0.5" x2="103" y2="-0.5" transform="matrix(0 -1 -1 0 51.5 283.256)" stroke="#363636"/>
<rect x="28.4473" y="208.429" width="46.0569" height="46.0569" rx="23.0285" fill="white"/>
<path d="M45.2414 227.963H40.8707C40.6767 227.963 40.5195 228.12 40.5195 228.314V242.355C40.5195 242.549 40.6767 242.706 40.8707 242.706H45.2414C45.4354 242.706 45.5926 242.549 45.5926 242.355V228.314C45.5926 228.12 45.4354 227.963 45.2414 227.963Z" fill="black"/>
<path d="M43.056 220.982C41.4657 220.982 40.1719 222.275 40.1719 223.863C40.1719 225.453 41.4657 226.746 43.056 226.746C44.6451 226.746 45.9378 225.453 45.9378 223.863C45.9379 222.275 44.6451 220.982 43.056 220.982Z" fill="black"/>
<path d="M56.3552 227.614C54.5998 227.614 53.3021 228.368 52.515 229.226V228.314C52.515 228.12 52.3578 227.963 52.1639 227.963H47.9781C47.7841 227.963 47.627 228.12 47.627 228.314V242.355C47.627 242.549 47.7841 242.706 47.9781 242.706H52.3393C52.5333 242.706 52.6905 242.549 52.6905 242.355V235.408C52.6905 233.067 53.3263 232.155 54.9583 232.155C56.7355 232.155 56.8768 233.617 56.8768 235.528V242.355C56.8768 242.549 57.034 242.706 57.2279 242.706H61.5907C61.7847 242.706 61.9419 242.549 61.9419 242.355V234.653C61.9419 231.172 61.2781 227.614 56.3552 227.614Z" fill="black"/>
<path d="M287.5 430.756C287.5 459.628 264.655 483.012 236.5 483.012C208.345 483.012 185.5 459.628 185.5 430.756C185.5 401.884 208.345 378.5 236.5 378.5C264.655 378.5 287.5 401.884 287.5 430.756Z" stroke="#363636"/>
<line x1="185" y1="430.256" x2="288" y2="430.256" stroke="#363636"/>
<line y1="-0.5" x2="103" y2="-0.5" transform="matrix(0 -1 -1 0 236.5 482.256)" stroke="#363636"/>
<g clip-path="url(#clip0_4217_865)">
<path d="M236.5 454C248.926 454 259 443.703 259 431C259 418.297 248.926 408 236.5 408C224.074 408 214 418.297 214 431C214 443.703 224.074 454 236.5 454Z" fill="white"/>
<path d="M239.978 426.898H233.023C232.953 426.897 232.882 426.91 232.817 426.936C232.751 426.963 232.691 427.003 232.641 427.055C232.591 427.106 232.552 427.167 232.526 427.234C232.499 427.301 232.487 427.373 232.488 427.445V434.555C232.487 434.627 232.499 434.699 232.526 434.766C232.552 434.833 232.591 434.894 232.641 434.945C232.691 434.996 232.751 435.037 232.817 435.064C232.882 435.09 232.953 435.103 233.023 435.102H239.978C240.049 435.103 240.119 435.09 240.185 435.064C240.251 435.037 240.31 434.996 240.36 434.945C240.411 434.894 240.45 434.833 240.476 434.766C240.502 434.699 240.515 434.627 240.513 434.555V427.445C240.515 427.373 240.502 427.301 240.476 427.234C240.45 427.167 240.411 427.106 240.36 427.055C240.31 427.003 240.251 426.963 240.185 426.936C240.119 426.91 240.049 426.897 239.978 426.898Z" fill="black"/>
<path d="M231.953 418.695H224.998C224.927 418.693 224.857 418.706 224.791 418.733C224.726 418.76 224.666 418.8 224.616 418.851C224.566 418.903 224.527 418.963 224.5 419.031C224.474 419.098 224.461 419.17 224.463 419.242V426.351C224.461 426.424 224.474 426.496 224.5 426.563C224.527 426.63 224.566 426.691 224.616 426.742C224.666 426.793 224.726 426.833 224.791 426.86C224.857 426.887 224.927 426.9 224.998 426.898H231.953C232.024 426.9 232.094 426.887 232.16 426.86C232.225 426.833 232.285 426.793 232.335 426.742C232.385 426.691 232.424 426.63 232.451 426.563C232.477 426.496 232.49 426.424 232.488 426.351V419.242C232.49 419.17 232.477 419.098 232.451 419.031C232.424 418.963 232.385 418.903 232.335 418.851C232.285 418.8 232.225 418.76 232.16 418.733C232.094 418.706 232.024 418.693 231.953 418.695Z" fill="black"/>
<path d="M248.002 418.695H241.047C240.976 418.693 240.906 418.706 240.84 418.733C240.774 418.76 240.715 418.8 240.665 418.851C240.615 418.903 240.575 418.963 240.549 419.031C240.523 419.098 240.51 419.17 240.512 419.242V426.351C240.51 426.424 240.523 426.496 240.549 426.563C240.575 426.63 240.615 426.691 240.665 426.742C240.715 426.793 240.774 426.833 240.84 426.86C240.906 426.887 240.976 426.9 241.047 426.898H248.002C248.073 426.9 248.143 426.887 248.209 426.86C248.274 426.833 248.334 426.793 248.384 426.742C248.434 426.691 248.473 426.63 248.5 426.563C248.526 426.496 248.539 426.424 248.537 426.351V419.242C248.539 419.17 248.526 419.098 248.5 419.031C248.473 418.963 248.434 418.903 248.384 418.851C248.334 418.8 248.274 418.76 248.209 418.733C248.143 418.706 248.073 418.693 248.002 418.695Z" fill="black"/>
<path d="M231.953 435.102H224.998C224.927 435.1 224.857 435.113 224.791 435.14C224.726 435.167 224.666 435.207 224.616 435.258C224.566 435.309 224.527 435.37 224.5 435.437C224.474 435.504 224.461 435.576 224.463 435.648V442.758C224.461 442.83 224.474 442.902 224.5 442.969C224.527 443.036 224.566 443.097 224.616 443.149C224.666 443.2 224.726 443.24 224.791 443.267C224.857 443.294 224.927 443.307 224.998 443.305H231.953C232.024 443.307 232.094 443.294 232.16 443.267C232.225 443.24 232.285 443.2 232.335 443.149C232.385 443.097 232.424 443.036 232.451 442.969C232.477 442.902 232.49 442.83 232.488 442.758V435.648C232.49 435.576 232.477 435.504 232.451 435.437C232.424 435.37 232.385 435.309 232.335 435.258C232.285 435.207 232.225 435.167 232.16 435.14C232.094 435.113 232.024 435.1 231.953 435.102Z" fill="black"/>
<path d="M248.002 435.102H241.047C240.976 435.1 240.906 435.113 240.84 435.14C240.774 435.167 240.715 435.207 240.665 435.258C240.615 435.309 240.575 435.37 240.549 435.437C240.523 435.504 240.51 435.576 240.512 435.648V442.758C240.51 442.83 240.523 442.902 240.549 442.969C240.575 443.036 240.615 443.097 240.665 443.149C240.715 443.2 240.774 443.24 240.84 443.267C240.906 443.294 240.976 443.307 241.047 443.305H248.002C248.073 443.307 248.143 443.294 248.209 443.267C248.274 443.24 248.334 443.2 248.384 443.149C248.434 443.097 248.473 443.036 248.5 442.969C248.526 442.902 248.539 442.83 248.537 442.758V435.648C248.539 435.576 248.526 435.504 248.5 435.437C248.473 435.37 248.434 435.309 248.384 435.258C248.334 435.207 248.274 435.167 248.209 435.14C248.143 435.113 248.073 435.1 248.002 435.102Z" fill="black"/>
<path d="M239.978 426.898H233.023C232.953 426.897 232.882 426.91 232.817 426.936C232.751 426.963 232.691 427.003 232.641 427.055C232.591 427.106 232.552 427.167 232.526 427.234C232.499 427.301 232.487 427.373 232.488 427.445V434.555C232.487 434.627 232.499 434.699 232.526 434.766C232.552 434.833 232.591 434.894 232.641 434.945C232.691 434.996 232.751 435.037 232.817 435.064C232.882 435.09 232.953 435.103 233.023 435.102H239.978C240.049 435.103 240.119 435.09 240.185 435.064C240.251 435.037 240.31 434.996 240.36 434.945C240.411 434.894 240.45 434.833 240.476 434.766C240.502 434.699 240.515 434.627 240.513 434.555V427.445C240.515 427.373 240.502 427.301 240.476 427.234C240.45 427.167 240.411 427.106 240.36 427.055C240.31 427.003 240.251 426.963 240.185 426.936C240.119 426.91 240.049 426.897 239.978 426.898Z" fill="black"/>
<path d="M231.953 418.695H224.998C224.927 418.693 224.857 418.706 224.791 418.733C224.726 418.76 224.666 418.8 224.616 418.851C224.566 418.903 224.527 418.963 224.5 419.031C224.474 419.098 224.461 419.17 224.463 419.242V426.351C224.461 426.424 224.474 426.496 224.5 426.563C224.527 426.63 224.566 426.691 224.616 426.742C224.666 426.793 224.726 426.833 224.791 426.86C224.857 426.887 224.927 426.9 224.998 426.898H231.953C232.024 426.9 232.094 426.887 232.16 426.86C232.225 426.833 232.285 426.793 232.335 426.742C232.385 426.691 232.424 426.63 232.451 426.563C232.477 426.496 232.49 426.424 232.488 426.351V419.242C232.49 419.17 232.477 419.098 232.451 419.031C232.424 418.963 232.385 418.903 232.335 418.851C232.285 418.8 232.225 418.76 232.16 418.733C232.094 418.706 232.024 418.693 231.953 418.695Z" fill="black"/>
<path d="M248.002 418.695H241.047C240.976 418.693 240.906 418.706 240.84 418.733C240.774 418.76 240.715 418.8 240.665 418.851C240.615 418.903 240.575 418.963 240.549 419.031C240.523 419.098 240.51 419.17 240.512 419.242V426.351C240.51 426.424 240.523 426.496 240.549 426.563C240.575 426.63 240.615 426.691 240.665 426.742C240.715 426.793 240.774 426.833 240.84 426.86C240.906 426.887 240.976 426.9 241.047 426.898H248.002C248.073 426.9 248.143 426.887 248.209 426.86C248.274 426.833 248.334 426.793 248.384 426.742C248.434 426.691 248.473 426.63 248.5 426.563C248.526 426.496 248.539 426.424 248.537 426.351V419.242C248.539 419.17 248.526 419.098 248.5 419.031C248.473 418.963 248.434 418.903 248.384 418.851C248.334 418.8 248.274 418.76 248.209 418.733C248.143 418.706 248.073 418.693 248.002 418.695Z" fill="black"/>
<path d="M231.953 435.102H224.998C224.927 435.1 224.857 435.113 224.791 435.14C224.726 435.167 224.666 435.207 224.616 435.258C224.566 435.309 224.527 435.37 224.5 435.437C224.474 435.504 224.461 435.576 224.463 435.648V442.758C224.461 442.83 224.474 442.902 224.5 442.969C224.527 443.036 224.566 443.097 224.616 443.149C224.666 443.2 224.726 443.24 224.791 443.267C224.857 443.294 224.927 443.307 224.998 443.305H231.953C232.024 443.307 232.094 443.294 232.16 443.267C232.225 443.24 232.285 443.2 232.335 443.149C232.385 443.097 232.424 443.036 232.451 442.969C232.477 442.902 232.49 442.83 232.488 442.758V435.648C232.49 435.576 232.477 435.504 232.451 435.437C232.424 435.37 232.385 435.309 232.335 435.258C232.285 435.207 232.225 435.167 232.16 435.14C232.094 435.113 232.024 435.1 231.953 435.102Z" fill="black"/>
<path d="M248.002 435.102H241.047C240.976 435.1 240.906 435.113 240.84 435.14C240.774 435.167 240.715 435.207 240.665 435.258C240.615 435.309 240.575 435.37 240.549 435.437C240.523 435.504 240.51 435.576 240.512 435.648V442.758C240.51 442.83 240.523 442.902 240.549 442.969C240.575 443.036 240.615 443.097 240.665 443.149C240.715 443.2 240.774 443.24 240.84 443.267C240.906 443.294 240.976 443.307 241.047 443.305H248.002C248.073 443.307 248.143 443.294 248.209 443.267C248.274 443.24 248.334 443.2 248.384 443.149C248.434 443.097 248.473 443.036 248.5 442.969C248.526 442.902 248.539 442.83 248.537 442.758V435.648C248.539 435.576 248.526 435.504 248.5 435.437C248.473 435.37 248.434 435.309 248.384 435.258C248.334 435.207 248.274 435.167 248.209 435.14C248.143 435.113 248.073 435.1 248.002 435.102Z" fill="black"/>
</g>
<circle cx="462" cy="143" r="7" fill="#ECC84A"/>
<path d="M104.5 113.39C104.5 133.776 88.371 150.28 68.5 150.28C48.629 150.28 32.5 133.776 32.5 113.39C32.5 93.0049 48.629 76.5 68.5 76.5C88.371 76.5 104.5 93.0049 104.5 113.39Z" stroke="#363636"/>
<line x1="32" y1="112.89" x2="105" y2="112.89" stroke="#363636"/>
<line y1="-0.5" x2="73" y2="-0.5" transform="matrix(0 -1 -1 0 68.5 149.89)" stroke="#363636"/>
<path fill-rule="evenodd" clip-rule="evenodd" d="M68.3211 97C77.3353 97 84.6423 104.491 84.6423 113.734C84.6423 121.126 79.9712 127.396 73.49 129.611C72.6626 129.776 72.3688 129.253 72.3688 128.808C72.3688 128.256 72.3884 126.454 72.3884 124.215C72.3884 122.655 71.8661 121.637 71.2802 121.118C74.9149 120.703 78.734 119.288 78.734 112.861C78.734 111.033 78.1008 109.541 77.0529 108.369C77.2227 107.946 77.7825 106.244 76.893 103.94C76.893 103.94 75.5253 103.491 72.4096 105.655C71.1055 105.285 69.7084 105.099 68.3211 105.092C66.9338 105.099 65.5384 105.285 64.236 105.655C61.117 103.491 59.746 103.94 59.746 103.94C58.8598 106.244 59.4196 107.946 59.5877 108.369C58.5448 109.541 57.9066 111.033 57.9066 112.861C57.9066 119.271 61.7176 120.708 65.3425 121.131C64.8758 121.549 64.453 122.286 64.3061 123.368C63.3758 123.796 61.0125 124.536 59.5567 121.978C59.5567 121.978 58.6933 120.37 57.0547 120.253C57.0547 120.253 55.4633 120.232 56.9437 121.27C56.9437 121.27 58.0127 121.784 58.7553 123.718C58.7553 123.718 59.7134 126.705 64.2539 125.693C64.2621 127.091 64.2768 128.41 64.2768 128.808C64.2768 129.25 63.9764 129.768 63.162 129.613C56.676 127.401 52 121.127 52 113.734C52 104.491 59.3086 97 68.3211 97Z" fill="white"/>
<path d="M128.5 379.317C128.5 398.005 113.714 413.134 95.5 413.134C77.2859 413.134 62.5 398.005 62.5 379.317C62.5 360.629 77.2859 345.5 95.5 345.5C113.714 345.5 128.5 360.629 128.5 379.317Z" stroke="#363636"/>
<line x1="62" y1="378.817" x2="129" y2="378.817" stroke="#363636"/>
<line y1="-0.5" x2="67" y2="-0.5" transform="matrix(0 -1 -1 0 95.5 412.817)" stroke="#363636"/>
<path d="M95.9797 393.959C104.253 393.959 110.959 387.253 110.959 378.98C110.959 370.707 104.253 364 95.9797 364C87.7066 364 81 370.707 81 378.98C81 387.253 87.7066 393.959 95.9797 393.959Z" fill="white"/>
<path d="M103.849 378.845C103.849 377.63 103.306 376.671 102.27 376.671C101.234 376.671 100.6 377.629 100.6 378.835C100.6 380.263 101.343 380.985 102.41 380.985C102.93 380.985 103.323 380.858 103.621 380.676V379.726C103.323 379.887 102.982 379.987 102.55 379.987C102.126 379.987 101.749 379.826 101.701 379.266H103.84C103.84 379.205 103.849 378.958 103.849 378.845ZM101.689 378.394C101.689 377.857 101.991 377.634 102.266 377.634C102.533 377.634 102.817 377.855 102.817 378.394H101.689ZM98.9119 376.671C98.5929 376.67 98.2858 376.802 98.055 377.041L97.9981 376.747H97.0348V382.28L98.1279 382.029L98.1323 380.686C98.2896 380.809 98.5214 380.985 98.9064 380.985C99.6892 380.985 100.402 380.301 100.402 378.797C100.398 377.421 99.6769 376.671 98.9119 376.671ZM98.6492 379.941C98.3912 379.941 98.2383 379.841 98.1332 379.719L98.1288 377.958C98.2426 377.821 98.4 377.726 98.6492 377.726C99.0471 377.726 99.3226 378.21 99.3226 378.832C99.3229 379.466 99.0517 379.941 98.6495 379.941H98.6492ZM95.5317 376.391L96.6291 376.135V375.171L95.5317 375.423V376.391ZM95.5317 376.752H96.6291V380.904H95.5317V376.752ZM94.3554 377.103L94.2848 376.752H93.3408V380.904H94.4339V378.09C94.6919 377.724 95.1292 377.791 95.2646 377.843V376.752C95.1251 376.695 94.6134 376.59 94.3554 377.103ZM92.1689 375.722L91.1033 375.97L91.0989 379.771C91.0989 380.473 91.5843 380.991 92.2314 380.991C92.5898 380.991 92.8522 380.919 92.9967 380.834V379.87C92.8569 379.931 92.166 380.15 92.166 379.447V377.762H92.9967V376.752H92.1645L92.1689 375.722ZM89.2131 377.957C89.2131 377.772 89.3529 377.701 89.5846 377.701C89.9629 377.709 90.3341 377.813 90.669 378.004V376.888C90.324 376.741 89.9562 376.667 89.5855 376.671C88.6979 376.671 88.1074 377.174 88.1074 378.014C88.1074 379.324 89.7691 379.115 89.7691 379.68C89.7691 379.898 89.594 379.969 89.3494 379.969C88.9866 379.969 88.5228 379.808 88.1556 379.589V380.719C88.5325 380.896 88.9387 380.988 89.3494 380.989C90.2589 380.989 90.8841 380.5 90.8841 379.651C90.8791 378.237 89.2131 378.489 89.2131 377.957Z" fill="#635BFF"/>
<circle cx="46" cy="320" r="6" fill="#3ED37A"/>
<circle cx="279" cy="345" r="9" fill="#F3648F"/>
<circle cx="133" cy="90" r="4" fill="#EC7B4A"/>
<circle cx="346" cy="179" r="4" fill="#4A81EC"/>
<line x1="296" y1="231.5" x2="366" y2="231.5" stroke="#363636"/>
<line x1="103" y1="231.5" x2="180" y2="231.5" stroke="#363636"/>
<defs>
<linearGradient id="paint0_linear_4217_865" x1="185.71" y1="180.438" x2="238" y2="234.32" gradientUnits="userSpaceOnUse">
<stop stop-color="#B1B1B1" stop-opacity="0.32"/>
<stop offset="1" stop-color="#363567" stop-opacity="0.2"/>
</linearGradient>
<linearGradient id="paint1_linear_4217_865" x1="155.563" y1="165.643" x2="186.99" y2="313.659" gradientUnits="userSpaceOnUse">
<stop stop-color="white" stop-opacity="0.2"/>
<stop offset="1" stop-color="white" stop-opacity="0"/>
</linearGradient>
<linearGradient id="paint2_linear_4217_865" x1="243.158" y1="203.991" x2="228.739" y2="254.457" gradientUnits="userSpaceOnUse">
<stop stop-color="#C398FF"/>
<stop offset="1" stop-color="#8700FF"/>
</linearGradient>
<clipPath id="clip0_4217_865">
<rect width="45" height="46" fill="white" transform="translate(214 408)"/>
</clipPath>
</defs>
</svg>
