<svg width="1311" height="594" viewBox="0 0 1311 594" fill="none" xmlns="http://www.w3.org/2000/svg">
<path d="M208.595 155C208.595 187.32 183.021 213.5 151.5 213.5C119.978 213.5 94.4043 187.32 94.4043 155C94.4043 122.68 119.978 96.5 151.5 96.5C183.021 96.5 208.595 122.68 208.595 155Z" stroke="#363636"/>
<line x1="93.9043" y1="154.5" x2="209.095" y2="154.5" stroke="#363636"/>
<line y1="-0.5" x2="115.19" y2="-0.5" transform="matrix(0 -1 -1 0 151.5 212.595)" stroke="#363636"/>
<path d="M391.5 76C391.5 99.7798 372.685 119.037 349.5 119.037C326.315 119.037 307.5 99.7798 307.5 76C307.5 52.2201 326.315 32.9634 349.5 32.9634C372.685 32.9634 391.5 52.2201 391.5 76Z" stroke="#363636"/>
<line x1="307" y1="75.5" x2="392" y2="75.5" stroke="#363636"/>
<line y1="-0.5" x2="85" y2="-0.5" transform="matrix(0 -1 -1 0 349.5 118.5)" stroke="#363636"/>
<path d="M438.5 314C438.5 348.529 411.178 376.5 377.5 376.5C343.822 376.5 316.5 348.529 316.5 314C316.5 279.471 343.822 251.5 377.5 251.5C411.178 251.5 438.5 279.471 438.5 314Z" stroke="#363636"/>
<line x1="316" y1="313.5" x2="439" y2="313.5" stroke="#363636"/>
<line y1="-0.5" x2="123" y2="-0.5" transform="matrix(0 -1 -1 0 377.5 375.5)" stroke="#363636"/>
<path d="M212.5 472C212.5 506.529 185.178 534.5 151.5 534.5C117.822 534.5 90.5 506.529 90.5 472C90.5 437.471 117.822 409.5 151.5 409.5C185.178 409.5 212.5 437.471 212.5 472Z" stroke="#363636"/>
<line x1="90" y1="471.5" x2="213" y2="471.5" stroke="#363636"/>
<line y1="-0.5" x2="123" y2="-0.5" transform="matrix(0 -1 -1 0 151.5 533.5)" stroke="#363636"/>
<path d="M386.5 553C386.5 573.385 370.371 589.89 350.5 589.89C330.629 589.89 314.5 573.385 314.5 553C314.5 532.615 330.629 516.11 350.5 516.11C370.371 516.11 386.5 532.615 386.5 553Z" stroke="#363636"/>
<line x1="314" y1="552.5" x2="387" y2="552.5" stroke="#363636"/>
<line y1="-0.5" x2="73" y2="-0.5" transform="matrix(0 -1 -1 0 350.5 589.5)" stroke="#363636"/>
<path d="M677.5 527C677.5 561.529 650.178 589.5 616.5 589.5C582.822 589.5 555.5 561.529 555.5 527C555.5 492.471 582.822 464.5 616.5 464.5C650.178 464.5 677.5 492.471 677.5 527Z" stroke="#363636"/>
<line x1="555" y1="526.5" x2="678" y2="526.5" stroke="#363636"/>
<line y1="-0.5" x2="123" y2="-0.5" transform="matrix(0 -1 -1 0 616.5 588.5)" stroke="#363636"/>
<path d="M677.5 92C677.5 126.529 650.178 154.5 616.5 154.5C582.822 154.5 555.5 126.529 555.5 92C555.5 57.4708 582.822 29.5 616.5 29.5C650.178 29.5 677.5 57.4708 677.5 92Z" stroke="#363636"/>
<line x1="555" y1="91.5" x2="678" y2="91.5" stroke="#363636"/>
<line y1="-0.5" x2="123" y2="-0.5" transform="matrix(0 -1 -1 0 616.5 153.5)" stroke="#363636"/>
<path d="M976.5 71C976.5 105.529 949.178 133.5 915.5 133.5C881.822 133.5 854.5 105.529 854.5 71C854.5 36.4708 881.822 8.5 915.5 8.5C949.178 8.5 976.5 36.4708 976.5 71Z" stroke="#363636"/>
<line x1="854" y1="70.5" x2="977" y2="70.5" stroke="#363636"/>
<line y1="-0.5" x2="123" y2="-0.5" transform="matrix(0 -1 -1 0 915.5 132.5)" stroke="#363636"/>
<path d="M1174.5 169C1174.5 203.529 1147.18 231.5 1113.5 231.5C1079.82 231.5 1052.5 203.529 1052.5 169C1052.5 134.471 1079.82 106.5 1113.5 106.5C1147.18 106.5 1174.5 134.471 1174.5 169Z" stroke="#363636"/>
<line x1="1052" y1="168.5" x2="1175" y2="168.5" stroke="#363636"/>
<line y1="-0.5" x2="123" y2="-0.5" transform="matrix(0 -1 -1 0 1113.5 230.5)" stroke="#363636"/>
<path d="M915.5 313C915.5 347.529 888.178 375.5 854.5 375.5C820.822 375.5 793.5 347.529 793.5 313C793.5 278.471 820.822 250.5 854.5 250.5C888.178 250.5 915.5 278.471 915.5 313Z" stroke="#363636"/>
<line x1="793" y1="312.5" x2="916" y2="312.5" stroke="#363636"/>
<line y1="-0.5" x2="123" y2="-0.5" transform="matrix(0 -1 -1 0 854.5 374.5)" stroke="#363636"/>
<path d="M952.5 555C952.5 575.951 935.923 592.915 915.5 592.915C895.077 592.915 878.5 575.951 878.5 555C878.5 534.049 895.077 517.085 915.5 517.085C935.923 517.085 952.5 534.049 952.5 555Z" stroke="#363636"/>
<line x1="878" y1="554.5" x2="953" y2="554.5" stroke="#363636"/>
<line y1="-0.5" x2="75" y2="-0.5" transform="matrix(0 -1 -1 0 915.5 592.5)" stroke="#363636"/>
<path d="M1159.5 482C1159.5 508.043 1138.89 529.134 1113.5 529.134C1088.11 529.134 1067.5 508.043 1067.5 482C1067.5 455.957 1088.11 434.866 1113.5 434.866C1138.89 434.866 1159.5 455.957 1159.5 482Z" stroke="#363636"/>
<line x1="1067" y1="481.5" x2="1160" y2="481.5" stroke="#363636"/>
<line y1="-0.5" x2="93" y2="-0.5" transform="matrix(0 -1 -1 0 1113.5 528.5)" stroke="#363636"/>
<circle cx="10" cy="325" r="10" fill="#64B7F3"/>
<circle cx="1302" cy="210" r="9" fill="#F3648F"/>
<circle cx="553" cy="169" r="7" fill="#ECC84A"/>
<circle cx="1147" cy="381" r="6" fill="#3ED37A"/>
<circle cx="823" cy="65" r="4" fill="#EC7B4A"/>
<circle cx="301" cy="4" r="4" fill="#4A81EC"/>
<rect x="1086" y="141" width="55" height="55" rx="27.5" fill="white"/>
<path d="M1106.05 164.327H1100.83C1100.6 164.327 1100.41 164.515 1100.41 164.746V181.514C1100.41 181.746 1100.6 181.934 1100.83 181.934H1106.05C1106.28 181.934 1106.47 181.746 1106.47 181.514V164.746C1106.47 164.515 1106.28 164.327 1106.05 164.327Z" fill="black"/>
<path d="M1103.44 155.991C1101.55 155.991 1100 157.535 1100 159.432C1100 161.33 1101.55 162.874 1103.44 162.874C1105.34 162.874 1106.89 161.33 1106.89 159.432C1106.89 157.535 1105.34 155.991 1103.44 155.991Z" fill="black"/>
<path d="M1119.33 163.91C1117.23 163.91 1115.68 164.812 1114.74 165.836V164.746C1114.74 164.515 1114.55 164.327 1114.32 164.327H1109.32C1109.09 164.327 1108.9 164.515 1108.9 164.746V181.514C1108.9 181.746 1109.09 181.934 1109.32 181.934H1114.53C1114.76 181.934 1114.95 181.746 1114.95 181.514V173.218C1114.95 170.423 1115.71 169.333 1117.66 169.333C1119.78 169.333 1119.95 171.079 1119.95 173.362V181.514C1119.95 181.746 1120.14 181.934 1120.37 181.934H1125.58C1125.81 181.934 1126 181.746 1126 181.514V172.317C1126 168.16 1125.21 163.91 1119.33 163.91Z" fill="black"/>
<rect x="589" y="495" width="55" height="55" rx="27.5" fill="white"/>
<path d="M609.053 518.327H603.833C603.602 518.327 603.414 518.515 603.414 518.746V535.514C603.414 535.746 603.602 535.934 603.833 535.934H609.053C609.284 535.934 609.472 535.746 609.472 535.514V518.746C609.472 518.515 609.284 518.327 609.053 518.327Z" fill="black"/>
<path d="M606.444 509.991C604.545 509.991 603 511.535 603 513.432C603 515.33 604.545 516.874 606.444 516.874C608.342 516.874 609.886 515.33 609.886 513.432C609.886 511.535 608.342 509.991 606.444 509.991Z" fill="black"/>
<path d="M622.327 517.91C620.231 517.91 618.681 518.812 617.742 519.836V518.746C617.742 518.515 617.554 518.327 617.322 518.327H612.324C612.092 518.327 611.904 518.515 611.904 518.746V535.514C611.904 535.746 612.092 535.934 612.324 535.934H617.532C617.763 535.934 617.951 535.746 617.951 535.514V527.218C617.951 524.423 618.71 523.333 620.659 523.333C622.782 523.333 622.95 525.079 622.95 527.362V535.514C622.95 535.746 623.138 535.934 623.37 535.934H628.58C628.811 535.934 628.999 535.746 628.999 535.514V526.317C628.999 522.16 628.206 517.91 622.327 517.91Z" fill="black"/>
<rect x="330.496" y="56.6504" width="38.0081" height="38.0081" rx="19.0041" fill="white"/>
<path d="M344.356 72.7708H340.749C340.589 72.7708 340.459 72.9005 340.459 73.0605V84.648C340.459 84.8081 340.589 84.9378 340.749 84.9378H344.356C344.516 84.9378 344.645 84.8081 344.645 84.648V73.0605C344.645 72.9005 344.516 72.7708 344.356 72.7708Z" fill="black"/>
<path d="M342.552 67.0103C341.24 67.0103 340.172 68.0769 340.172 69.3879C340.172 70.6994 341.24 71.7664 342.552 71.7664C343.863 71.7664 344.93 70.6993 344.93 69.3879C344.93 68.0769 343.863 67.0103 342.552 67.0103Z" fill="black"/>
<path d="M353.529 72.4828C352.08 72.4828 351.01 73.1055 350.36 73.8131V73.0605C350.36 72.9005 350.23 72.7708 350.07 72.7708H346.616C346.456 72.7708 346.326 72.9005 346.326 73.0605V84.648C346.326 84.8081 346.456 84.9378 346.616 84.9378H350.215C350.375 84.9378 350.505 84.8081 350.505 84.648V78.9149C350.505 76.983 351.03 76.2303 352.376 76.2303C353.843 76.2303 353.96 77.4369 353.96 79.0143V84.6481C353.96 84.8082 354.089 84.9379 354.249 84.9379H357.85C358.01 84.9379 358.139 84.8082 358.139 84.6481V78.2922C358.139 75.4194 357.592 72.4828 353.529 72.4828Z" fill="black"/>
<path fill-rule="evenodd" clip-rule="evenodd" d="M350.501 536.976C359.515 536.976 366.822 544.467 366.822 553.71C366.822 561.101 362.151 567.372 355.67 569.587C354.842 569.752 354.548 569.229 354.548 568.783C354.548 568.232 354.568 566.43 354.568 564.191C354.568 562.63 354.046 561.612 353.46 561.093C357.095 560.679 360.914 559.263 360.914 552.836C360.914 551.008 360.28 549.516 359.233 548.345C359.402 547.922 359.962 546.22 359.073 543.915C359.073 543.915 357.705 543.467 354.589 545.631C353.285 545.261 351.888 545.074 350.501 545.068C349.114 545.074 347.718 545.261 346.416 545.631C343.297 543.467 341.926 543.915 341.926 543.915C341.039 546.22 341.599 547.922 341.767 548.345C340.724 549.516 340.086 551.008 340.086 552.836C340.086 559.247 343.897 560.684 347.522 561.107C347.055 561.524 346.633 562.262 346.486 563.344C345.556 563.771 343.192 564.511 341.736 561.954C341.736 561.954 340.873 560.346 339.234 560.228C339.234 560.228 337.643 560.207 339.123 561.245C339.123 561.245 340.192 561.759 340.935 563.693C340.935 563.693 341.893 566.68 346.434 565.668C346.442 567.067 346.456 568.385 346.456 568.783C346.456 569.226 346.156 569.743 345.342 569.588C338.856 567.377 334.18 561.103 334.18 553.71C334.18 544.467 341.488 536.976 350.501 536.976Z" fill="white"/>
<path d="M616.5 120C631.688 120 644 107.688 644 92.5C644 77.3122 631.688 65 616.5 65C601.312 65 589 77.3122 589 92.5C589 107.688 601.312 120 616.5 120Z" fill="#F3BA2F"/>
<path d="M610.749 90.1367L616.501 84.3842L622.253 90.1421L625.6 86.7959L616.501 77.6919L607.402 86.7905L610.749 90.1367Z" fill="white"/>
<path d="M601.691 92.4973L605.037 89.1513L608.383 92.4972L605.037 95.8433L601.691 92.4973Z" fill="white"/>
<path d="M610.746 94.8633L616.499 100.616L622.251 94.8579L625.603 98.2041H625.597L616.499 107.308L607.4 98.2095L607.395 98.2041L610.746 94.8633Z" fill="white"/>
<path d="M624.613 92.503L627.959 89.1569L631.305 92.5029L627.959 95.8489L624.613 92.503Z" fill="white"/>
<path d="M619.894 92.5L616.5 89.1001L613.991 91.6138L613.701 91.8985L613.105 92.4947L613.1 92.5L613.105 92.5054L616.5 95.8999L619.894 92.5Z" fill="white"/>
<path d="M150.5 503C165.688 503 178 490.688 178 475.5C178 460.312 165.688 448 150.5 448C135.312 448 123 460.312 123 475.5C123 490.688 135.312 503 150.5 503Z" fill="white"/>
<path d="M144.749 473.137L150.501 467.384L156.253 473.142L159.6 469.796L150.501 460.692L141.402 469.791L144.749 473.137Z" fill="#F3BA2F"/>
<path d="M135.691 475.497L139.037 472.151L142.383 475.497L139.037 478.843L135.691 475.497Z" fill="#F3BA2F"/>
<path d="M144.746 477.863L150.499 483.616L156.251 477.858L159.603 481.204H159.597L150.499 490.308L141.4 481.209L141.395 481.204L144.746 477.863Z" fill="#F3BA2F"/>
<path d="M158.613 475.503L161.959 472.157L165.305 475.503L161.959 478.849L158.613 475.503Z" fill="#F3BA2F"/>
<path d="M153.894 475.5L150.5 472.1L147.991 474.614L147.701 474.898L147.105 475.495L147.1 475.5L147.105 475.505L150.5 478.9L153.894 475.5Z" fill="#F3BA2F"/>
<path d="M1113.5 503.171C1124.98 503.171 1134.29 493.862 1134.29 482.378C1134.29 470.895 1124.98 461.585 1113.5 461.585C1102.02 461.585 1092.71 470.895 1092.71 482.378C1092.71 493.862 1102.02 503.171 1113.5 503.171Z" fill="#635BFF"/>
<path d="M1124.42 482.191C1124.42 480.504 1123.67 479.173 1122.23 479.173C1120.79 479.173 1119.91 480.504 1119.91 482.177C1119.91 484.16 1120.95 485.162 1122.43 485.162C1123.15 485.162 1123.69 484.986 1124.11 484.733V483.414C1123.69 483.638 1123.22 483.777 1122.62 483.777C1122.03 483.777 1121.51 483.553 1121.44 482.775H1124.41C1124.41 482.691 1124.42 482.348 1124.42 482.191ZM1121.43 481.565C1121.43 480.821 1121.84 480.51 1122.23 480.51C1122.6 480.51 1122.99 480.817 1122.99 481.565H1121.43ZM1117.57 479.173C1117.13 479.172 1116.7 479.356 1116.38 479.687L1116.3 479.279H1114.97V486.96L1116.48 486.61L1116.49 484.746C1116.71 484.918 1117.03 485.161 1117.56 485.161C1118.65 485.161 1119.64 484.213 1119.64 482.125C1119.63 480.214 1118.63 479.173 1117.57 479.173ZM1117.21 483.712C1116.85 483.712 1116.64 483.573 1116.49 483.404L1116.48 480.96C1116.64 480.769 1116.86 480.638 1117.21 480.638C1117.76 480.638 1118.14 481.309 1118.14 482.173C1118.14 483.053 1117.77 483.712 1117.21 483.712H1117.21ZM1112.88 478.785L1114.4 478.429V477.092L1112.88 477.441V478.785ZM1112.88 479.286H1114.4V485.05H1112.88V479.286ZM1111.25 479.773L1111.15 479.286H1109.84V485.049H1111.36V481.143C1111.71 480.635 1112.32 480.728 1112.51 480.8V479.286C1112.32 479.206 1111.6 479.061 1111.25 479.773ZM1108.21 477.856L1106.73 478.2L1106.73 483.477C1106.73 484.452 1107.4 485.17 1108.3 485.17C1108.8 485.17 1109.16 485.071 1109.36 484.952V483.613C1109.17 483.699 1108.21 484.002 1108.21 483.027V480.689H1109.36V479.286H1108.21L1108.21 477.856ZM1104.11 480.959C1104.11 480.702 1104.3 480.603 1104.62 480.603C1105.15 480.615 1105.67 480.759 1106.13 481.025V479.475C1105.65 479.271 1105.14 479.168 1104.63 479.173C1103.39 479.173 1102.57 479.872 1102.57 481.038C1102.57 482.856 1104.88 482.566 1104.88 483.35C1104.88 483.653 1104.64 483.752 1104.3 483.752C1103.79 483.752 1103.15 483.528 1102.64 483.224V484.792C1103.16 485.038 1103.73 485.165 1104.3 485.167C1105.56 485.167 1106.43 484.489 1106.43 483.31C1106.42 481.347 1104.11 481.696 1104.11 480.959Z" fill="white"/>
<path d="M914.5 103C929.688 103 942 90.6878 942 75.5C942 60.3122 929.688 48 914.5 48C899.312 48 887 60.3122 887 75.5C887 90.6878 899.312 103 914.5 103Z" fill="white"/>
<path d="M928.949 75.252C928.949 73.0218 927.954 71.2615 926.051 71.2615C924.149 71.2615 922.985 73.0212 922.985 75.2345C922.985 77.8567 924.349 79.1814 926.307 79.1814C927.262 79.1814 927.985 78.9488 928.531 78.615V76.8704C927.985 77.1664 927.359 77.3496 926.564 77.3496C925.785 77.3496 925.095 77.0536 925.007 76.0254H928.932C928.933 75.9138 928.949 75.4608 928.949 75.252ZM924.984 74.4245C924.984 73.4399 925.538 73.0288 926.044 73.0288C926.534 73.0288 927.055 73.4358 927.055 74.4245H924.984ZM919.886 71.2615C919.3 71.2591 918.737 71.5027 918.313 71.9413L918.208 71.401H916.44V81.5593L918.447 81.0976L918.455 78.6319C918.744 78.8587 919.169 79.1808 919.876 79.1808C921.313 79.1808 922.621 77.9265 922.621 75.1648C922.615 72.638 921.29 71.2615 919.886 71.2615ZM919.404 77.2641C918.93 77.2641 918.649 77.0809 918.456 76.857L918.448 73.6248C918.657 73.3725 918.946 73.198 919.404 73.198C920.134 73.198 920.64 74.0866 920.64 75.2281C920.64 76.393 920.143 77.2641 919.404 77.2641H919.404ZM913.68 70.7474L915.695 70.2769V68.5085L913.68 68.9702V70.7474ZM913.68 71.4098H915.695V79.0331H913.68V71.4098ZM911.521 72.0541L911.391 71.4098H909.658V79.0326H911.665V73.8662C912.139 73.1951 912.941 73.3172 913.19 73.4132V71.4098C912.934 71.3051 911.995 71.1132 911.521 72.0541ZM907.507 69.5192L905.551 69.9745L905.543 76.953C905.543 78.2422 906.434 79.1919 907.622 79.1919C908.28 79.1919 908.761 79.061 909.027 78.9046V77.1338C908.77 77.2472 907.502 77.6479 907.502 76.3586V73.2655H909.027V71.4098H907.499L907.507 69.5192ZM902.081 73.6225C902.081 73.2829 902.337 73.1521 902.763 73.1521C903.457 73.1679 904.139 73.3588 904.753 73.7097V71.661C904.12 71.3903 903.445 71.2547 902.764 71.2615C901.135 71.2615 900.051 72.185 900.051 73.7272C900.051 76.1318 903.101 75.7486 903.101 76.7849C903.101 77.1856 902.78 77.3164 902.331 77.3164C901.665 77.3164 900.813 77.0204 900.139 76.6186V78.6924C900.831 79.0173 901.577 79.1863 902.331 79.189C904 79.189 905.148 78.2917 905.148 76.732C905.139 74.1366 902.081 74.5983 902.081 73.6225Z" fill="#635BFF"/>
<g clip-path="url(#clip0_4162_59)">
<path d="M377.5 342C392.688 342 405 329.688 405 314.5C405 299.312 392.688 287 377.5 287C362.312 287 350 299.312 350 314.5C350 329.688 362.312 342 377.5 342Z" fill="white"/>
<path d="M381.75 309.596H373.25C373.163 309.594 373.077 309.609 372.997 309.641C372.917 309.674 372.844 309.722 372.783 309.783C372.722 309.844 372.674 309.917 372.641 309.997C372.609 310.077 372.594 310.163 372.596 310.25V318.75C372.594 318.837 372.609 318.923 372.641 319.003C372.674 319.083 372.722 319.156 372.783 319.217C372.844 319.278 372.917 319.327 372.997 319.359C373.077 319.391 373.163 319.406 373.25 319.404H381.75C381.837 319.406 381.923 319.391 382.003 319.359C382.083 319.327 382.156 319.278 382.217 319.217C382.278 319.156 382.327 319.083 382.359 319.003C382.391 318.923 382.406 318.837 382.404 318.75V310.25C382.406 310.163 382.391 310.077 382.359 309.997C382.327 309.917 382.278 309.844 382.217 309.783C382.156 309.722 382.083 309.674 382.003 309.641C381.923 309.609 381.837 309.594 381.75 309.596Z" fill="black"/>
<path d="M371.942 299.788H363.441C363.355 299.786 363.269 299.801 363.188 299.833C363.108 299.865 363.035 299.913 362.974 299.975C362.913 300.036 362.865 300.109 362.833 300.189C362.801 300.269 362.785 300.355 362.787 300.442V308.942C362.785 309.028 362.801 309.114 362.833 309.195C362.865 309.275 362.913 309.348 362.974 309.409C363.035 309.47 363.108 309.518 363.188 309.55C363.269 309.583 363.355 309.598 363.441 309.596H371.942C372.028 309.598 372.114 309.583 372.194 309.55C372.275 309.518 372.348 309.47 372.409 309.409C372.47 309.348 372.518 309.275 372.55 309.195C372.582 309.114 372.598 309.028 372.596 308.942V300.442C372.598 300.355 372.582 300.269 372.55 300.189C372.518 300.109 372.47 300.036 372.409 299.975C372.348 299.913 372.275 299.865 372.194 299.833C372.114 299.801 372.028 299.786 371.942 299.788Z" fill="black"/>
<path d="M391.559 299.788H383.058C382.972 299.786 382.886 299.801 382.806 299.833C382.725 299.865 382.652 299.913 382.591 299.975C382.53 300.036 382.482 300.109 382.45 300.189C382.418 300.269 382.402 300.355 382.404 300.442V308.942C382.402 309.028 382.418 309.114 382.45 309.195C382.482 309.275 382.53 309.348 382.591 309.409C382.652 309.47 382.725 309.518 382.806 309.55C382.886 309.583 382.972 309.598 383.058 309.596H391.559C391.645 309.598 391.731 309.583 391.812 309.55C391.892 309.518 391.965 309.47 392.026 309.409C392.087 309.348 392.135 309.275 392.167 309.195C392.199 309.114 392.215 309.028 392.213 308.942V300.442C392.215 300.355 392.199 300.269 392.167 300.189C392.135 300.109 392.087 300.036 392.026 299.975C391.965 299.913 391.892 299.865 391.812 299.833C391.731 299.801 391.645 299.786 391.559 299.788Z" fill="black"/>
<path d="M371.942 319.404H363.441C363.355 319.402 363.269 319.417 363.188 319.45C363.108 319.482 363.035 319.53 362.974 319.591C362.913 319.652 362.865 319.725 362.833 319.805C362.801 319.886 362.785 319.972 362.787 320.058V328.558C362.785 328.645 362.801 328.731 362.833 328.811C362.865 328.891 362.913 328.964 362.974 329.026C363.035 329.087 363.108 329.135 363.188 329.167C363.269 329.199 363.355 329.214 363.441 329.212H371.942C372.028 329.214 372.114 329.199 372.194 329.167C372.275 329.135 372.348 329.087 372.409 329.026C372.47 328.964 372.518 328.891 372.55 328.811C372.582 328.731 372.598 328.645 372.596 328.558V320.058C372.598 319.972 372.582 319.886 372.55 319.805C372.518 319.725 372.47 319.652 372.409 319.591C372.348 319.53 372.275 319.482 372.194 319.45C372.114 319.417 372.028 319.402 371.942 319.404Z" fill="black"/>
<path d="M391.559 319.404H383.058C382.972 319.402 382.886 319.417 382.806 319.45C382.725 319.482 382.652 319.53 382.591 319.591C382.53 319.652 382.482 319.725 382.45 319.805C382.418 319.886 382.402 319.972 382.404 320.058V328.558C382.402 328.645 382.418 328.731 382.45 328.811C382.482 328.891 382.53 328.964 382.591 329.026C382.652 329.087 382.725 329.135 382.806 329.167C382.886 329.199 382.972 329.214 383.058 329.212H391.559C391.645 329.214 391.731 329.199 391.812 329.167C391.892 329.135 391.965 329.087 392.026 329.026C392.087 328.964 392.135 328.891 392.167 328.811C392.199 328.731 392.215 328.645 392.213 328.558V320.058C392.215 319.972 392.199 319.886 392.167 319.805C392.135 319.725 392.087 319.652 392.026 319.591C391.965 319.53 391.892 319.482 391.812 319.45C391.731 319.417 391.645 319.402 391.559 319.404Z" fill="black"/>
<path d="M381.75 309.596H373.25C373.163 309.594 373.077 309.609 372.997 309.641C372.917 309.674 372.844 309.722 372.783 309.783C372.722 309.844 372.674 309.917 372.641 309.997C372.609 310.077 372.594 310.163 372.596 310.25V318.75C372.594 318.837 372.609 318.923 372.641 319.003C372.674 319.083 372.722 319.156 372.783 319.217C372.844 319.278 372.917 319.327 372.997 319.359C373.077 319.391 373.163 319.406 373.25 319.404H381.75C381.837 319.406 381.923 319.391 382.003 319.359C382.083 319.327 382.156 319.278 382.217 319.217C382.278 319.156 382.327 319.083 382.359 319.003C382.391 318.923 382.406 318.837 382.404 318.75V310.25C382.406 310.163 382.391 310.077 382.359 309.997C382.327 309.917 382.278 309.844 382.217 309.783C382.156 309.722 382.083 309.674 382.003 309.641C381.923 309.609 381.837 309.594 381.75 309.596Z" fill="black"/>
<path d="M371.942 299.788H363.441C363.355 299.786 363.269 299.801 363.188 299.833C363.108 299.865 363.035 299.913 362.974 299.975C362.913 300.036 362.865 300.109 362.833 300.189C362.801 300.269 362.785 300.355 362.787 300.442V308.942C362.785 309.028 362.801 309.114 362.833 309.195C362.865 309.275 362.913 309.348 362.974 309.409C363.035 309.47 363.108 309.518 363.188 309.55C363.269 309.583 363.355 309.598 363.441 309.596H371.942C372.028 309.598 372.114 309.583 372.194 309.55C372.275 309.518 372.348 309.47 372.409 309.409C372.47 309.348 372.518 309.275 372.55 309.195C372.582 309.114 372.598 309.028 372.596 308.942V300.442C372.598 300.355 372.582 300.269 372.55 300.189C372.518 300.109 372.47 300.036 372.409 299.975C372.348 299.913 372.275 299.865 372.194 299.833C372.114 299.801 372.028 299.786 371.942 299.788Z" fill="black"/>
<path d="M391.559 299.788H383.058C382.972 299.786 382.886 299.801 382.806 299.833C382.725 299.865 382.652 299.913 382.591 299.975C382.53 300.036 382.482 300.109 382.45 300.189C382.418 300.269 382.402 300.355 382.404 300.442V308.942C382.402 309.028 382.418 309.114 382.45 309.195C382.482 309.275 382.53 309.348 382.591 309.409C382.652 309.47 382.725 309.518 382.806 309.55C382.886 309.583 382.972 309.598 383.058 309.596H391.559C391.645 309.598 391.731 309.583 391.812 309.55C391.892 309.518 391.965 309.47 392.026 309.409C392.087 309.348 392.135 309.275 392.167 309.195C392.199 309.114 392.215 309.028 392.213 308.942V300.442C392.215 300.355 392.199 300.269 392.167 300.189C392.135 300.109 392.087 300.036 392.026 299.975C391.965 299.913 391.892 299.865 391.812 299.833C391.731 299.801 391.645 299.786 391.559 299.788Z" fill="black"/>
<path d="M371.942 319.404H363.441C363.355 319.402 363.269 319.417 363.188 319.45C363.108 319.482 363.035 319.53 362.974 319.591C362.913 319.652 362.865 319.725 362.833 319.805C362.801 319.886 362.785 319.972 362.787 320.058V328.558C362.785 328.645 362.801 328.731 362.833 328.811C362.865 328.891 362.913 328.964 362.974 329.026C363.035 329.087 363.108 329.135 363.188 329.167C363.269 329.199 363.355 329.214 363.441 329.212H371.942C372.028 329.214 372.114 329.199 372.194 329.167C372.275 329.135 372.348 329.087 372.409 329.026C372.47 328.964 372.518 328.891 372.55 328.811C372.582 328.731 372.598 328.645 372.596 328.558V320.058C372.598 319.972 372.582 319.886 372.55 319.805C372.518 319.725 372.47 319.652 372.409 319.591C372.348 319.53 372.275 319.482 372.194 319.45C372.114 319.417 372.028 319.402 371.942 319.404Z" fill="black"/>
<path d="M391.559 319.404H383.058C382.972 319.402 382.886 319.417 382.806 319.45C382.725 319.482 382.652 319.53 382.591 319.591C382.53 319.652 382.482 319.725 382.45 319.805C382.418 319.886 382.402 319.972 382.404 320.058V328.558C382.402 328.645 382.418 328.731 382.45 328.811C382.482 328.891 382.53 328.964 382.591 329.026C382.652 329.087 382.725 329.135 382.806 329.167C382.886 329.199 382.972 329.214 383.058 329.212H391.559C391.645 329.214 391.731 329.199 391.812 329.167C391.892 329.135 391.965 329.087 392.026 329.026C392.087 328.964 392.135 328.891 392.167 328.811C392.199 328.731 392.215 328.645 392.213 328.558V320.058C392.215 319.972 392.199 319.886 392.167 319.805C392.135 319.725 392.087 319.652 392.026 319.591C391.965 319.53 391.892 319.482 391.812 319.45C391.731 319.417 391.645 319.402 391.559 319.404Z" fill="black"/>
</g>
<path d="M854.5 342C869.688 342 882 329.688 882 314.5C882 299.312 869.688 287 854.5 287C839.312 287 827 299.312 827 314.5C827 329.688 839.312 342 854.5 342Z" fill="white"/>
<path d="M849.627 308.26L842 315.593H854.98L856.373 312.367H849.773L853.88 308.26L851.46 304.153H862.68L852.34 328.5H856.227L867.887 301H845.373L849.627 308.26Z" fill="#00B9FF"/>
<path d="M151.5 181.222C165.724 181.222 177.254 169.692 177.254 155.468C177.254 141.245 165.724 129.714 151.5 129.714C137.277 129.714 125.746 141.245 125.746 155.468C125.746 169.692 137.277 181.222 151.5 181.222Z" fill="white"/>
<path d="M146.935 149.624L139.793 156.492H151.949L153.254 153.47H147.073L150.919 149.624L148.652 145.779H159.16L149.476 168.579H153.116L164.036 142.825H142.952L146.935 149.624Z" fill="#00B9FF"/>
<g clip-path="url(#clip1_4162_59)">
<path d="M915 571C924.389 571 932 563.613 932 554.5C932 545.387 924.389 538 915 538C905.611 538 898 545.387 898 554.5C898 563.613 905.611 571 915 571Z" fill="white"/>
<path d="M917.628 551.558H912.373C912.32 551.556 912.266 551.566 912.217 551.585C912.167 551.604 912.122 551.633 912.084 551.67C912.047 551.706 912.017 551.75 911.997 551.798C911.977 551.846 911.968 551.898 911.969 551.95V557.05C911.968 557.102 911.977 557.154 911.997 557.202C912.017 557.25 912.047 557.294 912.084 557.33C912.122 557.367 912.167 557.396 912.217 557.415C912.266 557.434 912.32 557.444 912.373 557.442H917.628C917.681 557.444 917.735 557.434 917.784 557.415C917.834 557.396 917.879 557.367 917.917 557.33C917.954 557.294 917.984 557.25 918.004 557.202C918.024 557.154 918.033 557.102 918.032 557.05V551.95C918.033 551.898 918.024 551.846 918.004 551.798C917.984 551.75 917.954 551.706 917.917 551.67C917.879 551.633 917.834 551.604 917.784 551.585C917.735 551.566 917.681 551.556 917.628 551.558Z" fill="black"/>
<path d="M911.563 545.673H906.309C906.255 545.671 906.202 545.681 906.152 545.7C906.103 545.719 906.058 545.748 906.02 545.785C905.982 545.821 905.952 545.865 905.933 545.913C905.913 545.961 905.903 546.013 905.904 546.065V551.165C905.903 551.217 905.913 551.269 905.933 551.317C905.952 551.365 905.982 551.409 906.02 551.445C906.058 551.482 906.103 551.511 906.152 551.53C906.202 551.55 906.255 551.559 906.309 551.558H911.563C911.617 551.559 911.67 551.55 911.72 551.53C911.769 551.511 911.814 551.482 911.852 551.445C911.89 551.409 911.92 551.365 911.94 551.317C911.959 551.269 911.969 551.217 911.968 551.165V546.065C911.969 546.013 911.959 545.961 911.94 545.913C911.92 545.865 911.89 545.821 911.852 545.785C911.814 545.748 911.769 545.719 911.72 545.7C911.67 545.681 911.617 545.671 911.563 545.673Z" fill="black"/>
<path d="M923.69 545.673H918.436C918.382 545.671 918.329 545.681 918.279 545.7C918.23 545.719 918.185 545.748 918.147 545.785C918.109 545.821 918.079 545.865 918.059 545.913C918.04 545.961 918.03 546.013 918.031 546.065V551.165C918.03 551.217 918.04 551.269 918.059 551.317C918.079 551.365 918.109 551.409 918.147 551.445C918.185 551.482 918.23 551.511 918.279 551.53C918.329 551.55 918.382 551.559 918.436 551.558H923.69C923.744 551.559 923.797 551.55 923.847 551.53C923.896 551.511 923.941 551.482 923.979 551.445C924.017 551.409 924.047 551.365 924.067 551.317C924.086 551.269 924.096 551.217 924.095 551.165V546.065C924.096 546.013 924.086 545.961 924.067 545.913C924.047 545.865 924.017 545.821 923.979 545.785C923.941 545.748 923.896 545.719 923.847 545.7C923.797 545.681 923.744 545.671 923.69 545.673Z" fill="black"/>
<path d="M911.563 557.442H906.309C906.255 557.441 906.202 557.451 906.152 557.47C906.103 557.489 906.058 557.518 906.02 557.555C905.982 557.591 905.952 557.635 905.933 557.683C905.913 557.731 905.903 557.783 905.904 557.835V562.935C905.903 562.987 905.913 563.039 905.933 563.087C905.952 563.135 905.982 563.179 906.02 563.215C906.058 563.252 906.103 563.281 906.152 563.3C906.202 563.319 906.255 563.329 906.309 563.327H911.563C911.617 563.329 911.67 563.319 911.72 563.3C911.769 563.281 911.814 563.252 911.852 563.215C911.89 563.179 911.92 563.135 911.94 563.087C911.959 563.039 911.969 562.987 911.968 562.935V557.835C911.969 557.783 911.959 557.731 911.94 557.683C911.92 557.635 911.89 557.591 911.852 557.555C911.814 557.518 911.769 557.489 911.72 557.47C911.67 557.451 911.617 557.441 911.563 557.442Z" fill="black"/>
<path d="M923.69 557.442H918.436C918.382 557.441 918.329 557.451 918.279 557.47C918.23 557.489 918.185 557.518 918.147 557.555C918.109 557.591 918.079 557.635 918.059 557.683C918.04 557.731 918.03 557.783 918.031 557.835V562.935C918.03 562.987 918.04 563.039 918.059 563.087C918.079 563.135 918.109 563.179 918.147 563.215C918.185 563.252 918.23 563.281 918.279 563.3C918.329 563.319 918.382 563.329 918.436 563.327H923.69C923.744 563.329 923.797 563.319 923.847 563.3C923.896 563.281 923.941 563.252 923.979 563.215C924.017 563.179 924.047 563.135 924.067 563.087C924.086 563.039 924.096 562.987 924.095 562.935V557.835C924.096 557.783 924.086 557.731 924.067 557.683C924.047 557.635 924.017 557.591 923.979 557.555C923.941 557.518 923.896 557.489 923.847 557.47C923.797 557.451 923.744 557.441 923.69 557.442Z" fill="black"/>
<path d="M917.628 551.558H912.373C912.32 551.556 912.266 551.566 912.217 551.585C912.167 551.604 912.122 551.633 912.084 551.67C912.047 551.706 912.017 551.75 911.997 551.798C911.977 551.846 911.968 551.898 911.969 551.95V557.05C911.968 557.102 911.977 557.154 911.997 557.202C912.017 557.25 912.047 557.294 912.084 557.33C912.122 557.367 912.167 557.396 912.217 557.415C912.266 557.434 912.32 557.444 912.373 557.442H917.628C917.681 557.444 917.735 557.434 917.784 557.415C917.834 557.396 917.879 557.367 917.917 557.33C917.954 557.294 917.984 557.25 918.004 557.202C918.024 557.154 918.033 557.102 918.032 557.05V551.95C918.033 551.898 918.024 551.846 918.004 551.798C917.984 551.75 917.954 551.706 917.917 551.67C917.879 551.633 917.834 551.604 917.784 551.585C917.735 551.566 917.681 551.556 917.628 551.558Z" fill="black"/>
<path d="M911.563 545.673H906.309C906.255 545.671 906.202 545.681 906.152 545.7C906.103 545.719 906.058 545.748 906.02 545.785C905.982 545.821 905.952 545.865 905.933 545.913C905.913 545.961 905.903 546.013 905.904 546.065V551.165C905.903 551.217 905.913 551.269 905.933 551.317C905.952 551.365 905.982 551.409 906.02 551.445C906.058 551.482 906.103 551.511 906.152 551.53C906.202 551.55 906.255 551.559 906.309 551.558H911.563C911.617 551.559 911.67 551.55 911.72 551.53C911.769 551.511 911.814 551.482 911.852 551.445C911.89 551.409 911.92 551.365 911.94 551.317C911.959 551.269 911.969 551.217 911.968 551.165V546.065C911.969 546.013 911.959 545.961 911.94 545.913C911.92 545.865 911.89 545.821 911.852 545.785C911.814 545.748 911.769 545.719 911.72 545.7C911.67 545.681 911.617 545.671 911.563 545.673Z" fill="black"/>
<path d="M923.69 545.673H918.436C918.382 545.671 918.329 545.681 918.279 545.7C918.23 545.719 918.185 545.748 918.147 545.785C918.109 545.821 918.079 545.865 918.059 545.913C918.04 545.961 918.03 546.013 918.031 546.065V551.165C918.03 551.217 918.04 551.269 918.059 551.317C918.079 551.365 918.109 551.409 918.147 551.445C918.185 551.482 918.23 551.511 918.279 551.53C918.329 551.55 918.382 551.559 918.436 551.558H923.69C923.744 551.559 923.797 551.55 923.847 551.53C923.896 551.511 923.941 551.482 923.979 551.445C924.017 551.409 924.047 551.365 924.067 551.317C924.086 551.269 924.096 551.217 924.095 551.165V546.065C924.096 546.013 924.086 545.961 924.067 545.913C924.047 545.865 924.017 545.821 923.979 545.785C923.941 545.748 923.896 545.719 923.847 545.7C923.797 545.681 923.744 545.671 923.69 545.673Z" fill="black"/>
<path d="M911.563 557.442H906.309C906.255 557.441 906.202 557.451 906.152 557.47C906.103 557.489 906.058 557.518 906.02 557.555C905.982 557.591 905.952 557.635 905.933 557.683C905.913 557.731 905.903 557.783 905.904 557.835V562.935C905.903 562.987 905.913 563.039 905.933 563.087C905.952 563.135 905.982 563.179 906.02 563.215C906.058 563.252 906.103 563.281 906.152 563.3C906.202 563.319 906.255 563.329 906.309 563.327H911.563C911.617 563.329 911.67 563.319 911.72 563.3C911.769 563.281 911.814 563.252 911.852 563.215C911.89 563.179 911.92 563.135 911.94 563.087C911.959 563.039 911.969 562.987 911.968 562.935V557.835C911.969 557.783 911.959 557.731 911.94 557.683C911.92 557.635 911.89 557.591 911.852 557.555C911.814 557.518 911.769 557.489 911.72 557.47C911.67 557.451 911.617 557.441 911.563 557.442Z" fill="black"/>
<path d="M923.69 557.442H918.436C918.382 557.441 918.329 557.451 918.279 557.47C918.23 557.489 918.185 557.518 918.147 557.555C918.109 557.591 918.079 557.635 918.059 557.683C918.04 557.731 918.03 557.783 918.031 557.835V562.935C918.03 562.987 918.04 563.039 918.059 563.087C918.079 563.135 918.109 563.179 918.147 563.215C918.185 563.252 918.23 563.281 918.279 563.3C918.329 563.319 918.382 563.329 918.436 563.327H923.69C923.744 563.329 923.797 563.319 923.847 563.3C923.896 563.281 923.941 563.252 923.979 563.215C924.017 563.179 924.047 563.135 924.067 563.087C924.086 563.039 924.096 562.987 924.095 562.935V557.835C924.096 557.783 924.086 557.731 924.067 557.683C924.047 557.635 924.017 557.591 923.979 557.555C923.941 557.518 923.896 557.489 923.847 557.47C923.797 557.451 923.744 557.441 923.69 557.442Z" fill="black"/>
</g>
<line x1="202.157" y1="177.525" x2="531.157" y2="286.525" stroke="#363636"/>
<line x1="382.319" y1="106.615" x2="556.319" y2="250.615" stroke="#363636"/>
<line x1="556.321" y1="377.383" x2="377.321" y2="527.383" stroke="#363636"/>
<line x1="686.314" y1="366.611" x2="888.314" y2="529.611" stroke="#363636"/>
<line x1="696.153" y1="346.524" x2="1067.15" y2="465.524" stroke="#363636"/>
<line x1="540.153" y1="353.476" x2="211.153" y2="459.476" stroke="#363636"/>
<line x1="878.3" y1="120.4" x2="686.3" y2="264.4" stroke="#363636"/>
<line x1="616.5" y1="155" x2="616.5" y2="229" stroke="#363636"/>
<line x1="616.5" y1="393" x2="616.5" y2="464" stroke="#363636"/>
<line x1="701" y1="314.5" x2="793" y2="314.5" stroke="#363636"/>
<line x1="695.859" y1="286.52" x2="1051.86" y2="181.52" stroke="#363636"/>
<line x1="439" y1="314.5" x2="531" y2="314.5" stroke="#363636"/>
<rect x="532.5" y="230.5" width="167" height="167" rx="83.5" fill="#313036" fill-opacity="0.3"/>
<rect x="532.5" y="230.5" width="167" height="167" rx="83.5" fill="url(#paint0_linear_4162_59)"/>
<rect x="532.5" y="230.5" width="167" height="167" rx="83.5" stroke="url(#paint1_linear_4162_59)" stroke-width="3"/>
<path d="M599.244 368.895C601.496 358.963 603.749 349.031 606.004 339.099C606.197 338.237 606.416 337.375 606.63 336.518C607.502 333.023 609.092 329.378 604.639 326.829H617.313C616.184 331.325 615.14 335.47 614.102 339.599L614.53 339.801L629.596 322.243H585.254L630.939 259.745L631.581 260.064C630.313 265.661 629.029 271.238 627.787 276.856C625.908 285.37 624.174 293.883 622.119 302.306C621.504 304.844 621.434 306.754 623.976 308.052C624.452 308.297 624.972 308.456 625.469 308.659L624.859 309.404H611.95C612.946 305.051 613.871 300.981 614.797 296.91L614.385 296.671L601.845 313.719H646.979L647.349 314.442L599.972 369.353L599.244 368.895Z" fill="url(#paint2_linear_4162_59)"/>
<defs>
<linearGradient id="paint0_linear_4162_59" x1="539.368" y1="238.436" x2="616" y2="317.4" gradientUnits="userSpaceOnUse">
<stop stop-color="#B1B1B1" stop-opacity="0.32"/>
<stop offset="1" stop-color="#363567" stop-opacity="0.2"/>
</linearGradient>
<linearGradient id="paint1_linear_4162_59" x1="495.187" y1="216.752" x2="541.244" y2="433.672" gradientUnits="userSpaceOnUse">
<stop stop-color="white" stop-opacity="0.2"/>
<stop offset="1" stop-color="white" stop-opacity="0"/>
</linearGradient>
<linearGradient id="paint2_linear_4162_59" x1="623.554" y1="272.952" x2="602.423" y2="346.911" gradientUnits="userSpaceOnUse">
<stop stop-color="#C398FF"/>
<stop offset="1" stop-color="#8700FF"/>
</linearGradient>
<clipPath id="clip0_4162_59">
<rect width="55" height="55" fill="white" transform="translate(350 287)"/>
</clipPath>
<clipPath id="clip1_4162_59">
<rect width="34" height="33" fill="white" transform="translate(898 538)"/>
</clipPath>
</defs>
</svg>
