<svg width="52" height="51" viewBox="0 0 52 51" fill="none" xmlns="http://www.w3.org/2000/svg">
<path d="M45.1918 0H6.33461C2.98318 0 0.263184 2.72 0.263184 6.07143V44.9286C0.263184 48.28 2.98318 51 6.33461 51H45.1918C48.5432 51 51.2632 48.28 51.2632 44.9286V6.07143C51.2632 2.72 48.5432 0 45.1918 0ZM16.0489 19.4286V42.5H8.76318V19.4286H16.0489ZM8.76318 12.7136C8.76318 11.0136 10.2203 9.71429 12.406 9.71429C14.5918 9.71429 15.9639 11.0136 16.0489 12.7136C16.0489 14.4136 14.6889 15.7857 12.406 15.7857C10.2203 15.7857 8.76318 14.4136 8.76318 12.7136ZM42.7632 42.5H35.4775C35.4775 42.5 35.4775 31.2557 35.4775 30.3571C35.4775 27.9286 34.2632 25.5 31.2275 25.4514H31.1303C28.1918 25.4514 26.9775 27.9529 26.9775 30.3571C26.9775 31.4621 26.9775 42.5 26.9775 42.5H19.6918V19.4286H26.9775V22.5371C26.9775 22.5371 29.321 19.4286 34.0325 19.4286C38.8532 19.4286 42.7632 22.7436 42.7632 29.4586V42.5Z" fill="white"/>
</svg>
