<svg width="46" height="81" viewBox="0 0 46 81" fill="none" xmlns="http://www.w3.org/2000/svg">
<path d="M10.3265 80.5657C11.9883 73.2347 13.6514 65.9036 15.3159 58.5725C15.4581 57.9363 15.6201 57.3001 15.7781 56.6678C16.422 54.0875 17.5953 51.3973 14.3085 49.5161H23.6632C22.8296 52.8347 22.0593 55.8941 21.2929 58.9417L21.6089 59.091L32.7294 46.1307H0L33.721 0L34.195 0.235641C33.2588 4.36722 32.3107 8.48308 31.3942 12.6304C30.0076 18.9141 28.7276 25.1979 27.2107 31.4149C26.7564 33.2882 26.705 34.6982 28.5815 35.6564C28.9331 35.8371 29.3162 35.9549 29.6836 36.1042L29.2333 36.654H19.7048C20.4396 33.4414 21.123 30.437 21.8065 27.4326L21.5023 27.2558L12.2464 39.8391H45.5605L45.8331 40.3732L10.8637 80.9035L10.3265 80.5657Z" fill="url(#paint0_linear_80_407)"/>
<defs>
<linearGradient id="paint0_linear_80_407" x1="28.2702" y1="9.74835" x2="12.6729" y2="64.3391" gradientUnits="userSpaceOnUse">
<stop stop-color="#C398FF"/>
<stop offset="1" stop-color="#8700FF"/>
</linearGradient>
</defs>
</svg>
