<svg width="285" height="81" viewBox="0 0 285 81" fill="none" xmlns="http://www.w3.org/2000/svg">
<path d="M10.3265 80.5657C11.9883 73.2347 13.6514 65.9036 15.3159 58.5725C15.4581 57.9363 15.6201 57.3001 15.7781 56.6678C16.422 54.0875 17.5953 51.3973 14.3085 49.5161H23.6632C22.8296 52.8347 22.0593 55.8941 21.2929 58.9417L21.6089 59.091L32.7294 46.1307H0L33.721 0L34.195 0.235641C33.2588 4.36722 32.3107 8.48308 31.3942 12.6304C30.0076 18.9141 28.7276 25.1979 27.2107 31.4149C26.7564 33.2882 26.705 34.6982 28.5815 35.6564C28.9331 35.8371 29.3162 35.9549 29.6836 36.1042L29.2333 36.654H19.7048C20.4396 33.4414 21.123 30.437 21.8065 27.4326L21.5023 27.2558L12.2464 39.8391H45.5605L45.8331 40.3732L10.8637 80.9035L10.3265 80.5657Z" fill="url(#paint0_linear_80_364)"/>
<path d="M93.665 57.3158C91.073 57.3158 88.785 56.8518 86.801 55.9238C84.817 54.9958 83.265 53.6678 82.145 51.9398C81.025 50.2118 80.465 48.1318 80.465 45.6998V44.3558H86.705V45.6998C86.705 47.7158 87.329 49.2358 88.577 50.2598C89.825 51.2518 91.521 51.7478 93.665 51.7478C95.841 51.7478 97.457 51.3158 98.513 50.4518C99.601 49.5878 100.145 48.4838 100.145 47.1398C100.145 46.2118 99.873 45.4598 99.329 44.8838C98.817 44.3078 98.049 43.8438 97.025 43.4918C96.033 43.1078 94.817 42.7558 93.377 42.4358L92.273 42.1958C89.969 41.6838 87.985 41.0438 86.321 40.2758C84.689 39.4758 83.425 38.4358 82.529 37.1558C81.665 35.8758 81.233 34.2118 81.233 32.1638C81.233 30.1158 81.713 28.3718 82.673 26.9318C83.665 25.4598 85.041 24.3398 86.801 23.5718C88.593 22.7718 90.689 22.3718 93.089 22.3718C95.489 22.3718 97.617 22.7878 99.473 23.6198C101.361 24.4198 102.833 25.6358 103.889 27.2678C104.977 28.8678 105.521 30.8838 105.521 33.3158V34.7558H99.281V33.3158C99.281 32.0358 99.025 31.0118 98.513 30.2438C98.033 29.4438 97.329 28.8678 96.401 28.5158C95.473 28.1318 94.369 27.9398 93.089 27.9398C91.169 27.9398 89.745 28.3078 88.817 29.0438C87.921 29.7478 87.473 30.7238 87.473 31.9718C87.473 32.8038 87.681 33.5078 88.097 34.0838C88.545 34.6598 89.201 35.1398 90.065 35.5238C90.929 35.9078 92.033 36.2438 93.377 36.5318L94.481 36.7718C96.881 37.2838 98.961 37.9398 100.721 38.7398C102.513 39.5398 103.905 40.5958 104.897 41.9078C105.889 43.2198 106.385 44.8998 106.385 46.9478C106.385 48.9958 105.857 50.8038 104.801 52.3718C103.777 53.9078 102.305 55.1238 100.385 56.0198C98.497 56.8838 96.257 57.3158 93.665 57.3158ZM120.422 56.6438C118.854 56.6438 117.574 56.1638 116.582 55.2038C115.622 54.2118 115.142 52.8998 115.142 51.2678V37.8278H109.19V32.8358H115.142V25.4438H121.19V32.8358H127.718V37.8278H121.19V50.2118C121.19 51.1718 121.638 51.6518 122.534 51.6518H127.142V56.6438H120.422ZM143.677 57.3158C141.309 57.3158 139.181 56.8358 137.293 55.8758C135.405 54.9158 133.917 53.5238 132.829 51.6998C131.741 49.8758 131.197 47.6838 131.197 45.1238V44.3558C131.197 41.7958 131.741 39.6038 132.829 37.7798C133.917 35.9558 135.405 34.5638 137.293 33.6038C139.181 32.6438 141.309 32.1638 143.677 32.1638C146.045 32.1638 148.173 32.6438 150.061 33.6038C151.949 34.5638 153.437 35.9558 154.525 37.7798C155.613 39.6038 156.157 41.7958 156.157 44.3558V45.1238C156.157 47.6838 155.613 49.8758 154.525 51.6998C153.437 53.5238 151.949 54.9158 150.061 55.8758C148.173 56.8358 146.045 57.3158 143.677 57.3158ZM143.677 51.9398C145.533 51.9398 147.069 51.3478 148.285 50.1638C149.501 48.9478 150.109 47.2198 150.109 44.9798V44.4998C150.109 42.2598 149.501 40.5478 148.285 39.3638C147.101 38.1478 145.565 37.5398 143.677 37.5398C141.821 37.5398 140.285 38.1478 139.069 39.3638C137.853 40.5478 137.245 42.2598 137.245 44.4998V44.9798C137.245 47.2198 137.853 48.9478 139.069 50.1638C140.285 51.3478 141.821 51.9398 143.677 51.9398ZM161.74 56.6438V32.8358H167.692V35.5238H168.556C168.908 34.5638 169.484 33.8598 170.284 33.4118C171.116 32.9638 172.076 32.7398 173.164 32.7398H176.044V38.1158H173.068C171.532 38.1158 170.268 38.5318 169.276 39.3638C168.284 40.1638 167.788 41.4118 167.788 43.1078V56.6438H161.74ZM180.771 56.6438V32.8358H186.723V35.4278H187.587C188.003 34.6278 188.691 33.9398 189.651 33.3638C190.611 32.7558 191.875 32.4518 193.443 32.4518C195.139 32.4518 196.499 32.7878 197.523 33.4598C198.547 34.0998 199.331 34.9478 199.875 36.0038H200.739C201.283 34.9798 202.051 34.1318 203.043 33.4598C204.035 32.7878 205.443 32.4518 207.267 32.4518C208.739 32.4518 210.067 32.7718 211.251 33.4118C212.467 34.0198 213.427 34.9638 214.131 36.2438C214.867 37.4918 215.235 39.0758 215.235 40.9958V56.6438H209.187V41.4278C209.187 40.1158 208.851 39.1398 208.179 38.4998C207.507 37.8278 206.563 37.4918 205.347 37.4918C203.971 37.4918 202.899 37.9398 202.131 38.8358C201.395 39.6998 201.027 40.9478 201.027 42.5798V56.6438H194.979V41.4278C194.979 40.1158 194.643 39.1398 193.971 38.4998C193.299 37.8278 192.355 37.4918 191.139 37.4918C189.763 37.4918 188.691 37.9398 187.923 38.8358C187.187 39.6998 186.819 40.9478 186.819 42.5798V56.6438H180.771Z" fill="white"/>
<path d="M236.664 57.3158C234.52 57.3158 232.872 56.9478 231.72 56.2118C230.568 55.4758 229.72 54.6598 229.176 53.7638H228.312V56.6438H222.36V23.0438H228.408V35.5718H229.272C229.624 34.9958 230.088 34.4518 230.664 33.9398C231.272 33.4278 232.056 33.0118 233.016 32.6918C234.008 32.3398 235.224 32.1638 236.664 32.1638C238.584 32.1638 240.36 32.6438 241.992 33.6038C243.624 34.5318 244.936 35.9078 245.928 37.7318C246.92 39.5558 247.416 41.7638 247.416 44.3558V45.1238C247.416 47.7158 246.92 49.9238 245.928 51.7478C244.936 53.5718 243.624 54.9638 241.992 55.9238C240.36 56.8518 238.584 57.3158 236.664 57.3158ZM234.84 52.0358C236.696 52.0358 238.248 51.4438 239.496 50.2598C240.744 49.0438 241.368 47.2838 241.368 44.9798V44.4998C241.368 42.1958 240.744 40.4518 239.496 39.2678C238.28 38.0518 236.728 37.4438 234.84 37.4438C232.984 37.4438 231.432 38.0518 230.184 39.2678C228.936 40.4518 228.312 42.1958 228.312 44.4998V44.9798C228.312 47.2838 228.936 49.0438 230.184 50.2598C231.432 51.4438 232.984 52.0358 234.84 52.0358ZM252.969 56.6438V32.8358H259.017V56.6438H252.969ZM255.993 30.0518C254.905 30.0518 253.977 29.6998 253.209 28.9958C252.473 28.2918 252.105 27.3638 252.105 26.2118C252.105 25.0598 252.473 24.1318 253.209 23.4278C253.977 22.7238 254.905 22.3718 255.993 22.3718C257.113 22.3718 258.041 22.7238 258.777 23.4278C259.513 24.1318 259.881 25.0598 259.881 26.2118C259.881 27.3638 259.513 28.2918 258.777 28.9958C258.041 29.6998 257.113 30.0518 255.993 30.0518ZM274.839 56.6438C273.271 56.6438 271.991 56.1638 270.999 55.2038C270.039 54.2118 269.559 52.8998 269.559 51.2678V37.8278H263.607V32.8358H269.559V25.4438H275.607V32.8358H282.135V37.8278H275.607V50.2118C275.607 51.1718 276.055 51.6518 276.951 51.6518H281.559V56.6438H274.839Z" fill="url(#paint1_linear_80_364)"/>
<defs>
<linearGradient id="paint0_linear_80_364" x1="28.2702" y1="9.74835" x2="12.6729" y2="64.3391" gradientUnits="userSpaceOnUse">
<stop stop-color="#C398FF"/>
<stop offset="1" stop-color="#8700FF"/>
</linearGradient>
<linearGradient id="paint1_linear_80_364" x1="252" y1="66.9015" x2="256.524" y2="25.5568" gradientUnits="userSpaceOnUse">
<stop stop-color="#805FD8"/>
<stop offset="0.882222" stop-color="#CBB7FF"/>
</linearGradient>
</defs>
</svg>
