<svg width="19" height="17" viewBox="0 0 19 17" fill="none" xmlns="http://www.w3.org/2000/svg">
<path fill-rule="evenodd" clip-rule="evenodd" d="M5.39453 15.1901L7.8648 15.8334V14.9922L8.06645 14.7943H9.47801V15.7839V16.4766H7.96563L6.10031 15.6849L5.39453 15.1901Z" fill="#CDBDB2"/>
<path fill-rule="evenodd" clip-rule="evenodd" d="M13.46 15.1901L11.0401 15.8334V14.9922L10.8385 14.7943H9.42694V15.7839V16.4766H10.9393L12.8046 15.6849L13.46 15.1901Z" fill="#CDBDB2"/>
<path fill-rule="evenodd" clip-rule="evenodd" d="M8.06591 13.3594L7.86426 14.9922L8.11628 14.7943H10.7377L11.0402 14.9922L10.8386 13.3594L10.4353 13.112L8.41875 13.1615L8.06591 13.3594Z" fill="#393939"/>
<path fill-rule="evenodd" clip-rule="evenodd" d="M6.70508 2.32553L7.91498 5.09636L8.46957 13.1615H10.4356L11.0406 5.09636L12.1497 2.32553H6.70508Z" fill="#F89C35"/>
<path fill-rule="evenodd" clip-rule="evenodd" d="M1.41156 8.4115L0 12.4193L3.52889 12.2214H5.79742V10.4896L5.69659 6.92712L5.19247 7.32296L1.41156 8.4115Z" fill="#F89D35"/>
<path fill-rule="evenodd" clip-rule="evenodd" d="M4.08301 8.85678L8.21685 8.95574L7.76318 11.0339L5.79704 10.5391L4.08301 8.85678Z" fill="#D87C30"/>
<path fill-rule="evenodd" clip-rule="evenodd" d="M4.08301 8.90628L5.79704 10.4896V12.0729L4.08301 8.90628Z" fill="#EA8D3A"/>
<path fill-rule="evenodd" clip-rule="evenodd" d="M5.79785 10.5391L7.81436 11.0339L8.46977 13.1615L8.01601 13.4089L5.79785 12.1224V10.5391Z" fill="#F89D35"/>
<path fill-rule="evenodd" clip-rule="evenodd" d="M5.79783 12.1224L5.39453 15.1901L8.06645 13.3594L5.79783 12.1224Z" fill="#EB8F35"/>
<path fill-rule="evenodd" clip-rule="evenodd" d="M8.21702 8.95572L8.46913 13.1615L7.71289 11.0091L8.21702 8.95572Z" fill="#EA8E3A"/>
<path fill-rule="evenodd" clip-rule="evenodd" d="M3.47852 12.1719L5.7975 12.1224L5.3942 15.1901L3.47852 12.1719Z" fill="#D87C30"/>
<path fill-rule="evenodd" clip-rule="evenodd" d="M1.10908 16.5261L5.39412 15.1901L3.47843 12.1719L0 12.4193L1.10908 16.5261Z" fill="#EB8F35"/>
<path fill-rule="evenodd" clip-rule="evenodd" d="M7.91438 5.09634L5.74667 6.87759L4.08301 8.85676L8.21685 9.00524L7.91438 5.09634Z" fill="#E8821E"/>
<path fill-rule="evenodd" clip-rule="evenodd" d="M5.39453 15.1901L8.06645 13.3594L7.8648 14.9427V15.8334L6.04994 15.487L5.39453 15.1901Z" fill="#DFCEC3"/>
<path fill-rule="evenodd" clip-rule="evenodd" d="M13.46 15.1901L10.8385 13.3594L11.0401 14.9427V15.8334L12.855 15.487L13.46 15.1901Z" fill="#DFCEC3"/>
<path fill-rule="evenodd" clip-rule="evenodd" d="M7.1085 9.84634L7.66309 10.9844L5.69694 10.4896L7.1085 9.84634Z" fill="#393939"/>
<path fill-rule="evenodd" clip-rule="evenodd" d="M1.05859 3.05176e-05L7.91473 5.09634L6.75528 2.32551L1.05859 3.05176e-05Z" fill="#E88F35"/>
<path fill-rule="evenodd" clip-rule="evenodd" d="M1.0588 0L0.151367 2.72135L0.655495 5.6901L0.302605 5.88802L0.806733 6.33333L0.403431 6.67969L0.957971 7.17448L0.605082 7.47135L1.41169 8.46094L5.19264 7.32292C7.04111 5.87153 7.94854 5.12934 7.91493 5.09635C7.88132 5.06337 5.59594 3.36458 1.0588 0Z" fill="#8E5A30"/>
<path fill-rule="evenodd" clip-rule="evenodd" d="M17.4429 8.4115L18.8545 12.4193L15.3256 12.2214H13.0571V10.4896L13.1579 6.92712L13.662 7.32296L17.4429 8.4115Z" fill="#F89D35"/>
<path fill-rule="evenodd" clip-rule="evenodd" d="M14.7715 8.85678L10.6376 8.95574L11.0913 11.0339L13.0575 10.5391L14.7715 8.85678Z" fill="#D87C30"/>
<path fill-rule="evenodd" clip-rule="evenodd" d="M14.7715 8.90628L13.0575 10.4896V12.0729L14.7715 8.90628Z" fill="#EA8D3A"/>
<path fill-rule="evenodd" clip-rule="evenodd" d="M13.0566 10.5391L11.0401 11.0339L10.3847 13.1615L10.8385 13.4089L13.0566 12.1224V10.5391Z" fill="#F89D35"/>
<path fill-rule="evenodd" clip-rule="evenodd" d="M13.0567 12.1224L13.46 15.1901L10.8385 13.4089L13.0567 12.1224Z" fill="#EB8F35"/>
<path fill-rule="evenodd" clip-rule="evenodd" d="M10.6375 8.95572L10.3854 13.1615L11.1416 11.0091L10.6375 8.95572Z" fill="#EA8E3A"/>
<path fill-rule="evenodd" clip-rule="evenodd" d="M15.376 12.1719L13.057 12.1224L13.4603 15.1901L15.376 12.1719Z" fill="#D87C30"/>
<path fill-rule="evenodd" clip-rule="evenodd" d="M17.7454 16.5261L13.4604 15.1901L15.3761 12.1719L18.8545 12.4193L17.7454 16.5261Z" fill="#EB8F35"/>
<path fill-rule="evenodd" clip-rule="evenodd" d="M10.9401 5.09634L13.1078 6.87759L14.7715 8.85676L10.6376 9.00524L10.9401 5.09634Z" fill="#E8821E"/>
<path fill-rule="evenodd" clip-rule="evenodd" d="M11.746 9.84634L11.1914 10.9844L13.1575 10.4896L11.746 9.84634Z" fill="#393939"/>
<path fill-rule="evenodd" clip-rule="evenodd" d="M17.7959 3.05176e-05L10.9398 5.09634L12.0992 2.32551L17.7959 3.05176e-05Z" fill="#E88F35"/>
<path fill-rule="evenodd" clip-rule="evenodd" d="M17.7957 0L18.7031 2.72135L18.199 5.6901L18.5519 5.88802L18.0478 6.33333L18.4511 6.67969L17.8965 7.17448L18.2494 7.47135L17.4428 8.46094L13.6619 7.32292C11.8134 5.87153 10.906 5.12934 10.9396 5.09635C10.9732 5.06337 13.2585 3.36458 17.7957 0Z" fill="#8E5A30"/>
</svg>
