<svg width="63" height="17" viewBox="0 0 63 17" fill="none" xmlns="http://www.w3.org/2000/svg">
<path d="M18.4465 5.54025e-06H0.676709C0.566435 5.54025e-06 0.461282 0.0396344 0.383697 0.110812C0.345933 0.144861 0.315746 0.186138 0.295013 0.232074C0.27428 0.27801 0.263446 0.327623 0.263184 0.377826L0.263184 16.6218C0.263184 16.7218 0.306505 16.818 0.38409 16.8888C0.461676 16.9596 0.566829 16.9996 0.676315 16.9996H18.4465C18.5563 16.9996 18.6611 16.9596 18.7391 16.8888C18.7769 16.8548 18.8072 16.8135 18.828 16.7676C18.8488 16.7216 18.8597 16.672 18.86 16.6218V0.377826C18.86 0.277792 18.8167 0.181606 18.7391 0.110812C18.6594 0.0390548 18.5548 -0.000538855 18.4465 5.54025e-06ZM12.6611 10.9553C12.6611 11.0553 12.6177 11.1515 12.5398 11.2223C12.4603 11.2939 12.356 11.3335 12.2479 11.3331H6.87525C6.76577 11.3331 6.66061 11.2931 6.58303 11.2223C6.54519 11.1883 6.51493 11.147 6.49413 11.1011C6.47333 11.0551 6.46243 11.0055 6.46212 10.9553V6.04436C6.46212 5.94433 6.50544 5.84814 6.58303 5.77735C6.66061 5.70617 6.76577 5.66654 6.87525 5.66654H12.2479C12.3574 5.66654 12.4626 5.70617 12.5398 5.77735C12.5777 5.81132 12.608 5.85256 12.6289 5.8985C12.6498 5.94444 12.6607 5.9941 12.6611 6.04436V10.9553ZM55.648 5.66731H50.2753C50.0469 5.66731 49.8618 5.8366 49.8618 6.04513V10.956C49.8618 11.1646 50.0469 11.3338 50.2753 11.3338H55.6476C55.876 11.3338 56.0611 11.1646 56.0611 10.956V6.04513C56.0611 5.83621 55.8764 5.66731 55.648 5.66731ZM49.4502 5.54025e-06H44.0779C43.8495 5.54025e-06 43.6644 0.169294 43.6644 0.378211V5.28911C43.6644 5.49764 43.8495 5.66693 44.0779 5.66693H49.4498C49.6782 5.66693 49.8633 5.49764 49.8633 5.28911V0.378211C49.8633 0.169294 49.6786 5.54025e-06 49.4502 5.54025e-06ZM61.8501 5.54025e-06H56.4774C56.2493 5.54025e-06 56.0642 0.169294 56.0642 0.378211V5.28911C56.0642 5.49764 56.2493 5.66693 56.4778 5.66693H61.8497C62.0781 5.66693 62.2632 5.49764 62.2632 5.28911V0.378211C62.2632 0.169294 62.0785 5.54025e-06 61.8501 5.54025e-06ZM49.4502 11.3335H44.0779C43.8495 11.3335 43.6644 11.5028 43.6644 11.7113V16.6226C43.6644 16.8311 43.8495 17 44.0779 17H49.4498C49.6782 17 49.8633 16.8307 49.8633 16.6226V11.7113C49.8633 11.5028 49.6786 11.3335 49.4502 11.3335ZM61.8501 11.3335H56.4774C56.2493 11.3335 56.0642 11.5028 56.0642 11.7113V16.6226C56.0642 16.8311 56.2493 17 56.4778 17H61.8497C62.0781 17 62.2632 16.8307 62.2632 16.6226V11.7113C62.2632 11.5028 62.0785 11.3335 61.8501 11.3335ZM40.1443 5.54025e-06H34.7724C34.544 5.54025e-06 34.3589 0.169294 34.3589 0.378211V5.28911C34.3589 5.49764 34.544 5.66693 34.7724 5.66693H40.1443C40.3727 5.66693 40.5578 5.49764 40.5578 5.28911V0.378211C40.5578 0.169294 40.3727 5.54025e-06 40.1443 5.54025e-06ZM40.1443 11.3335H34.7724C34.544 11.3335 34.3589 11.5028 34.3589 11.7113V16.6226C34.3589 16.8311 34.544 17 34.7724 17H40.1443C40.3727 17 40.5578 16.8307 40.5578 16.6226V11.7113C40.5578 11.5028 40.3727 11.3335 40.1443 11.3335ZM34.3573 6.04013C34.3573 5.9401 34.3132 5.84391 34.236 5.77273C34.1564 5.70117 34.052 5.66172 33.9438 5.66231H28.158V0.377826C28.158 0.277792 28.1147 0.181606 28.0371 0.110812C27.9575 0.0391125 27.8531 -0.000479741 27.7449 5.54025e-06H22.3726C22.2627 5.54025e-06 22.1576 0.0396344 22.08 0.110812C22.0421 0.144828 22.0119 0.186089 21.9911 0.232027C21.9703 0.277965 21.9594 0.327595 21.9591 0.377826V16.6133C21.9591 16.7134 22.0024 16.8096 22.08 16.8803C22.1576 16.9511 22.2627 16.9911 22.3726 16.9911H27.7445C27.8544 16.9911 27.9595 16.9511 28.0371 16.8803C28.1147 16.8096 28.158 16.7134 28.158 16.6133V11.3288H33.9434C34.0533 11.3288 34.1584 11.2888 34.236 11.218C34.2739 11.184 34.3041 11.1427 34.3249 11.0968C34.3457 11.0509 34.3566 11.0013 34.3569 10.951L34.3573 6.04013Z" fill="white"/>
</svg>
