<svg width="37" height="37" viewBox="0 0 37 37" fill="none" xmlns="http://www.w3.org/2000/svg">
<path d="M24.0272 1.06861C25.1474 0.811396 26.3074 1.29194 26.9177 2.26587L29.5994 6.5466C29.8158 6.89215 30.108 7.18412 30.4534 7.40062L34.7343 10.0824C35.708 10.6926 36.1886 11.8527 35.9314 12.9729L34.8009 17.8961C34.7097 18.2935 34.7097 18.7064 34.8009 19.1038L35.9314 24.0271C36.1886 25.1474 35.708 26.3073 34.7343 26.9177L30.4534 29.5994C30.108 29.816 29.8158 30.108 29.5994 30.4533L26.9177 34.7342C26.3074 35.708 25.1474 36.1885 24.0272 35.9314L19.1038 34.8009C18.7064 34.7097 18.2936 34.7097 17.8961 34.8009L12.9728 35.9314C11.8527 36.1885 10.6926 35.708 10.0825 34.7342L7.4006 30.4533C7.18413 30.108 6.89213 29.816 6.54658 29.5994L2.26585 26.9177C1.29192 26.3073 0.811382 25.1474 1.06862 24.0271L2.1992 19.1038C2.29046 18.7066 2.29046 18.2935 2.1992 17.8961L1.06862 12.9729C0.811382 11.8527 1.29192 10.6926 2.26585 10.0824L6.54658 7.40062C6.89213 7.18412 7.18413 6.89215 7.4006 6.5466L10.0825 2.26587C10.6926 1.29194 11.8527 0.811396 12.9728 1.06861L17.8961 2.19919C18.2936 2.29047 18.7064 2.29047 19.1038 2.19919L24.0272 1.06861Z" stroke="white" stroke-width="2"/>
<path d="M11.7953 19.9467L17.285 25.2038L25.203 11.7961" stroke="white" stroke-width="2" stroke-linecap="round" stroke-linejoin="round"/>
</svg>
