<svg width="67" height="69" viewBox="0 0 67 69" fill="none" xmlns="http://www.w3.org/2000/svg">
<path fill-rule="evenodd" clip-rule="evenodd" d="M28.9878 21.9215C28.9878 19.3412 31.1349 18.343 34.6042 18.343C40.3459 18.467 45.9801 19.9249 51.0614 22.6014V7.02558C45.8218 4.96647 40.2335 3.94001 34.6042 4.00271C21.232 4.00271 12.2632 11.0071 12.2632 22.7031C12.2632 41.0023 37.3916 38.0302 37.3916 45.918C37.3916 49.003 34.7548 49.9598 31.0445 49.9598C25.5732 49.9598 18.5067 47.6959 12.9638 44.6824V60.4616C18.6706 62.9447 24.8229 64.2404 31.0464 64.2699C44.7896 64.2699 54.2632 57.4802 54.2632 45.5808C54.2632 25.8314 28.9878 29.359 28.9878 21.9252V21.9215Z" fill="white"/>
</svg>
