<svg width="113" height="113" viewBox="0 0 113 113" fill="none" xmlns="http://www.w3.org/2000/svg">
<rect width="113" height="113" rx="11" fill="#2D2D2D"/>
<path fill-rule="evenodd" clip-rule="evenodd" d="M67.1 44.9C67.1 39.0541 62.3459 34.3 56.5 34.3C50.6541 34.3 45.9 39.0541 45.9 44.9C45.9 50.7459 50.6541 55.5 56.5 55.5C62.3459 55.5 67.1 50.7459 67.1 44.9ZM83 82H69.75V76.7H77.1276C74.9387 66.6671 66.5302 60.8 56.5 60.8C46.4697 60.8 38.0613 66.6671 35.8724 76.7H43.25V82H30C30 69.9292 36.845 60.9271 46.5413 57.2834C42.9214 54.371 40.6 49.9085 40.6 44.9C40.6 36.1179 47.7179 29 56.5 29C65.2821 29 72.4 36.1179 72.4 44.9C72.4 49.9085 70.0786 54.371 66.4587 57.2834C76.155 60.9271 83 69.9292 83 82Z" fill="white"/>
<path fill-rule="evenodd" clip-rule="evenodd" d="M59.9007 75.5L65 80.5986L61.6005 84L56.5012 78.899L51.3995 84L48 80.5986L53.1017 75.5L48 70.4014L51.3995 67L56.5012 72.101L61.6005 67L65 70.4014L59.9007 75.5Z" fill="#FF5656"/>
</svg>
