<svg width="292" height="353" viewBox="0 0 292 353" fill="none" xmlns="http://www.w3.org/2000/svg">
<g clip-path="url(#clip0_4092_1872)">
<path fill-rule="evenodd" clip-rule="evenodd" d="M145.998 176.876L291.999 91.9584V268.083L145.998 353V176.876Z" fill="#7330B6"/>
<path fill-rule="evenodd" clip-rule="evenodd" d="M145.999 176.876L0 91.9584V268.083L145.999 353V176.876Z" fill="#BB7AFC"/>
<path fill-rule="evenodd" clip-rule="evenodd" d="M0 91.9584L145.999 7.73657L292 91.9584L145.999 176.876L0 91.9584Z" fill="#E2C0FD"/>
<path fill-rule="evenodd" clip-rule="evenodd" d="M131.839 185.722L14.1621 117.278V259.237L131.839 327.68V185.722Z" fill="#57329B"/>
<path fill-rule="evenodd" clip-rule="evenodd" d="M21.5308 125.897L17.7539 123.702L21.4949 121.544L131.839 185.722L128.246 187.965L21.5308 125.897Z" fill="#E2C0FD"/>
<path fill-rule="evenodd" clip-rule="evenodd" d="M128.246 187.965L17.7539 123.702V256.993L128.246 321.257V187.965Z" fill="#BB7AFC"/>
<path fill-rule="evenodd" clip-rule="evenodd" d="M72.9847 168.758C72.9847 168.758 72.9847 168.758 72.9946 168.758C75.1443 169.996 76.9051 173.17 76.9051 175.768V186.328C76.9051 188.918 75.1443 190.004 72.9946 188.764H72.9847C70.837 187.507 69.0742 184.367 69.0742 181.771V171.211C69.0802 168.609 70.843 167.493 72.9847 168.758Z" fill="#57329B"/>
<path fill-rule="evenodd" clip-rule="evenodd" d="M72.9847 256.258C72.9847 256.258 72.9847 256.258 72.9946 256.258C75.1443 257.497 76.9051 260.655 76.9051 263.253V273.799C76.9051 276.411 75.1443 277.491 72.9946 276.236H72.9847C70.839 274.993 69.0742 271.852 69.0742 269.242V258.696C69.0802 256.098 70.843 255.001 72.9847 256.258Z" fill="#57329B"/>
<path fill-rule="evenodd" clip-rule="evenodd" d="M117.55 248.406C117.55 250.996 115.789 252.112 113.629 250.858C110.705 249.165 107.789 247.471 104.881 245.776C102.734 244.532 100.969 241.364 100.969 238.766C100.969 236.176 102.734 235.086 104.881 236.33C107.794 238.016 110.71 239.711 113.629 241.412C115.789 242.663 117.55 245.808 117.55 248.406Z" fill="#57329B"/>
<path fill-rule="evenodd" clip-rule="evenodd" d="M45.0223 206.236C45.0223 208.826 43.2555 209.936 41.1098 208.691C38.1865 206.989 35.2791 205.288 32.3617 203.592C30.21 202.341 28.4492 199.195 28.4492 196.583C28.4492 194.002 30.21 192.895 32.3617 194.146C35.2791 195.841 38.1865 197.543 41.1098 199.243C43.2555 200.49 45.0223 203.64 45.0223 206.236Z" fill="#57329B"/>
<path fill-rule="evenodd" clip-rule="evenodd" d="M104.491 278.832C102.967 279.772 100.483 278.338 98.957 275.614C96.8938 271.932 94.8292 268.242 92.7633 264.542C91.2518 261.833 91.2498 258.824 92.7633 257.868C94.2888 256.927 96.7894 258.374 98.3069 261.085C100.372 264.777 102.432 268.467 104.489 272.157C106.022 274.879 106.02 277.876 104.491 278.832Z" fill="#57329B"/>
<path fill-rule="evenodd" clip-rule="evenodd" d="M53.218 187.152C51.6945 188.091 49.2039 186.64 47.6764 183.917C45.6118 180.236 43.5512 176.551 41.4946 172.863C39.9751 170.135 39.9711 167.127 41.4946 166.186C43.0201 165.232 45.5088 166.678 47.0283 169.406C49.0902 173.1 51.1508 176.785 53.2101 180.46C54.7395 183.182 54.7336 186.196 53.218 187.152Z" fill="#57329B"/>
<path fill-rule="evenodd" clip-rule="evenodd" d="M41.4927 242.207C39.9692 239.468 39.9732 236.479 41.4927 235.533C43.5566 234.249 45.6066 232.932 47.6744 231.645C49.196 230.701 51.6926 232.155 53.2161 234.879C54.7316 237.589 54.7336 240.603 53.2161 241.556C51.1515 242.849 49.0909 244.139 47.0343 245.425C45.5068 246.371 43.0182 244.917 41.4927 242.207Z" fill="#57329B"/>
<path fill-rule="evenodd" clip-rule="evenodd" d="M92.7702 210.155C91.2567 207.431 91.2507 204.427 92.7702 203.464C94.8241 202.165 96.894 200.894 98.9639 199.609C100.483 198.665 102.974 200.103 104.498 202.827C106.021 205.553 106.017 208.557 104.498 209.502C102.426 210.789 100.372 212.092 98.3158 213.373C96.7903 214.329 94.2957 212.865 92.7702 210.155Z" fill="#57329B"/>
<path d="M87.1802 252.493C96.8113 247.305 97.3673 229.66 88.4219 213.082C79.4766 196.503 64.4174 187.269 54.7863 192.457C45.1552 197.645 44.5993 215.29 53.5446 231.869C62.4899 248.447 77.5491 257.681 87.1802 252.493Z" fill="#57329B"/>
<path fill-rule="evenodd" clip-rule="evenodd" d="M43.8242 212.55L64.4912 250.494L66.7226 252.532C71.3789 250.512 76.8667 248.505 81.3175 246.224C87.0446 243.289 88.957 234.212 85.4553 223.468C81.1799 210.35 70.4496 199.715 61.4901 199.715C59.765 199.687 58.0667 200.142 56.5865 201.028C54.0241 202.594 46.5881 210.042 43.8242 212.55Z" fill="#E6E6E6"/>
<path fill-rule="evenodd" clip-rule="evenodd" d="M53.3125 229.97L64.4915 250.492L66.7229 252.53C71.3792 250.51 76.867 248.503 81.3178 246.222C87.0449 243.287 88.9573 234.21 85.4556 223.466C84.3638 220.14 82.8748 216.957 81.0207 213.986L53.3125 229.97Z" fill="#B3B3B3"/>
<path d="M67.3763 252.217C73.915 248.695 74.2921 236.715 68.2187 225.459C62.1452 214.203 51.921 207.933 45.3823 211.456C38.8436 214.978 38.4665 226.958 44.54 238.214C50.6135 249.47 60.8376 255.739 67.3763 252.217Z" fill="#CCCCCC"/>
<path fill-rule="evenodd" clip-rule="evenodd" d="M70.918 120.346L195.989 48.1987L221.081 62.6737L209.958 69.0893L200.041 63.3691L86.0932 129.101L70.918 120.346Z" fill="#BB7AFC"/>
<path fill-rule="evenodd" clip-rule="evenodd" d="M209.958 69.0894L96.0105 134.822L86.0938 129.101L200.041 63.3691L209.958 69.0894Z" fill="#57329B"/>
<path d="M154.25 0.0378251C154.449 0.0378251 154.649 0.0198933 154.848 0.013916C154.649 0.0198933 154.449 0.027863 154.25 0.0378251Z" fill="#EABD00"/>
<path d="M149.309 0.651546C149.815 0.549268 150.322 0.459609 150.83 0.382568C150.322 0.460937 149.815 0.550596 149.309 0.651546Z" fill="#EABD00"/>
<path d="M155.049 0.009913C155.29 0.009913 155.529 0.009913 155.771 0.009913C155.529 -4.91254e-05 155.29 -4.91254e-05 155.049 0.009913Z" fill="#EABD00"/>
<path d="M148.49 0.82289C148.736 0.76843 148.981 0.716627 149.226 0.66748C148.981 0.717955 148.736 0.769758 148.49 0.82289Z" fill="#EABD00"/>
<path d="M157.091 9.51383C160.804 8.1884 164.713 7.49667 168.656 7.46761C173.817 7.46761 178.627 8.58138 182.787 10.8547C182.787 10.8428 172.208 4.73201 170.357 3.682C166.074 1.21936 161.125 0 155.77 0C155.529 0 155.29 0 155.049 0.00996213H154.849C154.65 0.00996213 154.45 0.0239091 154.251 0.0338712H154.113C153.872 0.0458258 153.631 0.0617652 153.389 0.079697L153.234 0.093644L152.636 0.147439L152.472 0.163379C152.225 0.18928 151.978 0.217174 151.728 0.249053H151.7L150.983 0.348674L150.839 0.370591C150.331 0.44896 149.824 0.538619 149.317 0.639569L149.234 0.655508C148.988 0.705983 148.742 0.757786 148.498 0.810917H148.462C147.928 0.930463 147.395 1.06396 146.867 1.2094H146.849C145.975 1.4465 145.102 1.71946 144.23 2.02231L157.091 9.51383Z" fill="#FFCC00"/>
<path d="M141.256 3.20183C141.477 3.10619 141.699 3.00259 141.922 2.9209C141.699 3.01255 141.477 3.10619 141.256 3.20183Z" fill="#EABD00"/>
<path d="M142.809 2.56428C143.072 2.46068 143.337 2.36504 143.606 2.26343C143.337 2.36106 143.072 2.46068 142.809 2.56428Z" fill="#EABD00"/>
<path d="M144.215 2.04419L143.635 2.24343L144.217 2.04419H144.215Z" fill="#EABD00"/>
<path d="M143.133 17.2186L130.225 9.7749C133.373 7.34335 136.78 5.26785 140.385 3.58643C127.585 9.45412 115.563 22.0861 107.283 38.1968L120.177 45.6366C126.227 33.8852 134.258 23.9889 143.133 17.2186Z" fill="#EABD00"/>
<path d="M142.043 2.86906C142.286 2.76944 142.532 2.66982 142.777 2.57617C142.532 2.67181 142.286 2.76944 142.043 2.86906Z" fill="#EABD00"/>
<path d="M140.402 3.5864C140.65 3.47283 140.897 3.36325 141.144 3.25366C140.897 3.35926 140.65 3.46884 140.402 3.5864Z" fill="#EABD00"/>
<path d="M143.133 17.2186C147.619 13.7956 152.322 11.1716 157.092 9.51388L144.216 2.04626L143.633 2.24551L143.601 2.25746C143.336 2.35509 143.071 2.4567 142.804 2.55832L142.772 2.57027C142.526 2.66591 142.281 2.76952 142.038 2.86316L141.916 2.91496C141.693 3.00661 141.472 3.10026 141.25 3.19589L141.139 3.24371C140.891 3.3533 140.644 3.46288 140.397 3.57645L140.385 3.58641C136.776 5.26719 133.365 7.3427 130.215 9.77488L143.133 17.2186Z" fill="#EABD00"/>
<path d="M183.27 11.5222C183.377 11.6796 183.487 11.835 183.593 11.9944C183.611 12.0243 183.631 12.0542 183.651 12.0841C183.762 12.2534 183.872 12.4228 183.98 12.5961C183.994 12.616 184.006 12.6379 184.02 12.6599C184.131 12.8412 184.243 13.0225 184.353 13.2078C187.186 18.0016 188.764 23.9131 189.362 30.5758C194.808 40.6614 196.445 55.232 193.069 71.2671C192.431 74.2906 191.626 77.2766 190.658 80.2111L198.301 75.8018C198.69 74.3115 199.044 72.8059 199.366 71.285C204.657 46.1466 199.392 24.0944 186.973 13.688C185.676 12.6003 184.273 11.6452 182.785 10.8368C182.918 11.0214 183.051 11.2087 183.184 11.3987L183.27 11.5222Z" fill="#FFBD00"/>
<path d="M183.192 11.4087C183.059 11.22 182.926 11.0328 182.793 10.8468C182.926 11.0314 183.059 11.2187 183.192 11.4087Z" fill="#FFBD00"/>
<path d="M183.658 12.0841C183.768 12.2535 183.88 12.4228 183.987 12.5962C183.872 12.4228 183.762 12.2535 183.658 12.0841Z" fill="#FFBD00"/>
<path d="M176.08 18.1809L176.28 18.2546L176.579 18.3741L176.778 18.4538L177.143 18.6112L177.325 18.6909L177.58 18.8065L177.779 18.8961L178.023 19.0137L178.222 19.1073L178.473 19.2349L178.645 19.3245C178.762 19.3863 178.878 19.45 178.994 19.5238L179.151 19.6114C179.255 19.6692 179.351 19.727 179.46 19.7868L179.628 19.8864L179.871 20.0338L180.047 20.1414L180.156 20.2092C180.964 20.7222 181.737 21.2872 182.471 21.9007C184.201 23.3711 185.742 25.0495 187.06 26.8977L189.03 28.0394L188.169 28.5355C188.587 29.1996 188.986 29.8837 189.365 30.5877C188.767 23.925 187.189 18.0135 184.356 13.2197L175.881 18.1052L176.08 18.1809Z" fill="#FFBD00"/>
<path d="M169.699 16.7025L169.98 16.7324L170.221 16.7603L170.476 16.7922L170.72 16.826L170.971 16.8619L171.21 16.8978L171.475 16.9436L171.695 16.9795L172.148 17.0651C172.217 17.0771 172.285 17.093 172.347 17.107L172.618 17.1628L172.843 17.2146L173.095 17.2723L173.322 17.3261L173.573 17.3899L173.793 17.4477L174.07 17.5234L174.259 17.5772L174.694 17.7067L174.893 17.7685L175.159 17.8541L175.358 17.9259L175.605 18.0115L175.805 18.0872L175.857 18.1052L184.34 13.2178C184.23 13.0325 184.118 12.8511 184.007 12.6698C183.993 12.6479 183.981 12.626 183.967 12.6061C183.859 12.4327 183.747 12.2634 183.638 12.094C183.618 12.0641 183.598 12.0343 183.58 12.0044C183.474 11.845 183.364 11.6896 183.257 11.5322L183.179 11.4186C183.046 11.23 182.913 11.0427 182.78 10.8567C178.61 8.59134 173.807 7.4696 168.65 7.4696C164.707 7.49866 160.797 8.19039 157.084 9.51582L169.447 16.6886L169.699 16.7025Z" fill="#FFBD00"/>
<path d="M150.253 21.319L143.134 17.2106C134.258 23.9848 126.224 33.8772 120.178 45.6285L125.48 48.6869C131.845 36.557 140.687 26.7842 150.253 21.319Z" fill="#FFBD00"/>
<path d="M189.031 28.0374L187.061 26.8977C187.443 27.429 187.813 27.9749 188.169 28.5355L189.031 28.0374Z" fill="#FFBD00"/>
<path d="M150.252 21.3189C155.622 18.2526 161.22 16.5371 166.737 16.5371H167.234H167.483H167.744H168H168.255L168.508 16.5511L168.771 16.569L169.013 16.5849L169.368 16.6168H169.443L157.08 9.44409C152.312 11.1018 147.61 13.7258 143.121 17.1488L150.252 21.3189Z" fill="#FFBD00"/>
<path d="M190.239 69.0993C189.257 73.786 187.881 78.3816 186.125 82.837L190.66 80.221C191.628 77.2865 192.433 74.3006 193.07 71.277C196.447 55.242 194.809 40.6714 189.363 30.5857C189.519 32.3125 189.61 34.0837 189.637 35.8995C192.46 45.1264 192.845 56.6566 190.239 69.0993Z" fill="#EABD00"/>
<path d="M115.645 89.1032C115.645 88.8163 115.631 88.5274 115.627 88.2385C115.631 88.5274 115.637 88.8163 115.645 89.1032Z" fill="#EABD00"/>
<path d="M115.658 85.0965C115.658 84.7976 115.678 84.4988 115.692 84.1959C115.678 84.4968 115.668 84.7976 115.658 85.0965Z" fill="#EABD00"/>
<path d="M115.828 81.9524C115.848 81.6695 115.872 81.3846 115.896 81.0977C115.872 81.3846 115.858 81.6695 115.828 81.9524Z" fill="#EABD00"/>
<path d="M115.626 88.2007C115.626 87.9018 115.626 87.603 115.626 87.3021C115.622 87.601 115.622 87.9018 115.626 88.2007Z" fill="#EABD00"/>
<path d="M115.904 80.9981C115.932 80.6892 115.962 80.3804 115.992 80.0696C115.962 80.3804 115.932 80.6932 115.904 80.9981Z" fill="#EABD00"/>
<path d="M115.633 86.1445C115.633 85.8595 115.645 85.5746 115.653 85.2877C115.645 85.5746 115.637 85.8595 115.633 86.1445Z" fill="#EABD00"/>
<path d="M115.623 87.1108C115.623 86.8119 115.623 86.5131 115.623 86.2102C115.627 86.5111 115.623 86.8119 115.623 87.1108Z" fill="#EABD00"/>
<path d="M115.752 83.0602C115.77 82.7573 115.79 82.4625 115.812 82.1497C115.79 82.4545 115.77 82.7573 115.752 83.0602Z" fill="#EABD00"/>
<path d="M116.756 74.4529C116.806 74.164 116.858 73.8751 116.909 73.5842C116.856 73.8751 116.806 74.164 116.756 74.4529Z" fill="#EABD00"/>
<path d="M117.16 72.2632C117.226 71.9345 117.292 71.6077 117.36 71.277C117.292 71.6077 117.226 71.9265 117.16 72.2632Z" fill="#EABD00"/>
<path d="M116.934 73.4508C116.993 73.13 117.055 72.8092 117.117 72.4865C117.055 72.8092 116.993 73.122 116.934 73.4508Z" fill="#EABD00"/>
<path d="M117.67 69.8664C117.831 69.1611 118 68.4604 118.178 67.7644C118.002 68.4604 117.832 69.1611 117.67 69.8664Z" fill="#EABD00"/>
<path d="M116.256 77.7365C116.296 77.4257 116.338 77.1129 116.383 76.7981C116.342 77.1069 116.3 77.4257 116.256 77.7365Z" fill="#EABD00"/>
<path d="M116.41 76.6427C116.45 76.3617 116.494 76.0788 116.538 75.7959C116.494 76.0788 116.456 76.3617 116.41 76.6427Z" fill="#EABD00"/>
<path d="M116.121 78.8622C116.157 78.5593 116.195 78.2644 116.233 77.9536C116.195 78.2565 116.157 78.5593 116.121 78.8622Z" fill="#EABD00"/>
<path d="M115.68 90.1533C115.668 89.8604 115.656 89.5675 115.648 89.2747C115.658 89.5675 115.668 89.8584 115.68 90.1533Z" fill="#EABD00"/>
<path d="M117.397 102.068C117.257 101.532 117.124 100.988 116.998 100.436C117.124 100.988 117.253 101.532 117.397 102.068Z" fill="#EABD00"/>
<path d="M116.982 100.351C116.92 100.076 116.861 99.7966 116.803 99.5177C116.855 99.7966 116.92 100.076 116.982 100.351Z" fill="#EABD00"/>
<path d="M118.671 106.184C118.481 105.665 118.301 105.134 118.131 104.59C118.302 105.13 118.482 105.661 118.671 106.184Z" fill="#EABD00"/>
<path d="M186.975 29.2229C188.055 31.3672 188.947 33.6012 189.641 35.8996C189.613 34.0825 189.522 32.3112 189.368 30.5858C188.987 29.8804 188.589 29.1964 188.171 28.5336L186.975 29.2229Z" fill="#EABD00"/>
<path d="M119.268 107.734C119.069 107.234 118.869 106.724 118.67 106.208C118.867 106.724 119.065 107.234 119.268 107.734Z" fill="#EABD00"/>
<path d="M118.128 104.602C118.044 104.335 117.961 104.068 117.881 103.805C117.961 104.06 118.052 104.327 118.128 104.602Z" fill="#EABD00"/>
<path d="M115.869 93.0463C115.845 92.7693 115.821 92.4924 115.801 92.2114C115.821 92.4983 115.845 92.7753 115.869 93.0463Z" fill="#EABD00"/>
<path d="M116.456 97.6747C116.41 97.4017 116.366 97.1268 116.322 96.8518C116.368 97.1268 116.412 97.4017 116.456 97.6747Z" fill="#EABD00"/>
<path d="M116.178 95.8357C116.102 95.2672 116.036 94.6934 115.979 94.1143C116.032 94.6934 116.098 95.2672 116.178 95.8357Z" fill="#EABD00"/>
<path d="M184.855 25.6186L187.049 26.8958C185.724 25.0456 184.176 23.3665 182.438 21.8968C181.704 21.2833 180.931 20.7182 180.123 20.2052C181.928 21.7978 183.518 23.6174 184.855 25.6186Z" fill="#EABD00"/>
<path d="M119.275 107.75C120.871 111.66 122.966 115.055 125.497 117.812C122.968 115.053 120.873 111.66 119.275 107.75Z" fill="#EABD00"/>
<path d="M172.145 17.0652C172.214 17.0771 172.282 17.0931 172.344 17.107C172.292 17.0931 172.214 17.0771 172.145 17.0652Z" fill="#EABD00"/>
<path d="M186.975 29.2229L188.171 28.5335C187.822 27.9743 187.452 27.4291 187.061 26.8978L184.867 25.6206C185.643 26.7771 186.347 27.9802 186.975 29.2229Z" fill="#EABD00"/>
<path d="M150.253 21.319C140.682 26.7762 131.846 36.5491 125.48 48.6869C131.846 36.557 140.688 26.7842 150.253 21.319Z" fill="#EABD00"/>
<path d="M115.969 94.1122C115.969 94.0644 115.969 94.0166 115.955 93.9688C115.959 94.0166 115.965 94.0644 115.969 94.1122Z" fill="#E6E6E6"/>
<path d="M115.801 92.2174C115.801 92.1716 115.801 92.1237 115.791 92.0759C115.793 92.1237 115.797 92.1716 115.801 92.2174Z" fill="#E6E6E6"/>
<path d="M180.129 20.1992L180.02 20.1315L180.135 20.2052L180.129 20.1992Z" fill="#E6E6E6"/>
<path d="M179.123 19.6014C179.227 19.6592 179.322 19.717 179.432 19.7768C179.33 19.725 179.227 19.6592 179.123 19.6014Z" fill="#E6E6E6"/>
<path d="M116.637 98.6768C116.637 98.6509 116.637 98.625 116.623 98.5991C116.627 98.625 116.633 98.6509 116.637 98.6768Z" fill="#E6E6E6"/>
<path d="M116.471 97.7604C116.471 97.7325 116.471 97.7046 116.457 97.6747C116.455 97.7046 116.467 97.7325 116.471 97.7604Z" fill="#E6E6E6"/>
<path d="M178.617 19.3265C178.735 19.3883 178.85 19.4521 178.966 19.5258C178.85 19.4501 178.735 19.3863 178.617 19.3265Z" fill="#E6E6E6"/>
<path d="M115.992 80.0696C115.992 79.9979 116.008 79.9241 116.014 79.8524C116.008 79.9241 116 79.9979 115.992 80.0696Z" fill="#E6E6E6"/>
<path d="M115.742 83.2236C115.742 83.1698 115.742 83.116 115.752 83.0602C115.748 83.116 115.746 83.1698 115.742 83.2236Z" fill="#E6E6E6"/>
<path d="M116.232 77.9536C116.232 77.8819 116.25 77.8082 116.26 77.7365C116.256 77.8082 116.242 77.8819 116.232 77.9536Z" fill="#E6E6E6"/>
<path d="M115.812 82.1497C115.812 82.0839 115.822 82.0182 115.828 81.9504C115.822 82.0182 115.818 82.0879 115.812 82.1497Z" fill="#E6E6E6"/>
<path d="M115.896 81.0917C115.896 81.0578 115.896 81.0259 115.896 80.9921C115.902 81.0319 115.9 81.0638 115.896 81.0917Z" fill="#E6E6E6"/>
<path d="M115.684 90.2669C115.684 90.229 115.684 90.1912 115.684 90.1533C115.68 90.1912 115.682 90.229 115.684 90.2669Z" fill="#E6E6E6"/>
<path d="M116.721 74.6562C116.733 74.5884 116.743 74.5207 116.755 74.4569C116.743 74.5167 116.733 74.5884 116.721 74.6562Z" fill="#E6E6E6"/>
<path d="M116.389 76.798C116.389 76.7462 116.403 76.6944 116.411 76.6426C116.403 76.6944 116.395 76.7462 116.389 76.798Z" fill="#E6E6E6"/>
<path d="M115.659 89.2746C115.659 89.2168 115.659 89.1591 115.659 89.1033C115.647 89.1591 115.647 89.2168 115.659 89.2746Z" fill="#E6E6E6"/>
<path d="M115.631 86.2103C115.631 86.1884 115.631 86.1664 115.631 86.1445C115.633 86.1664 115.631 86.1884 115.631 86.2103Z" fill="#E6E6E6"/>
<path d="M115.693 84.1959C115.693 84.146 115.693 84.0942 115.693 84.0444C115.699 84.0942 115.695 84.146 115.693 84.1959Z" fill="#E6E6E6"/>
<path d="M175.88 18.1052L175.828 18.0873L175.878 18.1052H175.88Z" fill="#E6E6E6"/>
<path d="M186.936 61.6297C187.62 61.5252 188.287 61.3281 188.918 61.0439C188.165 61.3809 187.454 61.8056 186.8 62.3091C186.699 62.8152 186.595 63.3213 186.487 63.8274C184.761 71.989 182.001 79.8976 178.273 87.3619L186.12 82.8371C187.877 78.3818 189.255 73.7862 190.238 69.0993C192.84 56.6566 192.456 45.1265 189.64 35.8995C189.764 43.8214 188.731 52.5761 186.936 61.6297Z" fill="#E6E6E6"/>
<path d="M141.932 108.332C131.12 104.465 125.603 88.9338 129.266 70.229C130.028 66.3417 131.147 62.5327 132.608 58.8502C131.344 57.7663 129.358 57.583 127.122 58.5713C129.515 57.5113 131.633 55.3595 132.875 52.9586L125.483 48.6948C122.315 54.7459 119.865 61.1457 118.183 67.7643C118.006 68.4603 117.836 69.161 117.674 69.8663C117.568 70.3339 117.465 70.8041 117.365 71.277C117.295 71.6077 117.229 71.9345 117.166 72.2632C117.152 72.3369 117.138 72.4127 117.122 72.4864C117.06 72.8091 116.998 73.1299 116.938 73.4507L116.914 73.5842C116.862 73.8751 116.811 74.164 116.761 74.4529C116.749 74.5206 116.739 74.5884 116.727 74.6521C116.673 74.9689 116.621 75.2857 116.571 75.6005C116.571 75.6643 116.553 75.7281 116.543 75.7998C116.5 76.0827 116.456 76.3656 116.416 76.6466C116.416 76.6984 116.4 76.7502 116.394 76.802C116.348 77.1168 116.306 77.4296 116.266 77.7404C116.266 77.8121 116.248 77.8858 116.238 77.9576C116.2 78.2604 116.163 78.5553 116.127 78.8661V78.9159C116.091 79.2307 116.057 79.5435 116.025 79.8564C116.025 79.9281 116.011 80.0018 116.003 80.0735C115.973 80.3844 115.943 80.6932 115.915 81.002C115.915 81.0359 115.915 81.0677 115.915 81.1016C115.891 81.3885 115.867 81.6735 115.847 81.9564C115.847 82.0221 115.838 82.0879 115.832 82.1556C115.81 82.4605 115.79 82.7633 115.772 83.0662C115.772 83.1219 115.772 83.1757 115.762 83.2295C115.746 83.5045 115.732 83.7775 115.72 84.0504C115.72 84.1002 115.72 84.152 115.72 84.2018C115.706 84.5027 115.696 84.7996 115.686 85.1024V85.3017C115.686 85.5886 115.67 85.8735 115.666 86.1584C115.666 86.1803 115.666 86.2022 115.666 86.2242C115.666 86.525 115.666 86.8219 115.666 87.1247V87.324C115.666 87.6228 115.666 87.9217 115.666 88.2226V88.2604C115.666 88.5493 115.666 88.8382 115.684 89.1251C115.684 89.1809 115.684 89.2387 115.684 89.2965C115.684 89.5894 115.704 89.8822 115.716 90.1751C115.716 90.213 115.716 90.2508 115.716 90.2887C115.728 90.5597 115.742 90.8306 115.758 91.0996V91.2291C115.776 91.52 115.794 91.8089 115.816 92.0978C115.816 92.1456 115.816 92.1935 115.826 92.2393C115.845 92.5202 115.869 92.7972 115.893 93.0741C115.892 93.09 115.892 93.106 115.893 93.1219C115.919 93.4128 115.947 93.7017 115.977 93.9906C115.977 94.0384 115.977 94.0863 115.991 94.1341C116.054 94.7132 116.12 95.287 116.19 95.8555L116.208 95.9811C116.248 96.266 116.288 96.5509 116.332 96.8318V96.8737C116.376 97.1486 116.42 97.4236 116.466 97.6965C116.466 97.7264 116.466 97.7543 116.48 97.7822C116.529 98.0631 116.579 98.3421 116.631 98.621C116.631 98.6469 116.631 98.6728 116.645 98.6987C116.699 98.9777 116.753 99.2546 116.809 99.5276V99.5395C116.866 99.8185 116.926 100.097 116.988 100.372L117.006 100.458C117.13 101.01 117.263 101.554 117.405 102.09L117.423 102.162C117.566 102.707 117.716 103.247 117.875 103.777L117.887 103.813C117.967 104.082 118.051 104.349 118.135 104.61C118.306 105.142 118.486 105.673 118.675 106.204V106.228C118.863 106.744 119.06 107.254 119.273 107.754V107.77C120.869 111.679 122.966 115.072 125.497 117.83L141.932 108.332Z" fill="#E6E6E6"/>
<path d="M182.244 58.908C182.874 60.9264 184.659 61.9565 186.936 61.6297C188.73 52.5761 189.763 43.8214 189.64 35.8995C188.946 33.6011 188.054 31.3672 186.974 29.2229L174.951 36.1486C179.601 41.1077 182.248 49.2528 182.244 58.908Z" fill="#E6E6E6"/>
<path d="M173.887 19.2529L184.854 25.6286C183.52 23.6278 181.931 21.8082 180.128 20.2152L180.013 20.1415L179.837 20.0339L179.594 19.8865L179.426 19.7868C179.325 19.7271 179.227 19.6693 179.117 19.6115L178.96 19.5238C178.844 19.4601 178.728 19.3963 178.611 19.3246L178.439 19.2349L178.188 19.1074L177.989 19.0138L177.745 18.8962L177.546 18.8066L177.291 18.691L177.109 18.6113L176.744 18.4539L176.545 18.3742L176.246 18.2547L176.046 18.1809L175.847 18.1052L173.887 19.2529Z" fill="#E6E6E6"/>
<path d="M181.999 71C182.017 70.1328 181.818 69.2747 181.42 68.5035C181.325 69.076 181.22 69.6512 181.107 70.229C179.732 77.2724 177.131 84.0201 173.422 90.1652L178.274 87.3618C181.998 79.8972 184.756 71.9886 186.479 63.8273C186.587 63.3212 186.691 62.8152 186.792 62.3091C184.019 64.431 182.005 67.9237 181.999 71Z" fill="#E6E6E6"/>
<path d="M173.886 19.2528L175.88 18.1052L175.83 18.0872L175.631 18.0115L175.368 17.9318L175.168 17.8601L174.903 17.7744L174.704 17.7127L174.269 17.5832L174.08 17.5294L173.802 17.4536L173.583 17.3959L173.326 17.3341L173.098 17.2803L172.847 17.2225L172.622 17.1707L172.351 17.1149C172.281 17.101 172.213 17.085 172.151 17.0731L171.693 16.9794L171.473 16.9436L171.208 16.8978L170.969 16.8619L170.718 16.826L170.474 16.7922L170.219 16.7603L169.976 16.7364L169.699 16.7025L169.447 16.6786L173.886 19.2528Z" fill="#E6E6E6"/>
<path d="M173.888 19.2528L160.262 27.097L150.253 21.319C140.682 26.7762 131.846 36.5491 125.48 48.6869L132.873 52.9507C133.606 51.5301 134.035 50.0238 134.039 48.6072C134.039 50.2809 134.637 51.552 135.634 52.3071C142.414 39.6811 152.81 31.046 162.856 31.046C166.962 31.046 170.687 32.3012 173.624 34.8714C174.084 35.2713 174.523 35.695 174.938 36.1406L186.961 29.2149C186.333 27.9743 185.63 26.7732 184.855 25.6186L173.888 19.2528Z" fill="#E6E6E6"/>
<path d="M150.252 21.3189L160.26 27.097L173.886 19.2528L169.443 16.6786H169.368L169.013 16.6467L168.771 16.6308L168.502 16.6068L168.249 16.5929H167.994H167.738H167.477H167.228H166.731C161.222 16.555 155.622 18.2606 150.252 21.3189Z" fill="#E6E6E6"/>
<path d="M181.107 70.229C181.22 69.6512 181.324 69.076 181.42 68.5036C180.353 66.533 177.914 65.9034 175.079 67.1567C178.895 65.4711 181.99 61.016 181.998 57.1945C181.994 57.7728 182.077 58.3484 182.244 58.9021C182.244 49.2468 179.601 41.1017 174.951 36.1426L139.318 56.6646L137.063 55.3635C135.24 57.4097 134.042 60.0298 134.038 62.4008C134.038 60.8228 133.499 59.6114 132.604 58.8363C131.145 62.519 130.027 66.3279 129.266 70.215C125.603 88.9199 131.12 104.451 141.933 108.318L173.422 90.1513C177.129 84.0104 179.73 77.2676 181.107 70.229Z" fill="#CCCCCC"/>
<path d="M140.959 52.4585C139.468 53.145 138.141 54.14 137.064 55.3775L139.32 56.6785L174.952 36.1565C174.537 35.7109 174.098 35.2872 173.638 34.8873C170.691 32.3171 166.966 31.0619 162.87 31.0619C152.824 31.0619 142.424 39.6971 135.648 52.3231C136.907 53.2774 138.819 53.397 140.959 52.4585Z" fill="#CCCCCC"/>
<path d="M132.872 52.9586C131.63 55.3595 129.518 57.5113 127.119 58.5713C129.355 57.5751 131.341 57.7743 132.605 58.8502C133.26 57.1978 133.974 55.5946 134.747 54.0405L132.872 52.9586Z" fill="white"/>
<path d="M135.637 52.3152C134.64 51.56 134.042 50.2889 134.042 48.6152C134.042 50.0318 133.609 51.5381 132.875 52.9587L134.749 54.0406C135.037 53.4575 135.332 52.8823 135.637 52.3152Z" fill="white"/>
<path d="M134.039 62.4147C134.039 60.0437 135.236 57.4237 137.064 55.3774L134.747 54.0405C133.977 55.592 133.264 57.1952 132.605 58.8502C133.501 59.6173 134.035 60.8367 134.039 62.4147Z" fill="white"/>
<path d="M137.063 55.3774C138.14 54.1399 139.467 53.145 140.958 52.4585C138.818 53.4029 136.906 53.2774 135.637 52.3151C135.332 52.8836 135.035 53.4587 134.746 54.0405L137.063 55.3774Z" fill="white"/>
<path d="M133.253 7.60706C132.114 8.36816 130.988 9.18041 129.875 10.0438C130.988 9.18174 132.114 8.36949 133.253 7.60706Z" fill="#EABD00"/>
<path d="M140.262 3.64807C139.948 3.79352 139.633 3.94295 139.32 4.09637C139.633 3.94295 139.948 3.78555 140.262 3.64807Z" fill="#EABD00"/>
<path d="M141.921 2.92084L141.973 2.89893L141.469 3.11212C141.618 3.04836 141.77 2.98858 141.921 2.92084Z" fill="#EABD00"/>
<path d="M137.993 4.76587C137.215 5.17764 136.442 5.61331 135.672 6.0729C136.446 5.61066 137.219 5.17498 137.993 4.76587Z" fill="#EABD00"/>
<path d="M139.117 4.19604C138.746 4.37935 138.375 4.56796 138.006 4.76189C138.374 4.56929 138.744 4.38068 139.117 4.19604Z" fill="#EABD00"/>
<path d="M145.119 1.74536C145.301 1.68559 145.483 1.62781 145.664 1.57202C145.481 1.62781 145.3 1.68559 145.119 1.74536Z" fill="#EABD00"/>
<path d="M141.98 2.89898C142.162 2.82326 142.343 2.75154 142.527 2.67981L142.05 2.87905L141.98 2.89898Z" fill="#EABD00"/>
<path d="M144.216 2.04618L143.965 2.13583L144.431 1.97644L144.216 2.04618Z" fill="#EABD00"/>
<path d="M143.633 2.2514L143.602 2.26336C143.442 2.32114 143.283 2.3829 143.125 2.44467L143.711 2.22351L143.633 2.2514Z" fill="#EABD00"/>
<path d="M142.52 2.67981L142.777 2.5762L142.807 2.56425C142.912 2.52241 143.02 2.48455 143.126 2.4447C142.922 2.52041 142.721 2.59015 142.52 2.67981Z" fill="#EABD00"/>
<path d="M145.982 1.47635C146.268 1.39267 146.551 1.31098 146.834 1.23328C146.551 1.31098 146.268 1.39466 145.982 1.47635Z" fill="#EABD00"/>
<path d="M140.385 3.58638L140.258 3.64814L140.547 3.51465L140.397 3.58239L140.385 3.58638Z" fill="#EABD00"/>
<path d="M141.144 3.24966L141.064 3.28552L141.463 3.11218L141.25 3.20184L141.144 3.24966Z" fill="#EABD00"/>
<path d="M127.583 11.9048C126.473 12.8492 125.379 13.8414 124.301 14.8815C125.378 13.8441 126.472 12.8519 127.583 11.9048Z" fill="#EABD00"/>
<path d="M114.346 123.562L114.944 123.905L117.851 122.223C116.042 119.65 114.53 116.88 113.346 113.967C112.567 112.071 111.901 110.131 111.352 108.157C108.457 97.7743 108.162 85.0606 111.057 71.2969C112.938 62.3767 116.004 53.7476 120.172 45.6385L107.282 38.1967C111.681 29.6453 117.131 22.074 123.193 15.9752C111.57 27.6688 102.191 44.7717 98.1792 63.8273C92.3843 91.3507 99.3059 114.837 114.346 123.562Z" fill="#EABD00"/>
<path d="M123.236 15.9394C123.579 15.5967 123.922 15.256 124.269 14.9232C123.914 15.254 123.571 15.5947 123.236 15.9394Z" fill="#EABD00"/>
<path d="M119.275 107.75V107.734C119.076 107.234 118.876 106.724 118.677 106.208V106.184C118.487 105.665 118.307 105.134 118.137 104.59C118.053 104.323 117.969 104.056 117.889 103.793L117.877 103.758C117.718 103.228 117.568 102.688 117.425 102.142L117.407 102.07C117.267 101.534 117.133 100.99 117.008 100.438L116.99 100.352C116.928 100.078 116.868 99.7986 116.81 99.5197V99.5077C116.755 99.2347 116.701 98.9578 116.647 98.6789C116.647 98.653 116.647 98.627 116.633 98.6011C116.581 98.3222 116.531 98.0433 116.481 97.7623C116.481 97.7344 116.481 97.7065 116.467 97.6767C116.422 97.4037 116.378 97.1287 116.334 96.8538V96.812C116.29 96.531 116.25 96.2461 116.21 95.9612L116.192 95.8357C116.116 95.2672 116.05 94.6933 115.993 94.1142C115.993 94.0664 115.993 94.0186 115.979 93.9708C115.949 93.6819 115.921 93.3929 115.895 93.1021C115.894 93.0861 115.894 93.0702 115.895 93.0542C115.871 92.7773 115.847 92.5003 115.827 92.2194C115.827 92.1736 115.827 92.1258 115.817 92.0779C115.795 91.789 115.777 91.5001 115.76 91.2093V91.0797C115.744 90.8108 115.73 90.5398 115.718 90.2688C115.718 90.231 115.718 90.1931 115.718 90.1553C115.704 89.8624 115.694 89.5695 115.686 89.2766C115.686 89.2188 115.686 89.161 115.686 89.1052C115.686 88.8183 115.672 88.5294 115.668 88.2405V88.2027C115.668 87.9038 115.668 87.6049 115.668 87.3041V87.1049C115.668 86.806 115.668 86.5071 115.668 86.2043C115.668 86.1824 115.668 86.1604 115.668 86.1385C115.668 85.8536 115.68 85.5687 115.688 85.2818V85.0825C115.688 84.7837 115.708 84.4848 115.722 84.182C115.722 84.1322 115.722 84.0804 115.722 84.0305C115.734 83.7576 115.748 83.4846 115.764 83.2097C115.764 83.1559 115.764 83.1021 115.773 83.0463C115.791 82.7434 115.811 82.4486 115.833 82.1357C115.833 82.07 115.843 82.0042 115.849 81.9365C115.869 81.6536 115.893 81.3687 115.917 81.0818C115.917 81.0479 115.917 81.016 115.917 80.9821C115.945 80.6733 115.975 80.3645 116.005 80.0537C116.005 79.9819 116.021 79.9082 116.027 79.8365C116.059 79.5237 116.093 79.2109 116.128 78.8961V78.8463C116.164 78.5434 116.202 78.2485 116.24 77.9377C116.24 77.866 116.258 77.7923 116.268 77.7205C116.308 77.4097 116.35 77.0969 116.396 76.7821C116.396 76.7303 116.41 76.6785 116.418 76.6267C116.457 76.3458 116.501 76.0628 116.545 75.7799C116.555 75.7161 116.563 75.6524 116.573 75.5807C116.623 75.2659 116.675 74.9491 116.729 74.6323C116.741 74.5645 116.753 74.4968 116.763 74.433C116.812 74.1441 116.864 73.8552 116.916 73.5643L116.94 73.4308C117 73.1101 117.062 72.7893 117.123 72.4665C117.139 72.3928 117.153 72.3171 117.167 72.2434C117.233 71.9146 117.299 71.5878 117.367 71.2571C117.466 70.7842 117.57 70.314 117.676 69.8465C117.837 69.1411 118.006 68.4405 118.184 67.7445C119.867 61.1258 122.317 54.726 125.485 48.675L120.182 45.6166C116.014 53.7322 112.95 62.3681 111.071 71.295C108.172 85.0626 108.479 97.7763 111.366 108.155C111.915 110.129 112.581 112.069 113.361 113.965C114.54 116.879 116.046 119.649 117.851 122.223L125.499 117.812C122.966 115.055 120.872 111.66 119.275 107.75Z" fill="#FFBD00"/>
<path d="M188.919 61.0439C188.287 61.3281 187.621 61.5252 186.936 61.6297C186.893 61.8569 186.847 62.082 186.801 62.3091C187.454 61.8056 188.165 61.3809 188.919 61.0439Z" fill="white"/>
<path d="M181.42 68.5036C181.817 69.2748 182.016 70.1328 181.998 71.0001C181.998 67.9238 184.018 64.4251 186.8 62.3092C186.846 62.082 186.892 61.8569 186.936 61.6297C184.658 61.9565 182.874 60.9264 182.243 58.9081C182.235 62.1238 181.96 65.3334 181.42 68.5036Z" fill="white"/>
<path d="M175.084 67.1567C177.92 65.9035 180.358 66.5331 181.425 68.5036C181.965 65.3333 182.24 62.1238 182.249 58.9081C182.082 58.3544 181.999 57.7788 182.004 57.2006C181.992 61.0161 178.897 65.4711 175.084 67.1567Z" fill="white"/>
<path opacity="0.53" d="M117.313 121.448L104.363 113.979C104.962 114.895 105.6 115.734 106.228 116.509C108.402 119.227 111.034 121.546 114.005 123.361C114.603 123.716 114.942 123.905 114.942 123.905L117.851 122.223L125.499 117.812L141.932 108.334L173.421 90.1672L178.273 87.3619L186.12 82.8371L190.655 80.221L198.298 75.8118C198.695 74.3175 117.313 121.448 117.313 121.448Z" fill="#593E34"/>
</g>
<defs>
<clipPath id="clip0_4092_1872">
<rect width="292" height="353" fill="white"/>
</clipPath>
</defs>
</svg>
