<svg width="207" height="62" viewBox="0 0 207 62" fill="none" xmlns="http://www.w3.org/2000/svg">
<path d="M14.832 48.3158C12.24 48.3158 9.952 47.8518 7.968 46.9238C5.984 45.9958 4.432 44.6678 3.312 42.9398C2.192 41.2118 1.632 39.1318 1.632 36.6998V35.3558H7.872V36.6998C7.872 38.7158 8.496 40.2358 9.744 41.2598C10.992 42.2518 12.688 42.7478 14.832 42.7478C17.008 42.7478 18.624 42.3158 19.68 41.4518C20.768 40.5878 21.312 39.4838 21.312 38.1398C21.312 37.2118 21.04 36.4598 20.496 35.8838C19.984 35.3078 19.216 34.8438 18.192 34.4918C17.2 34.1078 15.984 33.7558 14.544 33.4358L13.44 33.1958C11.136 32.6838 9.152 32.0438 7.488 31.2758C5.856 30.4758 4.592 29.4358 3.696 28.1558C2.832 26.8758 2.4 25.2118 2.4 23.1638C2.4 21.1158 2.88 19.3718 3.84 17.9318C4.832 16.4598 6.208 15.3398 7.968 14.5718C9.76 13.7718 11.856 13.3718 14.256 13.3718C16.656 13.3718 18.784 13.7878 20.64 14.6198C22.528 15.4198 24 16.6358 25.056 18.2678C26.144 19.8678 26.688 21.8838 26.688 24.3158V25.7558H20.448V24.3158C20.448 23.0358 20.192 22.0118 19.68 21.2438C19.2 20.4438 18.496 19.8678 17.568 19.5158C16.64 19.1318 15.536 18.9398 14.256 18.9398C12.336 18.9398 10.912 19.3078 9.984 20.0438C9.088 20.7478 8.64 21.7238 8.64 22.9718C8.64 23.8038 8.848 24.5078 9.264 25.0838C9.712 25.6598 10.368 26.1398 11.232 26.5238C12.096 26.9078 13.2 27.2438 14.544 27.5318L15.648 27.7718C18.048 28.2838 20.128 28.9398 21.888 29.7398C23.68 30.5398 25.072 31.5958 26.064 32.9078C27.056 34.2198 27.552 35.8998 27.552 37.9478C27.552 39.9958 27.024 41.8038 25.968 43.3718C24.944 44.9078 23.472 46.1238 21.552 47.0198C19.664 47.8838 17.424 48.3158 14.832 48.3158ZM41.5894 47.6438C40.0214 47.6438 38.7414 47.1638 37.7494 46.2038C36.7894 45.2118 36.3094 43.8998 36.3094 42.2678V28.8278H30.3574V23.8358H36.3094V16.4438H42.3574V23.8358H48.8854V28.8278H42.3574V41.2118C42.3574 42.1718 42.8054 42.6518 43.7014 42.6518H48.3094V47.6438H41.5894ZM64.8443 48.3158C62.4763 48.3158 60.3483 47.8358 58.4603 46.8758C56.5723 45.9158 55.0843 44.5238 53.9963 42.6998C52.9083 40.8758 52.3643 38.6838 52.3643 36.1238V35.3558C52.3643 32.7958 52.9083 30.6038 53.9963 28.7798C55.0843 26.9558 56.5723 25.5638 58.4603 24.6038C60.3483 23.6438 62.4763 23.1638 64.8443 23.1638C67.2123 23.1638 69.3403 23.6438 71.2283 24.6038C73.1163 25.5638 74.6043 26.9558 75.6923 28.7798C76.7803 30.6038 77.3243 32.7958 77.3243 35.3558V36.1238C77.3243 38.6838 76.7803 40.8758 75.6923 42.6998C74.6043 44.5238 73.1163 45.9158 71.2283 46.8758C69.3403 47.8358 67.2123 48.3158 64.8443 48.3158ZM64.8443 42.9398C66.7003 42.9398 68.2363 42.3478 69.4523 41.1638C70.6683 39.9478 71.2763 38.2198 71.2763 35.9798V35.4998C71.2763 33.2598 70.6683 31.5478 69.4523 30.3638C68.2683 29.1478 66.7323 28.5398 64.8443 28.5398C62.9883 28.5398 61.4523 29.1478 60.2363 30.3638C59.0203 31.5478 58.4123 33.2598 58.4123 35.4998V35.9798C58.4123 38.2198 59.0203 39.9478 60.2363 41.1638C61.4523 42.3478 62.9883 42.9398 64.8443 42.9398ZM82.9069 47.6438V23.8358H88.8589V26.5238H89.7229C90.0749 25.5638 90.6509 24.8598 91.4509 24.4118C92.2829 23.9638 93.2429 23.7398 94.3309 23.7398H97.2109V29.1158H94.2349C92.6989 29.1158 91.4349 29.5318 90.4429 30.3638C89.4509 31.1638 88.9549 32.4118 88.9549 34.1078V47.6438H82.9069ZM101.938 47.6438V23.8358H107.89V26.4278H108.754C109.17 25.6278 109.858 24.9398 110.818 24.3638C111.778 23.7558 113.042 23.4518 114.61 23.4518C116.306 23.4518 117.666 23.7878 118.69 24.4598C119.714 25.0998 120.498 25.9478 121.042 27.0038H121.906C122.45 25.9798 123.218 25.1318 124.21 24.4598C125.202 23.7878 126.61 23.4518 128.434 23.4518C129.906 23.4518 131.234 23.7718 132.418 24.4118C133.634 25.0198 134.594 25.9638 135.298 27.2438C136.034 28.4918 136.402 30.0758 136.402 31.9958V47.6438H130.354V32.4278C130.354 31.1158 130.018 30.1398 129.346 29.4998C128.674 28.8278 127.73 28.4918 126.514 28.4918C125.138 28.4918 124.066 28.9398 123.298 29.8358C122.562 30.6998 122.194 31.9478 122.194 33.5798V47.6438H116.146V32.4278C116.146 31.1158 115.81 30.1398 115.138 29.4998C114.466 28.8278 113.522 28.4918 112.306 28.4918C110.93 28.4918 109.858 28.9398 109.09 29.8358C108.354 30.6998 107.986 31.9478 107.986 33.5798V47.6438H101.938Z" fill="white"/>
<path d="M157.831 48.3158C155.687 48.3158 154.039 47.9478 152.887 47.2118C151.735 46.4758 150.887 45.6598 150.343 44.7638H149.479V47.6438H143.527V14.0438H149.575V26.5718H150.439C150.791 25.9958 151.255 25.4518 151.831 24.9398C152.439 24.4278 153.223 24.0118 154.183 23.6918C155.175 23.3398 156.391 23.1638 157.831 23.1638C159.751 23.1638 161.527 23.6438 163.159 24.6038C164.791 25.5318 166.103 26.9078 167.095 28.7318C168.087 30.5558 168.583 32.7638 168.583 35.3558V36.1238C168.583 38.7158 168.087 40.9238 167.095 42.7478C166.103 44.5718 164.791 45.9638 163.159 46.9238C161.527 47.8518 159.751 48.3158 157.831 48.3158ZM156.007 43.0358C157.863 43.0358 159.415 42.4438 160.663 41.2598C161.911 40.0438 162.535 38.2838 162.535 35.9798V35.4998C162.535 33.1958 161.911 31.4518 160.663 30.2678C159.447 29.0518 157.895 28.4438 156.007 28.4438C154.151 28.4438 152.599 29.0518 151.351 30.2678C150.103 31.4518 149.479 33.1958 149.479 35.4998V35.9798C149.479 38.2838 150.103 40.0438 151.351 41.2598C152.599 42.4438 154.151 43.0358 156.007 43.0358ZM174.136 47.6438V23.8358H180.184V47.6438H174.136ZM177.16 21.0518C176.072 21.0518 175.144 20.6998 174.376 19.9958C173.64 19.2918 173.272 18.3638 173.272 17.2118C173.272 16.0598 173.64 15.1318 174.376 14.4278C175.144 13.7238 176.072 13.3718 177.16 13.3718C178.28 13.3718 179.208 13.7238 179.944 14.4278C180.68 15.1318 181.048 16.0598 181.048 17.2118C181.048 18.3638 180.68 19.2918 179.944 19.9958C179.208 20.6998 178.28 21.0518 177.16 21.0518ZM196.006 47.6438C194.438 47.6438 193.158 47.1638 192.166 46.2038C191.206 45.2118 190.726 43.8998 190.726 42.2678V28.8278H184.774V23.8358H190.726V16.4438H196.774V23.8358H203.302V28.8278H196.774V41.2118C196.774 42.1718 197.222 42.6518 198.118 42.6518H202.726V47.6438H196.006Z" fill="url(#paint0_linear_80_419)"/>
<defs>
<linearGradient id="paint0_linear_80_419" x1="173.167" y1="57.9015" x2="177.691" y2="16.5568" gradientUnits="userSpaceOnUse">
<stop stop-color="#805FD8"/>
<stop offset="0.882222" stop-color="#CBB7FF"/>
</linearGradient>
</defs>
</svg>
