<svg xmlns="http://www.w3.org/2000/svg" width="15" height="15" viewBox="0 0 15 15" fill="none">
  <g clip-path="url(#clip0_3504_1286)">
    <path d="M0 14V0H15V15H8.4C8.56867 14.2153 8.73733 13.4313 8.91933 12.5873H6.386C6.56533 11.7693 6.72467 11 6.91267 10.238C6.93533 10.1467 7.10867 10.038 7.21467 10.032C7.858 10.0133 8.50267 10.0153 9.148 10.0267C9.38333 10.0307 9.51133 9.97533 9.554 9.71467C9.628 9.26733 9.74467 8.82667 9.842 8.38133C10.2147 6.68133 10.5907 4.98133 10.9553 3.28067C11.084 2.68067 10.7553 2.19467 10.1633 2.18333C8.78667 2.15733 7.40933 2.17 6.03 2.17933C5.98093 2.18665 5.9344 2.20593 5.89453 2.23545C5.85465 2.26498 5.82265 2.30386 5.80133 2.34867C5.61267 3.14333 5.44133 3.942 5.25533 4.78467C5.40733 4.79333 5.514 4.804 5.62 4.80467C6.142 4.80467 6.664 4.80467 7.186 4.80467C7.746 4.80467 7.88067 4.97067 7.762 5.52067C7.46067 6.92067 7.15067 8.314 6.85667 9.71333C6.80933 9.93667 6.70667 9.99333 6.49533 9.99C5.79533 9.98 5.09533 9.99 4.396 9.98267C4.19133 9.98267 4.09667 10.0493 4.05733 10.2533C3.95533 10.7753 3.83667 11.294 3.724 11.814C3.67 12.068 3.61867 12.322 3.55333 12.6373H6.2C6.18267 12.7347 6.17533 12.7773 6.16667 12.8193L5.73333 15H2.53333C2.53094 14.9448 2.53362 14.8894 2.54133 14.8347C3.10489 12.2569 3.66911 9.68133 4.234 7.108C4.36067 6.528 4.48467 5.94733 4.61933 5.32267C3.81933 5.32267 3.06533 5.33867 2.31333 5.31533C2.01 5.306 1.892 5.40133 1.82933 5.69867C1.38467 7.8 0.923333 9.9 0.462667 12C0.316 12.6667 0.154667 13.3333 0 14ZM5.302 2.17H3.26667C2.624 2.17 2.61733 2.17 2.478 2.78333C2.32933 3.43933 2.194 4.09933 2.042 4.80733C2.76133 4.80733 3.436 4.81667 4.10867 4.80733C4.80933 4.79533 4.70267 4.956 4.86933 4.20733C4.90533 4.04533 4.94467 3.884 4.97933 3.72133C5.08267 3.222 5.18533 2.72733 5.302 2.17Z" fill="#98E6FF"/>
    <path d="M5.73362 15L6.16962 12.822C6.17828 12.78 6.18562 12.7373 6.20295 12.64H3.55762C3.62428 12.3247 3.67428 12.0707 3.72828 11.8167C3.83962 11.2967 3.95828 10.778 4.06162 10.256C4.10095 10.056 4.19495 9.98267 4.40028 9.98534C5.10028 9.99534 5.80028 9.98534 6.49962 9.99267C6.71095 9.996 6.81362 9.93934 6.86095 9.716C7.15495 8.316 7.46495 6.92067 7.76628 5.52334C7.88495 4.97334 7.75028 4.80867 7.19028 4.80734C6.66828 4.80734 6.14628 4.80734 5.62428 4.80734C5.51828 4.80734 5.41162 4.796 5.25962 4.78734C5.44562 3.94467 5.61695 3.146 5.80562 2.35134C5.82693 2.30653 5.85894 2.26765 5.89881 2.23812C5.93869 2.2086 5.98521 2.18932 6.03428 2.182C7.41095 2.17267 8.78828 2.16 10.1676 2.186C10.7583 2.19734 11.0883 2.682 10.9596 3.28334C10.595 4.98467 10.219 6.68334 9.84628 8.384C9.74895 8.82734 9.63228 9.268 9.55828 9.71734C9.51562 9.978 9.38762 10.0333 9.15228 10.0293C8.50828 10.018 7.86362 10.016 7.21895 10.0347C7.11295 10.038 6.93962 10.1493 6.91695 10.2407C6.72895 11.0027 6.56962 11.774 6.39028 12.59H8.92362C8.74162 13.434 8.57295 14.218 8.40428 15.0027L5.73362 15Z" fill="black"/>
    <path d="M0 14C0.154667 13.3333 0.316 12.6667 0.462667 12C0.923333 9.90134 1.38467 7.8 1.82933 5.7C1.892 5.40267 2.01 5.30734 2.31333 5.31667C3.06533 5.34 3.818 5.324 4.61933 5.324C4.486 5.94867 4.36067 6.52934 4.234 7.10934C3.67 9.68445 3.10578 12.26 2.54133 14.836C2.5337 14.8903 2.53102 14.9452 2.53333 15H0V14Z" fill="black"/>
    <path d="M5.30173 2.17001C5.18506 2.72734 5.0824 3.22201 4.97773 3.71667C4.94306 3.87934 4.90373 4.04067 4.8664 4.20001C4.69973 4.95067 4.8064 4.79001 4.10573 4.80001C3.43173 4.81201 2.75706 4.80001 2.03906 4.80001C2.19106 4.09201 2.3264 3.43201 2.47506 2.77601C2.6144 2.16334 2.62106 2.16401 3.26373 2.16267L5.30173 2.17001Z" fill="black"/>
  </g>
  <defs>
    <clipPath id="clip0_3504_1286">
      <rect width="15" height="15" fill="white"/>
    </clipPath>
  </defs>
</svg>