<svg width="27" height="27" viewBox="0 0 27 27" fill="none" xmlns="http://www.w3.org/2000/svg">
<path d="M0 25.198V0H26.9979V26.9979H15.1188C15.4224 25.5856 15.726 24.1745 16.0535 22.6554H11.4939C11.8167 21.1831 12.1034 19.7984 12.4418 18.4269C12.4826 18.2626 12.7946 18.067 12.9854 18.0562C14.1433 18.0226 15.3036 18.0262 16.4651 18.0466C16.8887 18.0538 17.119 17.9542 17.1958 17.485C17.329 16.6799 17.539 15.8867 17.7142 15.0852C18.3849 12.0255 19.0617 8.96569 19.718 5.90473C19.9496 4.82482 19.3581 3.95009 18.2926 3.92969C15.8148 3.88289 13.3357 3.90569 10.8531 3.92249C10.7648 3.93566 10.6811 3.97035 10.6093 4.0235C10.5375 4.07665 10.4799 4.14662 10.4416 4.22727C10.102 5.65755 9.79363 7.09504 9.45885 8.61172C9.73243 8.62732 9.92442 8.64652 10.1152 8.64772C11.0547 8.64772 11.9943 8.64772 12.9338 8.64772C13.9417 8.64772 14.1841 8.94649 13.9705 9.93641C13.4281 12.4562 12.8702 14.964 12.341 17.4826C12.2558 17.8846 12.071 17.9866 11.6907 17.9806C10.4308 17.9626 9.17088 17.9806 7.91218 17.9674C7.5438 17.9674 7.37342 18.0874 7.30262 18.4545C7.11904 19.3941 6.90545 20.3276 6.70267 21.2635C6.60548 21.7207 6.51309 22.1778 6.39549 22.7454H11.1591C11.1279 22.9206 11.1147 22.9974 11.0991 23.073L10.3192 26.9979H4.55964C4.55534 26.8984 4.56016 26.7988 4.57404 26.7003C5.58836 22.0607 6.60388 17.425 7.6206 12.7934C7.84858 11.7495 8.07176 10.7044 8.31414 9.58004C6.87426 9.58004 5.51716 9.60884 4.16367 9.56684C3.61771 9.55005 3.40533 9.72163 3.29254 10.2568C2.4922 14.0389 1.66187 17.8186 0.832734 21.5983C0.568755 22.7982 0.278378 23.9981 0 25.198ZM9.54285 3.90569H5.87954C4.72283 3.90569 4.71083 3.90569 4.46005 5.0096C4.19247 6.19031 3.94889 7.37822 3.67531 8.65252C4.97001 8.65252 6.18431 8.66932 7.39502 8.65252C8.65612 8.63092 8.46413 8.9201 8.76411 7.5726C8.8289 7.28102 8.8997 6.99065 8.96209 6.69787C9.14808 5.79914 9.33286 4.90881 9.54285 3.90569Z" fill="#D0C8FF"/>
<path d="M10.3188 26.9978L11.1036 23.0777C11.1192 23.0021 11.1324 22.9253 11.1636 22.7502H6.40234C6.52233 22.1826 6.61233 21.7254 6.70952 21.2683C6.9099 20.3323 7.12349 19.3988 7.30947 18.4593C7.38027 18.0993 7.54945 17.9673 7.91902 17.9721C9.17892 17.9901 10.4388 17.9721 11.6975 17.9853C12.0779 17.9913 12.2627 17.8893 12.3479 17.4874C12.877 14.9676 13.435 12.4562 13.9773 9.94116C14.1909 8.95124 13.9485 8.65486 12.9406 8.65247C12.0011 8.65247 11.0616 8.65247 10.122 8.65247C9.93126 8.65247 9.73928 8.63207 9.4657 8.61647C9.80048 7.09979 10.1089 5.6623 10.4484 4.23201C10.4868 4.15137 10.5444 4.08139 10.6162 4.02825C10.6879 3.9751 10.7717 3.94041 10.86 3.92724C13.3378 3.91044 15.8168 3.88764 18.2994 3.93444C19.3625 3.95484 19.9565 4.82717 19.7249 5.90948C19.0685 8.97164 18.3918 12.029 17.721 15.09C17.5459 15.8879 17.3359 16.681 17.2027 17.4898C17.1259 17.9589 16.8955 18.0585 16.4719 18.0513C15.3128 18.0309 14.1525 18.0273 12.9922 18.0609C12.8014 18.0669 12.4895 18.2673 12.4487 18.4317C12.1103 19.8032 11.8235 21.1915 11.5007 22.6602H16.0604C15.7328 24.1792 15.4292 25.5903 15.1257 27.0026L10.3188 26.9978Z" fill="black"/>
<path d="M0 25.198C0.278378 23.9981 0.568755 22.7982 0.832734 21.5983C1.66187 17.821 2.4922 14.0389 3.29254 10.2592C3.40533 9.72401 3.61771 9.55242 4.16367 9.56922C5.51716 9.61122 6.87186 9.58242 8.31414 9.58242C8.07416 10.7067 7.84858 11.7519 7.6206 12.7958C6.60548 17.4306 5.58996 22.0662 4.57404 26.7027C4.5603 26.8004 4.55548 26.8992 4.55964 26.9978H0V25.198Z" fill="black"/>
<path d="M9.54226 3.90578C9.33227 4.9089 9.14749 5.79923 8.9591 6.68956C8.89671 6.98233 8.82591 7.27271 8.75872 7.55949C8.45874 8.91058 8.65073 8.6214 7.38963 8.6394C6.17652 8.661 4.96222 8.6394 3.66992 8.6394C3.9435 7.3651 4.18708 6.1772 4.45466 4.99649C4.70544 3.89378 4.71744 3.89498 5.87415 3.89258L9.54226 3.90578Z" fill="black"/>
</svg>
